<?xml version="1.0" encoding="UTF-8"?>
<svg id="Layer_1" xmlns="http://www.w3.org/2000/svg" version="1.1" viewBox="0 0 1080 1350">
  <!-- Generator: Adobe Illustrator 29.6.1, SVG Export Plug-In . SVG Version: 2.1.1 Build 9)  -->
  <defs>
    <style>
      .st0 {
        fill: #7fb22f;
      }

      .st1 {
        fill: #039ed6;
      }

      .st2 {
        fill: #ffc60d;
      }

      .st3 {
        fill: #ff8b1a;
      }

      .st4 {
        fill: #a0296b;
      }

      .st5 {
        fill: #fcfcff;
      }

      .st6 {
        fill: #0d0d0d;
      }

      .st7 {
        fill: #e12c21;
      }
    </style>
  </defs>
  <rect class="st6" y="-12" width="1080" height="1362"/>
  <g>
    <path class="st5" d="M156.73,841.96c1.29-.38,3.11-.73,5.47-1.08,2.35-.34,3.74-.51,4.16-.51,1.62-.04,2.71-.3,3.25-.79.25-1,.38-1.83.38-2.5l-.12-8.01.38-8.13v-5.19l.06-6.13-.12-6.51.25-13.95.06-6.32v-.88c-.29-4.38-.57-6.79-.84-7.22-.27-.44-1.47-.99-3.59-1.66-.21-.08-1-.4-2.38-.94-1.04-.42-1.98-.71-2.81-.88-1.46-.38-2.48-.81-3.06-1.31-.08-1.08-.12-1.92-.12-2.5,0-.33.02-.83.06-1.5.38-.21.77-.31,1.19-.31,1,0,4.62.17,10.88.5l8.94-.06,6.62.12c2.88,0,6.56-.17,11.06-.52,1.33-.11,2.1-.17,2.31-.17.62,0,1.06.17,1.31.49.33.45.5,1.28.5,2.47,0,.95-.23,1.67-.69,2.16-.25.29-1.17.54-2.75.75l-7.75,1.81c-.21.08-.56.25-1.06.5-.17.29-.29.54-.38.75l-.06,1.75-.19,3.94v1.82c0,.21-.05,1.36-.14,3.44-.03.54-.05,1.08-.05,1.63,0,.67.04,1.79.12,3.38.12,2.5.19,4.69.19,6.57,0,2.17-.06,4.65-.19,7.45-.04,1.04-.06,2.4-.06,4.07l-.25,29.66c0,1.25.21,2.07.62,2.44l5.94.24,3.69-.06,3.94.06c6.71,0,11.98-.77,15.81-2.3,2.88-1.16,4.75-2.33,5.62-3.49,1.42-1.25,2.57-2.59,3.47-4.05.9-1.45,1.91-3.86,3.03-7.22h2c1,0,2.12.08,3.38.25v1.75c0,2.99-.38,8.23-1.12,15.71-.29,2.99-.58,4.82-.88,5.49-.96.17-1.56.25-1.81.25h-2.31l-3.25.06c-.38,0-2.85-.17-7.44-.5-.83-.04-4.81-.19-11.94-.44s-14.1-.38-20.94-.38l-12.75.38c-4.92.12-9.52.35-13.81.69h-.94c-.25,0-.65-.02-1.19-.06-.08-.46-.12-.85-.12-1.19-.02-1.75.13-3.03.42-3.82Z"/>
    <path class="st5" d="M289.99,801.59c2.67,2.58,4.66,5.55,5.98,8.91,1.31,3.35,1.97,6.51,1.97,9.47,0,5.58-.86,10.08-2.57,13.5-2.59,5.17-6.07,8.98-10.45,11.44s-9.47,3.69-15.27,3.69c-6.51,0-12.02-1.46-16.55-4.38-4.53-2.92-7.76-6.23-9.7-9.94s-2.91-8.31-2.91-13.81c0-2.79.46-5.59,1.38-8.41s2.18-5.26,3.79-7.34,3.37-3.83,5.29-5.25c2.79-2,5.6-3.43,8.42-4.28,2.82-.85,6.23-1.28,10.23-1.28,8.71,0,15.51,2.55,20.39,7.68ZM255.81,823.18c.38,5.17.65,8.16.81,8.95.54,2.8,1.4,5.2,2.56,7.2.79,1.29,2.1,2.44,3.94,3.44,1.83,1,4.02,1.5,6.56,1.5,3.04,0,5.6-.97,7.69-2.91,2.08-1.94,3.58-4.98,4.5-9.11.58-2.71.88-7.15.88-13.33,0-7.59-1.25-12.96-3.75-16.12s-5.79-4.73-9.88-4.73c-3.21,0-5.87.9-7.97,2.69s-3.57,4.44-4.41,7.95c-.54,2.27-.85,7.09-.93,14.47Z"/>
    <path class="st5" d="M305.57,844c.54-.47,1.25-.82,2.12-1.03,2.12-.46,4.15-1.29,6.06-2.5.38-1,.56-4.37.56-10.11,0-10.52-.23-17.64-.69-21.34-.08-.67-.42-1.25-1-1.75-1.04-.54-2.46-1.02-4.25-1.44-.83-.21-1.33-.67-1.5-1.37l-.19-2.31c3.08-.42,5.88-1.47,8.38-3.16s4.38-3.41,5.62-5.16c.67-.96,1.25-1.69,1.75-2.19l4.38-.12c.21.96.31,1.75.31,2.38,0,.46-.02,1.02-.06,1.69-.04,1.46-.06,2.67-.06,3.62,0,.46.02,2.19.06,5.19,1.71-2.92,2.96-4.88,3.75-5.88.38-.46,1.48-1.48,3.31-3.06,1.42-1.04,3.02-1.56,4.81-1.56,2.21,0,4.12.75,5.75,2.25s2.44,3.23,2.44,5.19-.62,3.72-1.84,5.28c-1.23,1.56-2.87,2.34-4.91,2.34-1.79,0-3.67-.75-5.62-2.25-1.17-.92-2.1-1.38-2.81-1.38l-.44.06c-.88.29-1.67,1.08-2.38,2.37-1.17,2.08-1.75,4.24-1.75,6.48l.12,1.68c.17,3.07.29,10.28.38,21.61.12,1.04.52,2.08,1.19,3.12.75.58,1.51,1,2.28,1.25s2.11.46,4.03.63,3.08.43,3.5.79.62.94.62,1.74c0,.46-.12,1.08-.38,1.84h-5.88l-11.94-.56c-3,0-5.73.12-8.19.38h-1.06c-.29,0-2.46.1-6.5.31-.12-.69-.19-1.2-.19-1.55s.1-.84.22-1.48Z"/>
    <path class="st5" d="M354.4,813.99c1.08-3.55,2.04-5.9,2.88-7.07,2.33-3.42,4.82-6.09,7.47-8.01s5.03-3.19,7.16-3.82c2.75-.79,4.98-1.19,6.69-1.19,3.92,0,7.08.3,9.5.91,2.42.6,4.44,1.47,6.06,2.59,2.33,1.62,4.21,3.27,5.62,4.93,1.42,1.67,2.57,3.62,3.47,5.87s1.38,4.97,1.47,8.18l-6.94-.12c-1.92,0-6.12-.18-12.62-.55-2.42-.21-4.08-.31-5-.31-.29,0-2.54.04-6.75.12h-5.38c-.08.58-.12,1.09-.12,1.5,0,2.21.27,4.54.81,6.99.54,2.44,1.35,4.6,2.44,6.46,1.08,1.86,2.43,3.46,4.03,4.79,1.6,1.34,3.26,2.3,4.97,2.88l3.62,1.19c3.21,0,5.35-.1,6.44-.31,2-.42,3.76-.95,5.28-1.59,1.52-.65,3.36-1.74,5.53-3.28,1.5,1.08,2.75,2.06,3.75,2.94-3.67,4.04-7.47,6.97-11.41,8.78s-8.34,2.72-13.22,2.72c-3.29,0-5.98-.29-8.06-.88-2.79-.75-5.31-1.9-7.56-3.44s-4.19-3.46-5.81-5.76c-1.62-2.29-2.83-4.65-3.62-7.07-1.04-3.17-1.56-5.71-1.56-7.63-.01-3.63.28-6.9.86-9.82ZM390.71,811.34c-.04-2.34-.5-4.58-1.38-6.72s-2.23-3.8-4.06-4.99-3.69-1.79-5.56-1.79c-2.79,0-5.31,1.23-7.56,3.69s-3.52,5.79-3.81,10l14.25.12c.92,0,2.21-.06,3.88-.19,1.21-.11,2.06-.17,2.56-.17.37,0,.93.02,1.68.05Z"/>
    <path class="st5" d="M412.6,842.97c.33-.17.79-.28,1.38-.32,2.46-.17,4.42-.6,5.88-1.31.29-.12.47-.4.53-.81s.18-4.2.34-11.36v-3.62l.06-6.43-.06-6.68v-1.5c0-1.96-.45-3.4-1.34-4.34-.9-.94-3.24-1.94-7.03-3.03v-2.56c.79-.21,1.73-.44,2.81-.69,3.83-.79,7-1.92,9.5-3.38,1.92-1.12,3.81-2.81,5.69-5.06h3.44v1l.19,5-.06,2.31.12,1.12c3.96-3.12,7.26-5.19,9.91-6.19s5.68-1.5,9.1-1.5,6.47.71,9.53,2.12c3.06,1.42,5.62,3.79,7.66,7.12,2.96-2.86,5.44-4.86,7.44-6.02,1.38-.79,3.26-1.48,5.66-2.08,2.39-.6,4.66-.9,6.78-.9,5.79,0,10.37,1.75,13.75,5.24,3.37,3.54,5.06,8.32,5.06,14.36v9.92c0,2.04-.06,5.56-.19,10.55v4.81c0,.83.25,1.64.75,2.43,1.62.69,3.02,1.14,4.19,1.34.83.12,1.62.41,2.38.86.08.76.19,1.4.31,1.91l-.06,1.26c-1.17.21-2,.32-2.5.32-.33,0-1.34-.09-3.03-.28s-3.82-.28-6.41-.28c-6.29,0-11.29.19-15,.56-.29-1.04-.44-1.87-.44-2.49l.06-.87c.54-.29,2.33-1,5.38-2.14.54-.54.85-1.02.94-1.44.21-1.04.31-3.26.31-6.68l-.31-17.6c-.04-2.95-.27-5.4-.69-7.33s-1.03-3.45-1.84-4.56-1.91-2.01-3.28-2.71-2.81-1.06-4.31-1.06c-2.33,0-4.71.65-7.12,1.95-2.42,1.3-4.56,3.28-6.44,5.92l-.12,1.81.19,8-.12,6.56v6.25l-.06,5.56c0,2.75.27,4.38.81,4.88.83.79,2.88,1.35,6.12,1.69l1.94.64c.33.97.5,1.73.5,2.28,0,.3-.08.8-.25,1.52l-1.81-.06h-2.5l-1.31-.06c-2.95-.29-6.01-.46-9.17-.5l-6.68-.12c-1.62,0-4.43.19-8.42.56l-1.12-.19-.12-3.74c1.25-.35,3.5-.65,6.76-.88.21-.04.48-.12.81-.25.46-.54.72-1,.81-1.38.21-.83.31-2.52.31-5.06l-.06-12.69.19-3.38c0-6.5-.23-10.52-.69-12.06-.58-2-1.81-3.63-3.67-4.91-1.86-1.27-4.08-1.91-6.67-1.91-3.38,0-6.33.8-8.84,2.41-2.51,1.6-3.95,3.03-4.32,4.28-.04.5-.06.88-.06,1.12l.12.62v.62c0,.38-.12.96-.38,1.75l.19,17.94.06,9.38c0,.33.06.88.19,1.62l.31.94c1.16.36,2.15.63,2.97.79,1.53.32,2.68.69,3.47,1.09.12.71.19,1.21.19,1.5,0,.54-.17,1.31-.5,2.31-.67.04-1.15.06-1.44.06-.46,0-2.54-.17-6.25-.51l-6.81-.06c-3.25,0-7.19.21-11.81.62l-1.81-.06c-.08-.67-.17-1.43-.25-2.31-.05-.3.05-.84.26-1.55Z"/>
    <path class="st5" d="M552.95,847.15l-.12-4.06,7.06-.94c1.04-.29,1.76-.72,2.16-1.28.4-.56.59-1.82.59-3.78v-.69c0-.5.03-1.41.09-2.72s.09-2.47.09-3.47c0-.79-.06-2.31-.19-4.56l.09-3.12-.09-2.94.19-10.19c0-1.29-.13-2.62-.38-4-.46-.62-1.3-1.17-2.52-1.62-1.22-.46-3.34-.79-6.36-1v-3.5c4.29-.25,8.06-1.15,11.31-2.69,2.21-1,4.6-2.77,7.19-5.31h4.19c.17,5.17.25,11.88.25,20.12l-.44,25.5c0,1.75.08,3.33.25,4.75,1.29.46,3.4.92,6.31,1.38,1.12.17,2.02.38,2.69.62l-.12,3.44c-1.12.04-1.96.06-2.5.06-.62,0-1.58-.04-2.87-.12-4.24-.21-9.92-.31-17.03-.31-2.04,0-4.01.07-5.93.22-1.9.14-3.21.21-3.91.21ZM561.7,772.59c0-2.25.73-4.09,2.19-5.53s3.33-2.16,5.62-2.16c2.46,0,4.5.76,6.12,2.28s2.44,3.24,2.44,5.16c0,1.42-.32,2.83-.97,4.25-.65,1.42-1.67,2.55-3.06,3.41-1.4.85-2.82,1.28-4.28,1.28-2,0-3.84-.85-5.53-2.56-1.69-1.72-2.53-3.76-2.53-6.13Z"/>
    <path class="st5" d="M587.4,878.9v-2.81c.75-.46,1.29-.77,1.62-.94l4.81-1.75c2-.79,3.12-1.42,3.38-1.87.67-1.25.96-3.46.88-6.62l-.44-24.85-.62-30.91c-.12-2.25-.6-3.85-1.44-4.81-.83-.96-3.04-1.96-6.62-3l-.06-3.25c4.08-.79,7.52-1.77,10.31-2.94,2.04-.83,4.81-2.42,8.31-4.75l3.19-.12.06,1.75-.06,6.75c0,.25.02.88.06,1.88,3.62-2.21,6.6-3.67,8.94-4.38,3.42-1,7.19-1.5,11.31-1.5s8.02,1.08,11.31,3.25c.25.17.6.4,1.06.69,2.08,1.5,3.6,2.94,4.56,4.31,2.08,2.96,3.58,5.88,4.5,8.75.71,2.17,1.06,4.88,1.06,8.12,0,4.33-.56,8-1.69,11s-3.06,6.02-5.81,9.06-5.7,5.21-8.84,6.5c-3.15,1.29-6.45,1.94-9.91,1.94s-5.85-.21-7.31-.62c-2.79-.79-5.56-1.96-8.31-3.5-.12.67-.19,1.12-.19,1.38l.19,1.69c.04.46.06,1.02.06,1.69,0,.29-.04,1.94-.12,4.94l.25,11.38c0,.25-.04,1.08-.12,2.5v.69c0,1.54.11,2.67.33,3.38.17.42.54.88,1.11,1.38.42.17.81.35,1.19.56,1.29.25,2.43.5,3.41.75s2.01.46,3.09.62c.38.46.56,1.06.56,1.81,0,.46-.02,1.12-.06,2h-1.13c-2.42,0-4.11-.04-5.07-.12l-9.46-.81h-2.32l-2.19-.06-2.19.19-3.38.19c-1.25.04-2.63.15-4.13.31-1.5.17-2.59.25-3.25.25l-.83-.1ZM611.04,834.21c.17.5.27.88.31,1.12.46,1.92,1.04,3.27,1.75,4.06,1.29,1.5,2.78,2.5,4.45,3,2.5.71,4.7,1.06,6.58,1.06,2.17,0,4.29-.46,6.36-1.38s3.73-2.15,4.98-3.69c.17-.21.42-.5.75-.88.29-.67.52-1.17.69-1.5,1.66-3.25,2.49-6.71,2.49-10.38,0-6.75-2-12.44-6.01-17.06-2.8-3.29-6.76-4.94-11.9-4.94-3.05,0-6.52.79-10.4,2.38-.08,1.62-.12,6.19-.12,13.69l.12,12.06c0,.32-.02,1.13-.05,2.46Z"/>
    <path class="st5" d="M664.6,829.65c1.25-.25,2.17-.38,2.75-.38.29,0,.73.02,1.31.06l.56.62c2.25,3.96,3.73,6.35,4.44,7.19,1.46,1.71,2.9,3.08,4.31,4.12.96.67,2.46,1.35,4.5,2.06,1.38.5,2.83.75,4.38.75,2.62,0,4.88-.84,6.75-2.53s2.81-3.51,2.81-5.47c0-1.33-.35-2.47-1.06-3.41s-2.12-1.86-4.25-2.78c-1.04-.46-3.66-1.21-7.84-2.25-4.19-1.04-6.72-1.73-7.59-2.06-1.96-.75-3.7-1.79-5.22-3.12-1.52-1.33-2.68-2.83-3.47-4.5-1.08-2.38-1.62-4.42-1.62-6.12,0-3.17.46-5.76,1.38-7.78s2.21-3.8,3.88-5.34c1.21-1.17,3.03-2.23,5.47-3.19,2.44-.96,5.05-1.44,7.84-1.44,3.96,0,7.44.27,10.44.81s5.54,1.35,7.62,2.44c.25.96.6,3.17,1.06,6.62.46,3.46.69,5.5.69,6.12,0,.29-.06.6-.19.94-1.08.33-1.98.5-2.69.5-.42,0-1.02-.04-1.81-.12-.38-.58-.88-1.46-1.5-2.62-2-3.71-4.05-6.32-6.16-7.84-2.1-1.52-4.53-2.28-7.28-2.28s-5.29.83-7.25,2.5c-1.42,1.21-2.12,2.85-2.12,4.94,0,1.38.74,2.77,2.22,4.19,1.44,1.46,3.97,2.56,7.61,3.31,5.47,1.21,9.5,2.42,12.09,3.62,3.76,1.75,6.4,3.81,7.92,6.19s2.29,5.12,2.29,8.25c0,4.83-1.82,8.87-5.47,12.09-3.65,3.23-8.97,4.84-15.97,4.84-.92,0-3.31-.21-7.19-.62-1.75-.21-3.81-.62-6.19-1.25-.58-.17-2.1-.77-4.56-1.81-.46-.25-.78-.55-.97-.91-.19-.35-.47-2.09-.84-5.22-.68-5.08-1.04-8.12-1.08-9.12Z"/>
    <path class="st5" d="M715.8,796.59c.46-.17.83-.29,1.12-.38h18.62l1.38.12.12,4.18-.19,6.12.06,3.18-.06,9.42v6.43c0,4.2.23,7.51.69,9.92.62,1.83,1.63,3.21,3.03,4.15s3.09,1.4,5.09,1.4c1.88,0,3.4-.19,4.56-.56,1.17-.37,2.51-1.08,4.03-2.12s2.49-1.79,2.91-2.25c1.21-1.33,2.04-2.56,2.5-3.68l.44-15.54c.08-1.62.12-2.95.12-3.99s-.03-2.44-.09-4.09c-.06-1.64-.09-2.57-.09-2.78l.06-2.31-.12-1.37c-1-.62-2.4-1.02-4.19-1.19l-4.19-.31c-.25-.12-.48-.27-.69-.44-.17-.83-.25-1.46-.25-1.88,0-.5.06-1.21.19-2.12,1.38-.21,2.57-.31,3.57-.31l9.65.12c2.59,0,5.77-.04,9.53-.12l.12,4.68-.25,5.99.12,7.49-.06,10.74-.12,4.81.06,3.25c-.17,2.16-.25,3.39-.25,3.68,0,1.04.19,1.81.56,2.31.38.5.73.75,1.06.75l5.75-.19.75.12c.12,1.46.19,2.29.19,2.5,0,.29-.06.75-.19,1.38-2.21.08-3.79.23-4.75.44-4.46,1-9.33,2.48-14.62,4.44l-2.5-.12-.06-10.19c-.5.42-1.23,1.06-2.19,1.94-3.67,3.25-6.81,5.45-9.44,6.59s-5.38,1.72-8.25,1.72c-3.42,0-6.38-.71-8.88-2.12s-4.33-3.16-5.5-5.24c-.88-1.62-1.46-3.95-1.75-6.99-.08-.79-.12-4.87-.12-12.23l.06-2c.21-4.08.31-7.09.31-9.05,0-3.33-.06-5.56-.19-6.68-.04-.54-.25-1.16-.62-1.87-.58-.25-1.27-.44-2.06-.56-2.67-.46-4.33-.9-5-1.31-.21-.12-.31-.4-.31-.81,0-.25.03-.58.09-1,.09-.43.16-1.11.24-2.07Z"/>
    <path class="st5" d="M787.13,842.97c.33-.17.79-.28,1.38-.32,2.46-.17,4.42-.6,5.88-1.31.29-.12.47-.4.53-.81s.18-4.2.34-11.36v-3.62l.06-6.43-.06-6.68v-1.5c0-1.96-.45-3.4-1.34-4.34-.9-.94-3.24-1.94-7.03-3.03v-2.56c.79-.21,1.73-.44,2.81-.69,3.83-.79,7-1.92,9.5-3.38,1.92-1.12,3.81-2.81,5.69-5.06h3.44v1l.19,5-.06,2.31.12,1.12c3.96-3.12,7.26-5.19,9.91-6.19s5.68-1.5,9.1-1.5,6.47.71,9.53,2.12c3.06,1.42,5.62,3.79,7.66,7.12,2.96-2.86,5.44-4.86,7.44-6.02,1.38-.79,3.26-1.48,5.66-2.08,2.39-.6,4.66-.9,6.78-.9,5.79,0,10.37,1.75,13.75,5.24,3.37,3.54,5.06,8.32,5.06,14.36v9.92c0,2.04-.06,5.56-.19,10.55v4.81c0,.83.25,1.64.75,2.43,1.62.69,3.02,1.14,4.19,1.34.83.12,1.62.41,2.38.86.08.76.19,1.4.31,1.91l-.06,1.26c-1.17.21-2,.32-2.5.32-.33,0-1.34-.09-3.03-.28s-3.82-.28-6.41-.28c-6.29,0-11.29.19-15,.56-.29-1.04-.44-1.87-.44-2.49l.06-.87c.54-.29,2.33-1,5.38-2.14.54-.54.85-1.02.94-1.44.21-1.04.31-3.26.31-6.68l-.31-17.6c-.04-2.95-.27-5.4-.69-7.33s-1.03-3.45-1.84-4.56-1.91-2.01-3.28-2.71-2.81-1.06-4.31-1.06c-2.33,0-4.71.65-7.12,1.95-2.42,1.3-4.56,3.28-6.44,5.92l-.12,1.81.19,8-.12,6.56v6.25l-.06,5.56c0,2.75.27,4.38.81,4.88.83.79,2.88,1.35,6.12,1.69l1.94.64c.33.97.5,1.73.5,2.28,0,.3-.08.8-.25,1.52l-1.81-.06h-2.5l-1.31-.06c-2.95-.29-6.01-.46-9.17-.5l-6.68-.12c-1.62,0-4.43.19-8.42.56l-1.12-.19-.12-3.74c1.25-.35,3.5-.65,6.76-.88.21-.04.48-.12.81-.25.46-.54.72-1,.81-1.38.21-.83.31-2.52.31-5.06l-.06-12.69.19-3.38c0-6.5-.23-10.52-.69-12.06-.58-2-1.81-3.63-3.67-4.91-1.86-1.27-4.08-1.91-6.67-1.91-3.38,0-6.33.8-8.84,2.41-2.51,1.6-3.95,3.03-4.32,4.28-.04.5-.06.88-.06,1.12l.12.62v.62c0,.38-.12.96-.38,1.75l.19,17.94.06,9.38c0,.33.06.88.19,1.62l.31.94c1.16.36,2.15.63,2.97.79,1.53.32,2.68.69,3.47,1.09.12.71.19,1.21.19,1.5,0,.54-.17,1.31-.5,2.31-.67.04-1.15.06-1.44.06-.46,0-2.54-.17-6.25-.51l-6.81-.06c-3.25,0-7.19.21-11.81.62l-1.81-.06c-.08-.67-.17-1.43-.25-2.31-.05-.3.05-.84.26-1.55Z"/>
    <path class="st5" d="M909.4,830.65c2.62,0,4.84.83,6.66,2.49,1.81,1.66,2.72,3.55,2.72,5.67,0,2.78-.56,4.86-1.69,6.23-2,2.37-4.42,3.55-7.25,3.55-2.67,0-4.85-.85-6.56-2.55s-2.56-3.86-2.56-6.48c0-1.7.42-3.24,1.25-4.61.62-1.08,1.88-2.24,3.75-3.49.74-.54,1.97-.81,3.68-.81Z"/>
  </g>
  <rect class="st0" x="374" y="371.5" width="330" height="50"/>
  <rect class="st2" x="374" y="421.5" width="330" height="50.8"/>
  <rect class="st3" x="374" y="472.3" width="330" height="50.8"/>
  <rect class="st7" x="374" y="523.1" width="330" height="50.8"/>
  <rect class="st4" x="374" y="573.9" width="330" height="50.8"/>
  <rect class="st1" x="374" y="624.7" width="330" height="50.8"/>
</svg>