<?xml version="1.0" encoding="UTF-8"?>
<svg id="Layer_1" xmlns="http://www.w3.org/2000/svg" version="1.1" viewBox="0 0 1080 1350">
  <!-- Generator: Adobe Illustrator 29.6.1, SVG Export Plug-In . SVG Version: 2.1.1 Build 9)  -->
  <defs>
    <style>
      .st0 {
        stroke: #f4b931;
        stroke-linecap: square;
        stroke-miterlimit: 10;
        stroke-width: 14px;
      }

      .st0, .st1 {
        fill: #fcfcff;
      }

      .st2 {
        fill: #103d54;
      }

      .st3 {
        fill: #ed720a;
      }

      .st4 {
        fill: #0c110d;
      }

      .st5 {
        fill: #0d0d0d;
      }

      .st6 {
        fill: #e22f0f;
      }

      .st7 {
        fill: #fbb03b;
      }

      .st8 {
        fill: #538850;
      }
    </style>
  </defs>
  <rect class="st5" width="1080" height="1350"/>
  <g>
    <g>
      <path class="st1" d="M606.86,277.99v30.6h41.77v28.25h-3.2c-18.78.01-37.56.1-56.33.01-15.39-.07-30.78-.41-46.16-.47-1.96-.01-2.67-.97-3.46-2.3-10.23-17.2-20.46-34.39-30.7-51.58-.2-.34-.43-.65-1.07-1.64v55.27h-29.66v-141.7c1.26-.09,2.14-.2,3.02-.2,14.59,0,29.19-.19,43.78.06,11.68.19,22.82,2.86,32.39,9.96,11.63,8.63,17.78,20.25,18.37,34.84.4,9.85-.83,19.17-6.15,27.78-6.22,10.08-15.51,15.43-26.85,18.34,11.02,16.3,22,32.52,32.97,48.74.24-.02.48-.05.72-.07v-139.46h71.93v8.47c.01,5.61-.1,11.23.09,16.84.08,2.51-.62,3.32-3.21,3.29-11.63-.16-23.27-.11-34.9-.14h-3.24v27.57h41.26v27.55c-13.73,0-27.37,0-41.37,0ZM507.75,264.08c6.07,0,11.98.41,17.81-.09,11.82-1.01,21.86-7.22,20.72-22.82-.63-8.6-4.36-14.17-12.63-17.11-8.45-3-17.19-2.25-25.9-2.22,0,14.14,0,27.96,0,42.24Z"/>
      <path class="st1" d="M345.87,311.3v25.24h-70.75v-142.16h31.71v112.49h35.39c-14.68-22.22-16.99-45.55-6.45-69.81,7.46-17.16,19.6-30.28,36.83-37.79,34.85-15.18,75.21-3.65,95.03,31.95,17.42,31.28,9.86,70.37-21.21,92.91-32.87,23.85-74.18,17.41-100.55-12.83ZM361.8,267.54c.73,4.08,1.07,8.28,2.26,12.22,4.9,16.27,16.04,25.81,32.69,28.42,16.47,2.58,30.18-2.95,40.21-16.27,8.06-10.69,9.55-22.94,6.95-35.92-4.41-22.04-27.48-37.13-49.18-32-20.99,4.95-33.56,21.75-32.93,43.55Z"/>
      <path class="st1" d="M636.93,344.23c14.22,0,28.19-.04,42.16.1.86.01,2.09,1.3,2.51,2.27,7.15,16.55,14.24,33.13,21.25,49.74,6.42,15.22,12.72,30.48,19.08,45.73.19.45.44.87.87,1.72,5.31-12.88,10.37-25.42,15.64-37.87,8.45-19.97,17.06-39.87,25.56-59.82.64-1.51,1.23-2.51,3.21-2.49,12.35.13,24.7.12,37.05.16.39,0,.78.09,1.5.17v147.75h-28.9v-101.48c-.3-.05-.6-.1-.89-.15-1.49,3.46-2.97,6.93-4.49,10.39-13.11,29.79-26.23,59.57-39.31,89.37-.65,1.48-1.42,2.16-3.17,2.11-4.89-.14-9.8-.12-14.69-.01-1.59.03-2.23-.58-2.85-1.98-14.47-32.74-29-65.46-43.53-98.17-.16-.36-.42-.68-.99-1.57v101.84h-30.02c0-49.1,0-98.24,0-147.81Z"/>
      <path class="st1" d="M729.12,194.22v67.14c.21.05.41.11.62.16,4.41-6.4,8.82-12.8,13.22-19.22,10.47-15.26,20.96-30.51,31.34-45.82,1.11-1.63,2.2-2.27,4.18-2.24,8.76.12,17.53.05,26.73.05v141.9h-29.35v-90.6c-4.92,7.29-9.32,13.81-13.71,20.34-15.25,22.71-30.51,45.41-45.73,68.15-1.11,1.66-2.3,2.49-4.43,2.39-4.17-.2-8.35-.06-13.09-.06v-87.71c-.3-.08-.59-.15-.89-.23-14.56,21.51-29.13,43.01-43.69,64.52-.28-.1-.56-.21-.84-.31-.06-.96-.17-1.92-.17-2.87-.01-15.31-.03-30.62.04-45.93.01-1.23.33-2.66,1.01-3.65,14.51-21.36,29.08-42.69,43.69-63.98.6-.88,1.77-1.93,2.68-1.95,9.34-.13,18.67-.08,28.39-.08Z"/>
      <path class="st1" d="M517.15,343.79h30.36c0,6.1-.03,12.07,0,18.05.14,27.96-.05,55.92.57,83.87.36,16.39,12.11,22.74,26.61,20.74,12.91-1.78,18.44-10.67,18.42-24.89-.02-29.7-.18-59.39-.28-89.09-.01-2.64,0-5.27,0-8.13h31.09v3.63c0,32.96.04,65.93-.02,98.89-.04,23.77-14.46,40.21-36.96,45.47-14.24,3.33-28.55,2.67-42.21-3.01-16.09-6.69-25.35-19.09-26.61-36.32-1.1-15.13-.65-30.37-.82-45.56-.22-19.59-.39-39.18-.55-58.77,0-1.59.26-3.19.4-4.88Z"/>
      <path class="st1" d="M510.83,386.12h-30.72c-.61-2.23-1.12-4.81-2.03-7.24-2.5-6.63-8.89-10.8-15.96-10.63-7.06.17-13.54,4.67-15.25,11.47-2.26,8.99-.12,14.45,6.9,17.93,7.4,3.66,15.38,6.16,23.12,9.13,9.46,3.62,18.56,7.78,25.6,15.42,7.19,7.79,10.02,17.04,10.15,27.55.28,21.62-17.65,40.12-39.89,43.5-16,2.43-30.9.29-43.91-9.74-11.89-9.17-17.42-21.59-16.99-36.75h30.46c.77,6.1,2.6,11.53,7.28,15.71,7.57,6.76,24.48,6.37,29.48-4.86,3.58-8.03,1.67-16.16-6.1-20.2-6.77-3.52-14.15-5.92-21.34-8.6-9.5-3.53-18.48-7.8-25.76-15.15-14.23-14.37-15.77-37.07-3.46-53.16,8.3-10.85,19.32-16.63,32.87-18.16,13.06-1.47,25.44.17,36.43,7.71,12.35,8.47,18.04,20.7,19.12,36.07Z"/>
      <path class="st1" d="M345.17,439.82v52.15h-29.61v-147.55c.82-.04,1.8-.13,2.78-.13,14.59-.01,29.18-.14,43.77.05,10.08.13,19.72,2.31,28.65,7.24,12.19,6.73,18.88,17.34,21.14,30.75,1.71,10.15,1.24,20.33-2.61,30.03-6.01,15.13-17.6,23.72-33.36,26.08-8.9,1.34-18.06.99-27.1,1.38-1.11.04-2.21,0-3.66,0ZM345.27,413.52c8.26.59,16.09.92,23.75-1.31,8.57-2.5,13.7-8.93,14.23-17.02.83-12.72-4.52-18.37-12.02-21.24-8.39-3.22-17.14-2.6-25.96-2.45,0,14.11,0,27.94,0,42.02Z"/>
      <path class="st1" d="M304.99,492.02h-30.29v-147.67h30.29v147.67Z"/>
    </g>
    <g>
      <g>
        <rect class="st4" x="272.61" y="520.68" width="531" height="629"/>
        <g>
          <polygon class="st2" points="809.98 519.7 809.55 789.26 535.82 515.53 809.98 519.7"/>
          <polygon class="st6" points="270.48 519.53 270.92 789.1 544.65 515.37 270.48 519.53"/>
          <polygon class="st8" points="270.48 1153.1 270.92 883.53 544.65 1157.26 270.48 1153.1"/>
          <polygon class="st3" points="809.98 1152.94 809.55 883.37 535.82 1157.1 809.98 1152.94"/>
        </g>
        <polyline class="st0" points="858.9 827.65 531.57 1154.98 221.57 844.98 548.9 517.65 858.9 827.65"/>
      </g>
      <polygon class="st7" points="522.09 820.87 536 790.72 551.47 820.1 584.44 824.01 561.28 847.8 567.75 880.37 537.96 865.7 508.99 881.91 513.74 849.05 489.37 826.5 522.09 820.87"/>
    </g>
  </g>
</svg>