<?xml version="1.0" encoding="utf-8"?>
<!-- Generator: Adobe Illustrator 26.0.1, SVG Export Plug-In . SVG Version: 6.00 Build 0)  -->
<svg version="1.1" id="Layer_1" xmlns="http://www.w3.org/2000/svg" xmlns:xlink="http://www.w3.org/1999/xlink" x="0px" y="0px"
	 viewBox="0 0 1080 1350" style="enable-background:new 0 0 1080 1350;" xml:space="preserve">
<style type="text/css">
	.st0{fill:#F2F2F2;}
	.st1{fill:none;}
	.st2{font-family:'FuturaBT-Medium';}
	.st3{font-size:72px;}
	.st4{fill:none;stroke:#000000;stroke-width:15;stroke-miterlimit:10;}
	.st5{stroke:#000000;stroke-width:8;stroke-miterlimit:10;}
</style>
<rect x="-34" y="-28" class="st0" width="1129" height="1395"/>
<rect x="100.45" y="655.22" class="st1" width="879.1" height="256.78"/>
<text transform="matrix(1 0 0 1 107.4376 709.7275)"><tspan x="0" y="0" class="st2 st3">LOREM IPSUM DOLOR SIT </tspan><tspan x="45.86" y="86.4" class="st2 st3">AMET, CONSECTETUER </tspan><tspan x="65.87" y="172.8" class="st2 st3">ADIPISCING ELIT, SED </tspan></text>
<path class="st4" d="M1000.79,1319H79.21c-25.25,0-45.71-20.47-45.71-45.71V77.71C33.5,52.47,53.97,32,79.21,32h921.57
	c25.25,0,45.71,20.47,45.71,45.71v1195.57C1046.5,1298.53,1026.03,1319,1000.79,1319z"/>
<g>
	<path class="st5" d="M399.22,1148c-3.95,2.4-7.76,4.83-11.68,7.09c-12.89,7.42-26.32,13.57-40.91,16.88
		c-2.96,0.67-5.94,1-8.99,0.51c-4.2-0.67-7.02-3.03-8.67-6.87c-2.11-4.9-2.06-10.03-1.44-15.18c0.96-7.94,3.95-15.21,7.65-22.22
		c7.56-14.33,17.01-27.4,26.97-40.11c10.58-13.52,22.27-26.01,34.92-37.61c14.18-13.02,29.41-24.67,45.63-35.03
		c15.42-9.86,31.54-18.37,48.6-25.04c11.68-4.56,23.63-8.15,36.09-9.84c4.5-0.61,9.02-0.74,13.53,0.08
		c10.29,1.88,15.96,9.12,15.36,19.58c-0.4,7.03-2.6,13.6-5.11,20.07c-4.31,11.11-10.43,21.23-17.25,30.95
		c-11.88,16.92-25.22,32.6-39.78,47.27c-0.19,0.19-0.36,0.4-0.64,0.72c3.35,1,6.56,0.81,9.77,0.22c6.06-1.11,11.5-3.87,17-6.48
		c3.74-1.77,7.5-3.54,11.34-5.09c1.49-0.6,3.21-0.77,4.85-0.87c5.17-0.32,9.03,2.37,10.63,7.31c0.44,1.35,0.79,2.72,1.2,4.07
		c1.45,4.72,4.41,6.72,9.22,5.52c3.53-0.88,7.02-2.23,10.28-3.86c10.34-5.16,20.54-10.59,30.83-15.84c3.97-2.03,8.11-3.6,12.68-3.56
		c3.76,0.03,7.01,1.28,9.65,4.01c0.92,0.95,1.87,1.87,2.74,2.87c3.06,3.49,6.9,4.36,11.29,3.46c4.45-0.9,8.43-2.98,12.45-4.95
		c14.4-7.05,28.77-14.17,43.22-21.12c2.34-1.12,4.98-1.82,7.56-2.19c5.42-0.79,9.17,2.28,9.78,7.7c0.17,1.5,0.2,3.01,0.19,4.52
		c-0.01,4.27,1.89,7.54,5.28,9.96c5.6,3.99,11.87,4.8,18.2,2.57c5.93-2.1,11.59-4.98,17.37-7.53c0.39-0.17,0.72-0.47,1.11-0.61
		c0.96-0.35,1.81-0.14,2.32,0.76c0.5,0.89,0.6,1.9-0.33,2.55c-5.98,4.18-11.78,8.71-19.15,10.36c-6.78,1.51-13.39,1.48-19.69-1.87
		c-2.97-1.58-5.39-3.8-7.26-6.6c-1.85-2.78-2.88-5.8-2.71-9.2c0.07-1.45,0.05-2.94-0.17-4.37c-0.39-2.59-1.84-3.73-4.44-3.44
		c-1.43,0.16-2.91,0.51-4.22,1.1c-4.59,2.09-9.12,4.3-13.65,6.52c-10.93,5.36-21.81,10.8-32.76,16.09
		c-4.63,2.24-9.35,4.31-14.59,4.69c-5.33,0.39-9.84-1.3-13.44-5.3c-0.51-0.56-1.05-1.09-1.54-1.66c-3.02-3.54-6.9-4.54-11.12-3.06
		c-4.39,1.54-8.69,3.42-12.84,5.52c-8.21,4.14-16.22,8.68-24.45,12.77c-3.6,1.79-7.5,3.04-11.37,4.19
		c-1.74,0.51-3.77,0.41-5.61,0.16c-4.57-0.6-7.48-3.31-8.85-7.68c-0.47-1.48-0.84-3-1.33-4.48c-1.31-3.98-3.88-5.59-7.94-4.56
		c-2.63,0.66-5.16,1.78-7.67,2.84c-6.34,2.68-12.54,5.71-18.98,8.09c-5.81,2.15-11.89,2.42-17.94,0.45
		c-0.45-0.15-1.25,0.19-1.64,0.56c-10.94,10.44-22.43,20.22-34.55,29.24c-9.01,6.71-18.14,13.25-28.25,18.26
		c-7.29,3.61-14.91,6.12-23.06,6.83c-2.06,0.18-3.05-0.49-3.25-2.57C399.45,1153.09,399.37,1150.6,399.22,1148z M469.95,1088.89
		c0.11,0.15,0.21,0.31,0.32,0.46c4.64,0.54,8.82,2.32,12.77,4.73c1.37,0.83,2.8,1.57,4.13,2.46c1.04,0.69,1.73,0.6,2.64-0.31
		c13.02-13.04,25.12-26.88,36.08-41.7c7.56-10.22,14.72-20.69,19.8-32.41c2.97-6.85,5.65-13.8,6.33-21.34
		c0.81-9-3.5-14.81-12.45-16.12c-3.36-0.5-6.89-0.46-10.28-0.11c-12.52,1.32-24.47,4.99-36.14,9.56
		c-17.23,6.75-33.49,15.42-49.09,25.34c-24.43,15.54-46.28,34.14-65.69,55.61c-12.91,14.28-24.35,29.67-34.51,46.02
		c-4.14,6.66-7.99,13.47-10.42,20.98c-2.13,6.57-3.05,13.24-1.56,20.07c1.05,4.83,4.24,7.21,9.17,7c0.94-0.04,1.91-0.06,2.81-0.3
		c4.96-1.33,9.98-2.5,14.84-4.13c14.6-4.88,27.89-12.39,40.75-20.73c0.42-0.27,0.69-0.85,0.89-1.34c1.16-2.93,2.07-5.98,3.46-8.8
		c3.2-6.5,7.82-12,12.99-17.02c8.38-8.14,17.19-15.75,27.55-21.33c6.93-3.73,14.19-6.36,22.21-6.37c0.49,0,1.08-0.31,1.45-0.66
		c11.64-11.05,22.75-22.61,33.31-34.7c0.31-0.35,0.6-0.74,0.96-1.03c0.17-0.14,0.65-0.21,0.72-0.11c0.16,0.22,0.24,0.58,0.18,0.85
		c-0.05,0.25-0.31,0.46-0.5,0.66c-8.7,9.49-17.38,19-26.13,28.45C474.48,1084.79,472.16,1086.79,469.95,1088.89z M485.09,1100.73
		c-2.12-1.31-4.07-2.54-6.04-3.73c-3.68-2.22-7.69-3.27-11.98-3.38c-1.11-0.03-1.93,0.27-2.76,1.04
		c-5.55,5.19-11.07,10.41-16.75,15.45c-13.31,11.81-27.2,22.92-41.69,33.27c-0.37,0.26-0.85,0.6-0.94,0.98
		c-0.7,2.85-0.99,5.74-0.7,8.79c0.57-0.07,1.03-0.11,1.49-0.17c9.09-1.29,17.24-5.06,25.05-9.66c9.62-5.66,18.5-12.38,27.29-19.21
		C467.43,1116.86,476.38,1109.11,485.09,1100.73z M406.72,1138.69c0.1,0.08,0.21,0.15,0.31,0.22c19.31-13.54,37.32-28.69,54.63-44.7
		c-4.32,0.54-8.3,1.97-12.11,3.86c-9.64,4.79-17.98,11.4-25.86,18.64c-5.54,5.09-10.63,10.6-14.44,17.15
		C408.33,1135.43,407.56,1137.08,406.72,1138.69z"/>
</g>
<g>
	<g>
		<g>
			<g>
				<path d="M469.84,196.45c-20.35-20.38-45.37-36.17-73.31-45.6c0,0,0,0-0.03,0c-10.47-3.57-21.32-6.22-32.53-7.88
					c-8.73-1.32-17.69-2.02-26.8-2.09c-0.51-0.02-1-0.02-1.51-0.02c-31.79,0-61.81,7.84-88.16,21.72
					c-17.04,8.93-32.56,20.37-46.03,33.87c-34.33,34.3-55.6,81.82-55.6,134.19c0,52.36,21.26,99.89,55.6,134.19
					c34.3,34.33,81.82,55.6,134.19,55.6c5.28,0,10.5-0.23,15.67-0.63c9.82-0.8,19.41-2.37,28.74-4.59
					c34.59-8.3,65.5-26.06,89.78-50.37c34.33-34.3,55.59-81.82,55.59-134.19C525.44,278.26,504.17,230.75,469.84,196.45z
					 M372.73,173.67c-1.6-2.29-7.68-2.29-13.76-3.59c-5.27-1.11-7.64-2.94-5.66-5.43c7.05,0.74,13.98,1.87,20.73,3.46
					c5.17,1.22,10.28,2.69,15.24,4.38c0.18,0.06,0.35,0.14,0.54,0.2c-0.64,2.37-1.26,4.4-2.37,5.2c-0.4,0.32-0.85,0.43-1.43,0.38
					c-5.36-0.81-4.37,4.19-9.93,8.35c-5.6,4.19-8.76-1.23-4.17-8.35C373.33,176.09,373.47,174.67,372.73,173.67z M217.6,448.68
					c-30.23-30.26-48.9-71.89-48.9-118.05c0-46.1,18.65-87.7,48.82-117.96c0.03-0.02,0.06-0.05,0.09-0.09
					c6.16-6.15,12.82-11.8,19.86-16.94c-6.04,6.31-15.5,16.69-15.65,18.74c-0.05,0.43-0.14,1.23-0.25,2.31
					c-0.6,5.39-1.88,17.41-2.06,19.26c-0.23,2.2,2.74,3.2,5.2,4.77c1.8,1.14,0.06,9.9,0,16.09c-0.08,6.11,6.57,20.89,9.36,20.43
					c2.71-0.63-4.42-22.85-4.39-22.74c0,0,0.23-7.82,3.45-7.88c3.23-0.03,1.91,7.82,2.54,12.93c0.57,5.05,7.99,14.36,10.07,16.72
					c2.03,2.37-1.11,12.82-0.68,14.58c0.25,1.66,19.92,14.98,21.78,15.78c1.71,0.69,7.16-0.83,10.1-0.06
					c2.91,0.77,3.02,7.42,5.34,8.79c2.28,1.31,13.07,2.65,15.47,3.43c2.4,0.77,1.74,9.84,4.62,11.9
					c2.91,2.02,11.96,12.44,11.96,12.44s7.62-3.74,9.51-4.79c1.91-1.09,5.28,2.83,5.28,2.83s-0.51,15.84-0.74,18.86
					c-0.2,3.03-12.44,11.93-12.44,11.93s-1.74,15.7-1.57,21.69c0.2,6.09,11.73,21.07,11.76,21.07c0.03,0.03,3.34,11.39,4.37,13.16
					c1.14,1.94,19.77,16.98,19.83,16.98c0,0.45-2.71,28.99-3.28,34.02c-0.54,5.3,3.22,7.47,2.89,10.56
					c-0.03,0.45-0.12,1.05-0.17,1.82c-0.17,1.49-0.4,3.52-0.65,5.74c-4.42,0.35-8.9,0.56-13.42,0.56
					C289.5,497.58,247.87,478.91,217.6,448.68z M453.7,448.68c-10.73,10.7-22.87,19.97-36.17,27.45c-2.12,1.21-4.29,2.33-6.47,3.44
					c1.67-3.32,3.15-6.48,3.67-8.41c0.14-0.55,0.23-1.01,0.2-1.31c-0.14-3.18,7.79-9.05,12.53-10.54c4.77-1.48,6.22-3.23,8.56-10.38
					c2.35-7.16,4-19.13,3.91-23.94c0.09-4.88,10.42-18.52,10.44-23.23c0.23-4.76-2.14-8.33-5.48-11.45
					c-3.23-3.14-11.73-3.08-14.01-3.68c-2.2-0.56-3.2-5.57-6.88-6.22c-3.68-0.65-7.33,3.23-11.73,1.97
					c-4.43-1.28-2.12-5.22,1.03-7.39c3.11-2.14,0.28-10.81-2.4-16.18c-2.66-5.34-8.82-5.2-14.22-5c-5.39,0.23-6.02-6.87-11.05-14.38
					c-5.02-7.53-14.87-5.99-19.49-6.97c-4.59-0.97-11.27-6.93-15.41-7.87c-4.08-0.97-15.27,12.76-17.75,13.21
					c-2.48,0.43-2.77-3.85-6.33-5.34c-3.54-1.48-5.88,5.68-12.33,1.54c-6.42-4.13-0.6-17.12-0.11-23.77
					c0.45-6.63-5.56,0.82-12.67-2.09c-7.08-2.9-1.88-7.39,2.2-13.12c4.05-5.76,4.88-8.68-1.86-7.93c-6.71,0.76-7.62-2.85-8.59,1.85
					c-0.97,4.74-4.43,9.93-13.33,8.82c-8.88-1.08-9.33-9.42-8.82-15.89c0.54-6.47,2.31-6.4,7.11-14.38
					c4.82-7.96,8.36-7.79,12.7-9.87c4.37-2.12,4.71,0.83,8.33,0.45c3.62-0.37,3.77-2.11,5.2-4.91c1.4-2.77,2.91,0.74,13.07,1.48
					c10.16,0.77,6.68,1.6,6.68,1.6s-4.05,6.6,3.68,16.64c7.73,10.05,8.87-7.53,9.39-15.5c0.48-8.02,4.19-9.96,12.67-14.69
					c8.39-4.71,9.93-12.28,19.18-16.5c9.36-4.28,27.88-7.62,33.05-10.73c5.28-3.23-2.74-15.1,4.51-15.72
					c7.22-0.65,15.18,1.08,22.86-0.14c0.03,0,0.03,0,0.06,0c3.24-0.5,4.57-1.84,4.83-3.42c6.81,5.01,13.26,10.47,19.24,16.42
					c30.23,30.26,48.9,71.89,48.9,118.05S483.93,418.43,453.7,448.68z"/>
			</g>
		</g>
		<g>
			<path class="st0" d="M335.65,150.78c98.11,0,177.65,80.52,177.65,179.85s-79.54,179.85-177.65,179.85S158,429.96,158,330.63
				S237.54,150.78,335.65,150.78 M335.65,136.78c-25.89,0-51.01,5.14-74.66,15.26c-22.83,9.77-43.32,23.76-60.92,41.57
				c-17.58,17.8-31.39,38.53-41.03,61.61c-9.98,23.89-15.04,49.26-15.04,75.4s5.06,51.51,15.04,75.4
				c9.64,23.08,23.45,43.81,41.03,61.61c17.59,17.81,38.09,31.8,60.92,41.57c23.65,10.13,48.77,15.26,74.66,15.26
				s51.01-5.14,74.66-15.26c22.83-9.77,43.32-23.76,60.92-41.57c17.58-17.8,31.39-38.53,41.03-61.61
				c9.98-23.89,15.04-49.26,15.04-75.4s-5.06-51.51-15.04-75.4c-9.64-23.08-23.45-43.81-41.03-61.61
				c-17.59-17.81-38.09-31.8-60.92-41.57C386.66,141.92,361.54,136.78,335.65,136.78L335.65,136.78z"/>
		</g>
	</g>
	<g>
		<g>
			<g>
				<path d="M933.71,318.18c-3.07-47.42-23.57-90.16-55.17-121.74c-13.11-13.11-28.13-24.32-44.64-33.17
					c-26.68-14.3-57.18-22.42-89.55-22.42c-52.36,0-99.88,21.25-134.19,55.59c-34.34,34.31-55.59,81.82-55.59,134.19
					s21.25,99.88,55.59,134.19c34.32,34.34,81.83,55.59,134.19,55.59c7.55,0,14.98-0.44,22.31-1.3c18.85-2.2,36.85-7.17,53.58-14.5
					c13.59-5.93,26.37-13.42,38.09-22.22c7.15-5.38,13.9-11.26,20.21-17.57c34.34-34.31,55.59-81.82,55.59-134.19
					C934.13,326.44,934,322.29,933.71,318.18z M827.54,299.32c-6.66,2.58-23.19,3.45-26.88,1c-3.66-2.43-12.91-5.47-16.64-4.81
					c-3.73,0.66,1.19,6.24-3.16,6.92c-4.34,0.67-9.93-2.38-14.3-5.52c-4.34-3.09-11.23-4.3-11.23-4.3c-1.68-0.2-3.36-0.41-5.03-0.6
					c-2.49-5.01-1.19-16.38-10.02-13.81c-8.82,2.58-37.95,7.72-44.31,8.98c-6.36,1.28-13.94,11.41-19,18.93
					c-5.07,7.59-18.89,31.31-21.38,35c-2.49,3.75-3.62,27.17-3.55,33.24c0.06,6.18,27.67,31.6,36.34,32.7
					c8.72,1.2,32.39-4.94,38.62-6.24c6.25-1.26,9.87,7.08,14.81,6.99c4.97-0.09,11.08,2.21,6.05,9.41
					c-5.06,7.14-5.08,10.68-0.24,15.27c4.85,4.63,14.21,21.78,7.79,35.37c-6.38,13.6-1.7,20.02,1.72,25.4
					c0.7,1.11,1.43,2.63,2.16,4.44c-4.92,0.44-9.91,0.66-14.94,0.66c-46.34,0-88.21-18.75-118.59-49.11
					c-30.37-30.39-49.13-72.26-49.13-118.6s18.76-88.21,49.13-118.6c30.38-30.36,72.25-49.11,118.59-49.11
					c5.76,0,11.47,0.28,17.08,0.86c-1.1,0.82-2.32,1.66-3.73,2.49c-9.38,5.6-13.15,8.1-20.06,9.97c-6.93,1.86-4.37,15.78-1.83,18.32
					c2.54,2.54,8.21-0.63,12.61-3.13c4.39-2.49,5.67,2.54,5.69,4.43c0,1.9,2.54,9.49,6.29,8.24c3.78-1.26,9.98-13.86,9.34-15.73
					c-0.64-1.9-3.16-6.95,1.19-10.7c4.3-3.73,9.24-6.82,13.55-9.91c1.34,0.3,2.67,0.66,3.97,1.03c-0.38,0.93-1.24,2.08-2.65,3.33
					c-4.92,4.35-6.78,7.49-6.78,7.49s-1.17,10.05,1.94,10.05c3.11,0.02,11.79-1.81,16.09-3.04c4.33-1.24,4.35,2.54,0.04,3.77
					c-4.32,1.22-8.03,3.09-8.03,3.09c-0.62,1.87-1.21,3.77-1.83,5.64c-6.2,3.76-8.67,9.43-8.67,9.43s-27.52,0.6-29.46,1.23
					c-1.88,0.6-1.26-5.69-1.26-5.69s1.85-6.34-1.28-5.72c-3.11,0.64-3.13,6.19-3.13,6.34c-0.42,2.52-0.84,5.05-1.24,7.59
					c0,0-12.01,2.52-14.54,5.07c-2.51,2.54-10.75,10.14-12.64,11.43c-1.9,1.26-8.25,3.18-10.8,4.46c-2.54,1.29,7.61,5.72,7.61,7.62
					c0,1.9,0.02,10.79-3.79,11.43c-3.8,0.64-21.6,0.67-21.6,0.67s-5.7,20.32-4.41,22.23c1.28,1.89,9.53,6.31,14.61,5.67
					c5.07-0.65,16.48-6.36,16.48-6.36c1.68-3.82,3.38-7.62,5.08-11.43c3.37-3.6,6.75-7.2,10.13-10.81c0,0.02,7.59,3.15,10.13,0.61
					c2.51-2.54,7.52-5.08,7.57-5.08c0.02,0,5.03,9.48,8.17,10.73c3.15,1.27,8.78,6.29,9.4,9.45c0.62,3.15,1.24,8.83,3.11,7.54
					c1.88-1.28,5.03-8.84,5.03-8.84s4.37-2.54-0.62-5.05c-4.99-2.49-13.77-11.32-15.03-13.22c-1.26-1.9-0.62-7.59,3.77-5.08
					c4.41,2.54,16.26,13.86,16.26,13.86s0.62,5.69,3.71,8.19c3.11,2.49,6.2,6.88,6.2,9.4c-0.02,2.52-0.02,3.75,4.3,3.73
					c4.35-0.02,2.54-8.19,2.54-10.06c0-1.9-0.59-5.67,2.49-5.67c3.09-0.02,8.01,2.45,8.01,2.45s-3.13,12.58,3,14.41
					c6.18,1.81,25.07-3.39,25.01-0.26C831.34,282.49,834.23,296.74,827.54,299.32z M862.94,449.23c-4.48,4.47-9.2,8.69-14.17,12.64
					c-0.44-8.69-0.33-23.48,0.86-29.27c1.48-6.95,14.5-12.2,20.63-21.8c6.18-9.64,15.76-20.63,13.97-34.74
					c-10.48,5.21-16.4,7.86-22.11,4.53c-5.72-3.33-11.25-15.12-13.53-19.89c-2.12-4.57-21.8-42.06-18.23-44.73
					c3.73-2.45,21.14,29.07,27.85,38.37c6.78,9.45,4.1,21.48,18.25,13.73c14.12-7.75,31.4-21.63,33.76-27.7
					c2.43-6.04-6.18-21.38-9.69-17.68c-3.44,3.75-13.77,5.3-13.79,5.3c-4.41-7.92-8.89-15.94-13.44-24.01c0,0,5.85-0.11,11.52,4.61
					c5.72,4.75,16.99,10.46,23.68,11.43c0.9,0.14,1.99,0.16,3.22,0.1c0.22,3.46,0.33,6.97,0.33,10.5
					C912.06,376.97,893.3,418.84,862.94,449.23z"/>
			</g>
			<g>
				<path d="M703.87,207.22c1.9,1.27-1.26,6.99-3.79,11.44c-2.54,4.45-1.26,6.98-1.26,6.98s12.06-1.91,14.6-3.18
					c2.53-1.26,4.43-9.52,2.52-11.43c-1.9-1.9-8.26-7.61-8.27-9.52c0-1.9,0.62-8.88-1.92-10.77c-2.54-1.91-8.24,1.69-8.23,5.7
					C697.51,198.98,701.97,205.95,703.87,207.22z"/>
			</g>
		</g>
		<g>
			<path class="st0" d="M744.35,150.78c98.11,0,177.65,80.52,177.65,179.85s-79.54,179.85-177.65,179.85S566.7,429.96,566.7,330.63
				S646.23,150.78,744.35,150.78 M744.35,136.78c-25.89,0-51.01,5.14-74.66,15.26c-22.83,9.77-43.32,23.76-60.92,41.57
				c-17.58,17.8-31.39,38.53-41.03,61.61c-9.98,23.89-15.04,49.26-15.04,75.4s5.06,51.51,15.04,75.4
				c9.64,23.08,23.45,43.81,41.03,61.61c17.59,17.81,38.09,31.8,60.92,41.57c23.65,10.13,48.77,15.26,74.66,15.26
				s51.01-5.14,74.66-15.26c22.83-9.77,43.32-23.76,60.92-41.57c17.58-17.8,31.39-38.53,41.03-61.61
				c9.98-23.89,15.04-49.26,15.04-75.4s-5.06-51.51-15.04-75.4c-9.64-23.08-23.45-43.81-41.03-61.61
				c-17.59-17.81-38.09-31.8-60.92-41.57C795.35,141.92,770.23,136.78,744.35,136.78L744.35,136.78z"/>
		</g>
	</g>
</g>
</svg>
