<?xml version="1.0" encoding="UTF-8"?>
<svg id="Layer_1" xmlns="http://www.w3.org/2000/svg" version="1.1" viewBox="0 0 1080 1350">
  <!-- Generator: Adobe Illustrator 29.6.1, SVG Export Plug-In . SVG Version: 2.1.1 Build 9)  -->
  <defs>
    <style>
      .st0 {
        fill: #a01318;
      }

      .st1 {
        fill: #bb161c;
      }

      .st2 {
        fill: #8f1116;
      }

      .st3 {
        fill: #e71b23;
      }

      .st4 {
        fill: #dc1a21;
      }

      .st5 {
        fill: #060101;
      }

      .st6 {
        fill: #3d0709;
      }

      .st7 {
        fill: #d71921;
      }

      .st8 {
        fill: #690c10;
      }

      .st9 {
        fill: #48080b;
      }

      .st10 {
        fill: #320608;
      }

      .st11 {
        display: none;
        opacity: .15;
      }

      .st12 {
        fill: #a51419;
      }

      .st13 {
        fill: #580a0d;
      }

      .st14 {
        fill: #5e0b0e;
      }

      .st15 {
        fill: #530a0d;
      }

      .st16 {
        fill: #8a1015;
      }

      .st17 {
        fill: #ab141a;
      }

      .st18 {
        fill: #9a1217;
      }

      .st19 {
        fill: none;
        stroke: #000;
        stroke-miterlimit: 10;
        stroke-width: 2px;
      }

      .st20 {
        fill: #2c0507;
      }

      .st21 {
        fill: #c6171e;
      }

      .st22 {
        fill: #210405;
      }

      .st23 {
        fill: #160303;
      }

      .st24 {
        fill: #0b0102;
      }

      .st25 {
        fill: #fcfcff;
      }

      .st26 {
        fill: #6e0d11;
      }

      .st27 {
        fill: #7f0f13;
      }

      .st28 {
        fill: #e21b22;
      }

      .st29 {
        fill: #370708;
      }

      .st30 {
        fill: #0d0d0d;
      }

      .st31 {
        fill: #d11920;
      }

      .st32 {
        fill: #b6151c;
      }

      .st33 {
        fill: #1c0304;
      }

      .st34 {
        fill: #630c0f;
      }

      .st35 {
        fill: #790e12;
      }

      .st36 {
        fill: #740e12;
      }

      .st37 {
        fill: #951217;
      }

      .st38 {
        fill: #ed1c24;
      }

      .st39 {
        fill: #cc181f;
      }

      .st40 {
        fill: #270506;
      }

      .st41 {
        fill: #b0151b;
      }

      .st42 {
        fill: #110203;
      }

      .st43 {
        fill: #c1171d;
      }

      .st44 {
        fill: #42080a;
      }

      .st45 {
        fill: #841014;
      }

      .st46 {
        fill: #4d090c;
      }
    </style>
  </defs>
  <rect class="st30" width="1080" height="1350"/>
  <g class="st11">
    <rect class="st19" x="-141.75" y="-.5" width="1363.5" height="1363.5"/>
    <line class="st19" x1="-141.75" y1="1239.05" x2="1221.75" y2="1239.05"/>
    <line class="st19" x1="-141.75" y1="1115.09" x2="1221.75" y2="1115.09"/>
    <line class="st19" x1="-141.75" y1="991.14" x2="1221.75" y2="991.14"/>
    <line class="st19" x1="-141.75" y1="867.18" x2="1221.75" y2="867.18"/>
    <line class="st19" x1="-141.75" y1="743.23" x2="1221.75" y2="743.23"/>
    <line class="st19" x1="-141.75" y1="619.27" x2="1221.75" y2="619.27"/>
    <line class="st19" x1="-141.75" y1="495.32" x2="1221.75" y2="495.32"/>
    <line class="st19" x1="-141.75" y1="371.36" x2="1221.75" y2="371.36"/>
    <line class="st19" x1="-141.75" y1="247.41" x2="1221.75" y2="247.41"/>
    <line class="st19" x1="-141.75" y1="123.45" x2="1221.75" y2="123.45"/>
    <line class="st19" x1="1097.8" y1="-.5" x2="1097.8" y2="1363"/>
    <line class="st19" x1="973.84" y1="-.5" x2="973.84" y2="1363"/>
    <line class="st19" x1="849.89" y1="-.5" x2="849.89" y2="1363"/>
    <line class="st19" x1="725.93" y1="-.5" x2="725.93" y2="1363"/>
    <line class="st19" x1="601.98" y1="-.5" x2="601.98" y2="1363"/>
    <line class="st19" x1="478.02" y1="-.5" x2="478.02" y2="1363"/>
    <line class="st19" x1="354.07" y1="-.5" x2="354.07" y2="1363"/>
    <line class="st19" x1="230.11" y1="-.5" x2="230.11" y2="1363"/>
    <line class="st19" x1="106.16" y1="-.5" x2="106.16" y2="1363"/>
    <line class="st19" x1="-17.8" y1="-.5" x2="-17.8" y2="1363"/>
  </g>
  <g>
    <path class="st25" d="M112.53,296.49V110.24h23.75v165.25h86.25v21h-110Z"/>
    <path class="st25" d="M311.4,299.49c-12.67,0-23.77-3-33.31-9s-16.98-14.42-22.31-25.25c-5.33-10.83-8-23.42-8-37.75s2.67-27.31,8-38.19c5.33-10.88,12.77-19.31,22.31-25.31s20.64-9,33.31-9,23.92,3,33.5,9,17.04,14.44,22.38,25.31c5.33,10.88,8,23.61,8,38.19s-2.67,26.92-8,37.75c-5.33,10.83-12.79,19.25-22.38,25.25-9.58,6-20.75,9-33.5,9ZM311.4,279.36c9.42,0,17.17-2.42,23.25-7.25s10.58-11.19,13.5-19.06c2.92-7.88,4.38-16.39,4.38-25.56s-1.46-17.85-4.38-25.81c-2.92-7.96-7.42-14.38-13.5-19.25-6.08-4.88-13.83-7.31-23.25-7.31s-17,2.44-23,7.31-10.46,11.27-13.38,19.19-4.38,16.54-4.38,25.88,1.46,17.69,4.38,25.56c2.92,7.88,7.38,14.23,13.38,19.06,6,4.83,13.67,7.24,23,7.24Z"/>
    <path class="st25" d="M408.03,296.49v-139.75h21.75v21.5h1.5c2.58-7.08,7.19-12.77,13.81-17.06s14.1-6.44,22.44-6.44c1.67,0,3.64.04,5.94.12,2.29.08,4.1.17,5.44.25v22.62c-.67-.17-2.33-.42-5-.75s-5.5-.5-8.5-.5c-6.67,0-12.65,1.4-17.94,4.19-5.29,2.79-9.44,6.62-12.44,11.5s-4.5,10.48-4.5,16.81v87.5h-22.5Z"/>
    <path class="st25" d="M558.9,299.49c-13.5,0-25.15-3-34.94-9s-17.33-14.38-22.62-25.12c-5.29-10.75-7.94-23.29-7.94-37.62s2.58-26.96,7.75-37.88c5.17-10.92,12.48-19.46,21.94-25.62,9.46-6.17,20.52-9.25,33.19-9.25,7.42,0,14.73,1.23,21.94,3.69s13.75,6.42,19.62,11.88c5.88,5.46,10.56,12.65,14.06,21.56,3.5,8.92,5.25,19.83,5.25,32.75v9.38h-108.5v-19h96.38l-10.5,7c0-9.17-1.44-17.31-4.31-24.44s-7.15-12.71-12.81-16.75c-5.67-4.04-12.71-6.06-21.12-6.06s-15.62,2.06-21.62,6.19-10.58,9.5-13.75,16.12-4.75,13.73-4.75,21.31v12.62c0,10.33,1.79,19.11,5.38,26.31,3.58,7.21,8.6,12.67,15.06,16.38s13.94,5.56,22.44,5.56c5.5,0,10.5-.79,15-2.38,4.5-1.58,8.38-3.98,11.62-7.19,3.25-3.21,5.75-7.19,7.5-11.94l21.75,6c-2.17,7-5.83,13.17-11,18.5s-11.56,9.5-19.19,12.5-16.24,4.5-25.83,4.5Z"/>
    <path class="st25" d="M649.4,296.49v-139.75h21.88l.12,31.25h-1.75c1.92-7.58,4.94-13.85,9.06-18.81,4.12-4.96,8.96-8.69,14.5-11.19s11.31-3.75,17.31-3.75c10.17,0,18.39,3.12,24.69,9.38,6.29,6.25,10.35,14.46,12.19,24.62h-3c1.67-7,4.71-13.04,9.12-18.12,4.42-5.08,9.77-9,16.06-11.75s13.14-4.12,20.56-4.12c8.08,0,15.46,1.75,22.12,5.25,6.67,3.5,11.98,8.79,15.94,15.88,3.96,7.08,5.94,16.04,5.94,26.88v94.25h-22.5v-93.62c0-10.08-2.83-17.29-8.5-21.62-5.67-4.33-12.25-6.5-19.75-6.5-6.25,0-11.65,1.31-16.19,3.94-4.54,2.62-8.04,6.23-10.5,10.81s-3.69,9.83-3.69,15.75v91.25h-22.5v-95.88c0-7.75-2.58-14-7.75-18.75s-11.71-7.12-19.62-7.12c-5.42,0-10.52,1.27-15.31,3.81s-8.65,6.31-11.56,11.31c-2.92,5-4.38,11.21-4.38,18.62v88h-22.49v-.02Z"/>
    <path class="st25" d="M121.15,441.06c-4.25,0-7.92-1.46-11-4.38s-4.62-6.42-4.62-10.5,1.54-7.69,4.62-10.56c3.08-2.88,6.75-4.31,11-4.31s8.04,1.44,11.12,4.31c3.08,2.88,4.62,6.4,4.62,10.56s-1.54,7.58-4.62,10.5c-3.07,2.93-6.78,4.38-11.12,4.38ZM109.78,603.69v-139.75h22.5v139.75h-22.5Z"/>
    <path class="st25" d="M171.78,655.94v-192h21.75v22.38h2.5c1.58-2.5,3.79-5.64,6.62-9.44,2.83-3.79,6.92-7.19,12.25-10.19s12.54-4.5,21.62-4.5c11.67,0,21.94,2.92,30.81,8.75,8.88,5.83,15.83,14.15,20.88,24.94,5.04,10.79,7.56,23.56,7.56,38.31s-2.5,27.67-7.5,38.5-11.94,19.21-20.81,25.12-19.15,8.88-30.81,8.88c-8.83,0-15.96-1.52-21.38-4.56s-9.58-6.5-12.5-10.38-5.17-7.1-6.75-9.69h-1.75v73.88h-22.49ZM233.28,586.56c8.75,0,16.06-2.35,21.94-7.06s10.29-11.04,13.25-19,4.44-16.81,4.44-26.56-1.46-18.39-4.38-26.19c-2.92-7.79-7.31-13.98-13.19-18.56s-13.23-6.88-22.06-6.88-15.79,2.17-21.62,6.5-10.23,10.36-13.19,18.06c-2.96,7.71-4.44,16.73-4.44,27.06s1.5,19.46,4.5,27.38,7.44,14.11,13.31,18.56c5.88,4.46,13.02,6.69,21.44,6.69Z"/>
    <path class="st25" d="M376.03,606.69c-9.58,0-18.11-1.4-25.56-4.19-7.46-2.79-13.61-6.94-18.44-12.44-4.83-5.5-8.08-12.25-9.75-20.25l21.38-5.12c2,7.67,5.77,13.29,11.31,16.88,5.54,3.58,12.48,5.38,20.81,5.38,9.75,0,17.52-2.08,23.31-6.25s8.69-9.12,8.69-14.88c0-4.83-1.69-8.85-5.06-12.06-3.38-3.21-8.52-5.6-15.44-7.19l-23.25-5.5c-12.67-3-22.08-7.64-28.25-13.94-6.17-6.29-9.25-14.35-9.25-24.19,0-8,2.25-15.06,6.75-21.19s10.64-10.92,18.44-14.38c7.79-3.46,16.64-5.19,26.56-5.19s17.73,1.44,24.44,4.31c6.71,2.88,12.17,6.83,16.38,11.88,4.21,5.04,7.35,10.86,9.44,17.44l-20.38,5.25c-1.92-5-5.11-9.54-9.56-13.62-4.46-4.08-11.19-6.12-20.19-6.12-8.33,0-15.27,1.92-20.81,5.75s-8.31,8.67-8.31,14.5c0,5.17,1.88,9.31,5.62,12.44s9.71,5.65,17.88,7.56l21.12,5c12.67,3,22.04,7.65,28.12,13.94s9.12,14.23,9.12,23.81c0,8.17-2.31,15.44-6.94,21.81s-11.08,11.4-19.38,15.06c-8.28,3.66-17.88,5.5-28.8,5.5Z"/>
    <path class="st25" d="M511.03,605.44c-9.42,0-17.69-1.94-24.81-5.81s-12.67-9.73-16.62-17.56c-3.96-7.83-5.94-17.62-5.94-29.38v-88.75h22.5v86.88c0,10.75,2.83,19.17,8.5,25.25s13.38,9.12,23.12,9.12c6.67,0,12.64-1.46,17.94-4.38,5.29-2.92,9.48-7.19,12.56-12.81s4.62-12.39,4.62-20.31v-83.75h22.62v139.75h-21.75v-33.88h3c-4.33,13.08-10.48,22.29-18.44,27.62-7.95,5.34-17.05,8.01-27.3,8.01Z"/>
    <path class="st25" d="M615.03,603.69v-139.75h21.88l.12,31.25h-1.75c1.92-7.58,4.94-13.85,9.06-18.81s8.96-8.69,14.5-11.19,11.31-3.75,17.31-3.75c10.17,0,18.39,3.12,24.69,9.38,6.29,6.25,10.35,14.46,12.19,24.62h-3c1.67-7,4.71-13.04,9.12-18.12,4.42-5.08,9.77-9,16.06-11.75s13.14-4.12,20.56-4.12c8.08,0,15.46,1.75,22.12,5.25,6.67,3.5,11.98,8.79,15.94,15.88,3.96,7.08,5.94,16.04,5.94,26.88v94.25h-22.5v-93.62c0-10.08-2.83-17.29-8.5-21.62s-12.25-6.5-19.75-6.5c-6.25,0-11.65,1.31-16.19,3.94-4.54,2.62-8.04,6.23-10.5,10.81s-3.69,9.83-3.69,15.75v91.25h-22.5v-95.88c0-7.75-2.58-14-7.75-18.75s-11.71-7.12-19.62-7.12c-5.42,0-10.52,1.27-15.31,3.81s-8.65,6.31-11.56,11.31c-2.92,5-4.38,11.21-4.38,18.62v88h-22.49v-.02Z"/>
  </g>
  <g>
    <path class="st38" d="M-131.29,1485.03c32.79-135.06,81.59-267.82,159.79-383.55,70.42-104.21,165.58-193.91,280.21-247.43,130.59-60.97,277.51-67.58,419.02-75.68,150.37-8.6,301.06-17.37,450.01-40.73,69.95-10.97,140.28-24.24,208.14-44.7,56.67-17.08,113.03-41.03,157.58-80.93,11.01-9.86,21.07-20.67,30.19-32.28,3.51-4.47-2.77-10.83-6.31-6.31-38.31,48.77-93.3,79.41-150.85,100.08-64.64,23.21-133,36.89-200.48,48.78-150.93,26.59-304.14,36.54-456.94,45.37-142.36,8.23-289.95,11.67-424.13,65.4-116.34,46.57-214.59,129.96-289.54,229.44-82.6,109.62-136.24,238.58-172.42,370.25-4.55,16.57-8.82,33.22-12.88,49.92-1.36,5.57,7.25,7.96,8.61,2.37h0Z"/>
    <path class="st3" d="M-133.88,1465.94c36.38-131.27,89.92-258.9,169.39-370.16,72.32-101.24,167.86-188.12,282.44-238.64,130.82-57.67,277.25-63.03,417.86-70.01,148.25-7.36,296.78-15.36,443.69-37.59,68.95-10.44,138.3-23.09,205.28-42.77,55.94-16.44,111.61-39.67,155.8-78.62,11.18-9.85,21.4-20.67,30.66-32.33,3.54-4.45-2.74-10.81-6.31-6.31-38.33,48.25-93.15,78.3-150.5,98.39-64.49,22.59-132.65,35.67-199.88,47.04-148.41,25.11-298.91,34.19-449.05,41.78-141.26,7.15-287.6,9.75-421.6,60.26-116.31,43.84-215.23,124.62-291.64,221.68-82.69,105.05-140.31,228.13-180.13,355.23-5.16,16.47-10.01,33.03-14.62,49.67-1.54,5.55,7.07,7.92,8.61,2.38h0Z"/>
    <path class="st28" d="M-136.51,1446.85c39.75-127.11,97.76-249.12,178.17-355.68,74.73-99.04,171.52-184.07,287.2-231.46,131.09-53.7,275.5-57.59,415.03-63.81,146.1-6.51,292.49-13.51,437.37-34.52,68.22-9.89,136.89-21.94,203.21-41,55.5-15.96,110.66-38.77,154.51-77.25,10.85-9.53,20.79-19.98,29.83-31.24,3.54-4.4-2.69-10.71-6.27-6.27-38.26,47.61-92.72,77.05-149.69,96.57-63.44,21.74-130.45,34.12-196.48,44.88-146.94,23.95-295.88,31.97-444.42,38.71-139.79,6.34-284.03,7.83-417.54,54.8-117.38,41.29-217.37,119.78-296.01,215.17-83.02,100.69-144.4,218.38-187.66,341.14-5.56,15.77-10.8,31.65-15.79,47.6-1.71,5.46,6.84,7.79,8.54,2.36h0Z"/>
    <path class="st4" d="M-139.13,1427.75c43.45-124.32,106.71-242,189.59-344.55,76.72-94.94,173.14-176.2,288.11-220.17,130.89-50.06,273.51-52.9,411.77-58.16,145.07-5.53,290.41-11.67,434.33-31.78,66.93-9.35,134.36-20.75,199.49-39.07,54.64-15.37,108.9-37.54,152.24-75.06,10.9-9.44,20.89-19.82,29.98-31.01,3.54-4.35-2.65-10.61-6.22-6.22-38.18,46.98-92.29,75.81-148.89,94.77-61.87,20.73-127.15,32.38-191.45,42.53-145.46,22.95-292.8,30.16-439.77,35.9-139.34,5.44-282.71,5.9-416.55,49.95-116.6,38.37-216.36,113.2-296.55,205.06-84.26,96.52-150.01,209.15-196.99,328.14-6.18,15.66-12.02,31.44-17.57,47.33-1.87,5.36,6.62,7.66,8.48,2.34h0Z"/>
    <path class="st7" d="M-141.76,1408.66c46.51-119.98,113.89-231.29,197.51-329.04,78.67-91.95,175.12-170.65,289.97-212.13,131.39-47.46,273.36-49.17,411.32-53.57,144.04-4.6,288.35-10.11,431.32-29.3,66-8.86,132.51-19.52,196.75-37.36,53.72-14.92,107.02-36.57,149.69-73.31,10.58-9.11,20.28-19.14,29.14-29.92,3.54-4.3-2.6-10.51-6.17-6.17-37.8,45.99-91.08,74.08-146.83,92.48-60.88,20.09-124.99,31.08-188.22,40.65-144.76,21.91-291.29,28.46-437.45,33.3-138.38,4.58-280.33,4.16-413.89,45.45-116.54,36.02-216.38,108.08-298.35,197.27-85.2,92.7-155.18,200.32-205.33,315.78-6.25,14.39-12.19,28.92-17.86,43.55-2.04,5.24,6.39,7.5,8.4,2.32h0Z"/>
    <path class="st31" d="M-144.82,1390.6c49.44-115.75,120.41-220.6,204.83-313.65,80.96-89.23,177.75-165.85,292.99-204.95,131.8-44.72,272.94-45.43,410.53-48.93,142.8-3.63,285.9-8.29,427.72-26.55,64.46-8.3,129.43-18.25,192.26-35.2,53.29-14.38,106.23-35.42,148.71-71.53,10.63-9.03,20.38-18.98,29.29-29.7,3.53-4.25-2.55-10.41-6.12-6.12-37.41,45.02-89.84,72.46-144.75,90.3-60.19,19.56-123.56,29.96-186.04,39.03-142.74,20.72-287.13,26.46-431.15,30.33-136.91,3.68-276.88,2.26-409.81,39.81-117.39,33.15-218.09,101.97-302.7,188.64-85.7,87.79-159.45,188.96-212.94,299.49-7.12,14.72-13.87,29.62-20.29,44.66-2.17,5.06,5.28,9.48,7.47,4.37h0Z"/>
    <path class="st39" d="M-147.45,1371.49c52.66-112.5,128.04-211.54,214.35-300.29,83.24-85.59,180.08-158.92,295.15-195.16,131.65-41.47,271.37-41.15,407.97-43.73,141.22-2.67,282.72-6.52,423.05-23.69,63.72-7.8,127.97-17.16,190.12-33.56,52.41-13.83,104.5-34.25,146.45-69.44,10.67-8.95,20.47-18.82,29.43-29.48,3.53-4.2-2.51-10.3-6.07-6.07-37.01,44.04-88.6,70.88-142.68,88.17-59.51,19.02-122.12,28.88-183.86,37.44-141.27,19.6-284.09,24.53-426.52,27.46-136.43,2.8-275.53.47-408.54,35.49-59.35,15.63-115.85,39.72-168,72.12-49.18,30.55-94.14,67.48-135.75,107.64-86.47,83.44-163.93,178.47-220.55,284.76-7.71,14.47-15.01,29.15-21.96,44-2.32,4.99,5.07,9.35,7.41,4.34h0Z"/>
    <path class="st21" d="M-150.07,1352.39c55.44-108.57,134.35-201.13,221.93-285.07,86.12-82.55,183.48-153.36,299.3-187.07,131.45-38.26,269.74-36.93,405.37-38.6,140.18-1.72,280.66-4.79,420.04-21.06,62.42-7.28,125.38-16.03,186.31-31.75,51.98-13.41,103.56-33.45,145.17-68.21,10.34-8.64,19.85-18.16,28.58-28.43,3.53-4.15-2.46-10.2-6.02-6.02-36.92,43.44-88.17,69.7-141.86,86.46-59.12,18.46-121.29,27.75-182.55,35.76-139.12,18.2-279.59,22.35-419.73,24.33-135.45,1.91-273.09-1.26-405.7,30.82-59.5,14.39-116.33,36.95-169.11,68.02-49.74,29.28-95.37,65.08-138.07,103.81-87.47,79.32-168.49,168.26-228.11,270.68-8.03,13.79-15.64,27.81-22.89,42.02-2.49,4.88,4.85,9.2,7.34,4.31h0Z"/>
    <path class="st43" d="M-152.69,1333.29c58.15-104.82,140.42-190.97,229.43-270.05,42.83-38.06,87.44-74.3,136.03-104.81,51.62-32.41,107.18-57.39,166.03-73.39,65-17.66,132.05-26.91,199.19-31.11,68.34-4.27,136.63-1.95,205.03-1.48,138.1.95,276.47-3.12,413.74-19.01,61.75-7.15,124.13-15.32,184.51-30.42,51.57-12.9,102.76-32.38,144.19-66.51,10.39-8.56,19.95-18.01,28.72-28.21,3.52-4.1-2.42-10.1-5.97-5.97-36.82,42.84-87.73,68.54-141.05,84.79-58.6,17.85-120.13,26.46-180.73,34.26-137.59,17.71-276.49,22.99-415.13,22.76-68.57-.11-137.18-2.99-205.72-.08-66.68,2.83-133.4,10.22-198.5,25.2-59.55,13.71-116.56,34.83-169.87,64.8-49.39,27.77-94.91,61.87-138.04,98.49-88.26,74.95-172.38,157.25-234.81,255.45-8.54,13.43-16.64,27.13-24.36,41.05-2.62,4.73,4.67,9,7.31,4.24h0Z"/>
    <path class="st1" d="M-155.31,1314.19c60.35-100.49,145-179.99,234.94-253.68,43.72-35.82,88.55-70.46,137.08-99.6,52.1-31.28,107.83-55.17,166.74-70.21,64.97-16.59,131.77-25.26,198.65-28.9,68.07-3.71,136.03-.63,204.11.38,137.62,2.02,275.54-1.4,412.43-16.43,60.56-6.65,121.75-14.21,181.05-28.56,51.16-12.38,101.96-31.33,143.22-64.84,10.44-8.48,20.04-17.85,28.86-28,3.52-4.05-2.38-10-5.92-5.92-36.42,41.9-86.48,67.01-138.96,82.75-58.43,17.53-119.79,25.59-180.18,32.94-137.24,16.72-275.69,21.29-413.85,20-68.21-.64-136.44-4.24-204.64-1.86-65.88,2.3-131.81,9.19-196.3,23.14-59.55,12.88-116.67,32.85-170.38,61.74-49.38,26.57-95.07,59.29-138.93,94.1-88.55,70.25-174.81,145.4-239.52,238.95-8.97,12.97-17.49,26.25-25.61,39.77-2.8,4.63,4.43,8.85,7.21,4.23h0Z"/>
    <path class="st32" d="M-157.93,1295.08c62.77-96.84,150.04-170.11,241.51-238.63,44.58-33.39,89.68-66.26,138.15-93.85,52.7-30,108.72-52.59,167.76-66.57,64.35-15.23,130.26-23.23,196.27-26.29,67.39-3.13,134.6.65,201.98,2.19,136.58,3.12,273.5.45,409.48-13.46,60.47-6.19,121.62-13.2,180.89-27.07,51.15-11.97,102-30.6,143.24-63.99,10.1-8.18,19.41-17.22,27.99-26.98,3.52-4-2.33-9.89-5.87-5.87-36.62,41.66-86.84,66.26-139.41,81.5-57.51,16.67-117.76,24.07-177.09,30.88-136.33,15.65-273.79,19.56-410.92,17.26-68.1-1.14-136.19-5.51-204.3-3.69-65.02,1.73-130.08,8.06-193.9,20.86-59.98,12.03-117.6,30.91-172.11,58.83-49.88,25.55-96.23,57.21-141.26,90.42-88.55,65.3-176.17,133.1-242.74,221.78-9.4,12.52-18.32,25.38-26.83,38.51-2.93,4.48,4.26,8.65,7.16,4.17h0Z"/>
    <path class="st41" d="M-160.56,1275.98c34-48.72,74.97-91.88,120.35-130.12,40.67-34.28,84.51-64.42,128.44-94.3,45.12-30.68,90.28-61.48,138.41-87.33,52.87-28.39,108.78-49.75,167.47-62.49,130.65-28.36,264.55-23.95,397.32-21.89,135.72,2.11,271.75,2.53,407.09-9.38,59.93-5.27,120.52-11.74,179.26-25.16,50.31-11.49,100.24-29.57,140.97-62.06,10.15-8.1,19.5-17.08,28.12-26.77,3.51-3.95-2.29-9.79-5.82-5.82-36.21,40.72-85.59,64.78-137.32,79.53-56.92,16.23-116.54,23.21-175.27,29.21-136.24,13.91-273.41,14.47-410.22,12.62-132.08-1.79-264.89-7.65-395.62,15.72-59.59,10.66-116.98,28.43-171.53,54.78-50.4,24.34-97.46,54.74-143.72,86.08-90.01,60.97-180.27,122.67-248.97,208.31-9.09,11.34-17.78,22.99-26.09,34.91-3.01,4.36,4.12,8.48,7.13,4.16h0Z"/>
    <path class="st17" d="M-163.18,1256.88c35.4-47.23,78.02-88.43,124.97-124.08,41.1-31.21,85.07-58.22,129.04-85.13,45.5-27.85,90.6-56.48,138.22-80.64,53.37-27.08,109.47-47.44,168.19-59.26,130.49-26.27,263.52-21.26,395.76-18.23,135.25,3.09,270.83,4.44,405.79-6.43,59.29-4.78,119.24-10.69,177.42-23.51,49.86-10.99,99.5-28.53,139.99-60.46,10.19-8.03,19.59-16.93,28.26-26.57,3.5-3.9-2.25-9.69-5.77-5.77-36.4,40.48-85.95,64.07-137.75,78.31-56.52,15.54-115.6,21.92-173.81,27.38-135.35,12.69-271.5,12.31-407.29,9.49-131.53-2.73-263.47-9.23-393.93,12.3-59.69,9.85-117.21,26.66-172.26,51.85-49.55,22.68-96.17,50.97-142.5,79.5-91.2,56.16-183.26,111.48-254.21,193.35-9.47,10.93-18.49,22.23-27.16,33.8-3.16,4.18,3.92,8.26,7.04,4.1h0Z"/>
    <path class="st12" d="M-166.43,1238.6c36.16-45.02,79.18-83.65,126.61-116.48,41.8-28.94,86.4-53.35,130.99-77.65,46.11-25.13,91.52-51.66,138.94-74.3,53.32-25.46,109.04-44.88,167.17-55.84,130.17-24.55,262.3-19.2,393.92-15.18,134.79,4.12,269.9,6.51,404.52-3.13,59.14-4.23,118.93-9.57,177.05-21.74,49.93-10.46,99.85-27.43,140.56-59.05,10.33-8.03,19.89-16.91,28.69-26.59,3.5-3.85-2.21-9.59-5.72-5.72-36.36,39.98-85.67,63.06-137.2,76.82-56.42,15.06-115.32,20.88-173.34,25.84-134.45,11.49-269.59,10.17-404.35,6.38-130.98-3.69-262.07-10.81-392.25,8.82-59.34,8.95-116.61,24.54-171.8,48.2-49.21,21.09-95.82,47.44-142.6,73.33-91.66,50.73-184.47,99.45-257.33,176.55-10.33,10.94-20.17,22.31-29.6,34.04-3.22,4,2.47,9.76,5.74,5.7h0Z"/>
    <path class="st0" d="M-169.05,1219.49c37.51-43.64,81.92-80.24,130.7-110.62,42.54-26.49,87.7-48.2,132.82-69.86,45.99-22.08,91.15-45.96,137.79-66.63,53.91-23.89,109.9-42.21,168.08-52.18,130.57-22.38,262.42-16.27,394.08-11.28,133.76,5.08,267.86,8.34,401.56-.22,58.51-3.75,117.65-8.53,175.21-20.14,50.04-10.09,100.02-26.82,140.79-58.43,9.92-7.69,19.1-16.2,27.59-25.43,3.49-3.8-2.17-9.48-5.67-5.67-36.55,39.75-86.04,62.36-137.64,75.6-56.01,14.38-114.37,19.61-171.87,24.04-133.55,10.29-267.68,8.04-401.42,3.28-130.97-4.66-261.75-12.44-392.15,5.48-59.01,8.11-116.15,22.61-171.45,44.83-48.69,19.56-95.19,43.83-142.25,66.9-43.99,21.56-88.63,41.85-131.28,66.03-46.93,26.6-91.31,57.88-129.87,95.74-10.71,10.52-20.92,21.51-30.7,32.9-3.34,3.88,2.31,9.58,5.68,5.66h0Z"/>
    <path class="st18" d="M-171.67,1200.38c74.65-81.45,169.47-144.5,276.62-173.63,5.42-1.47,10.86-2.86,16.32-4.15,6.05-1.43,10.77-5.37,16.01-8.61,10.33-6.39,20.9-12.39,31.68-18,23.46-12.22,47.86-22.56,72.81-31.34,53.76-18.92,109.88-30.93,166.17-39.31,129.51-19.29,259.54-12.49,389.72-6.57,132.74,6.04,265.83,10.16,398.6,2.67,57.86-3.27,116.37-7.51,173.36-18.55,49.6-9.61,99.27-25.82,139.81-56.88,9.95-7.62,19.18-16.06,27.71-25.24,3.48-3.74-2.13-9.38-5.62-5.62-36.44,39.17-85.58,61.29-136.79,74.07-55.44,13.83-113.16,18.53-170,22.48-132.64,9.21-265.76,6.09-398.48.39-130.2-5.6-260.07-14.23-389.97,1.49-106.85,12.93-216.51,38.4-308.3,96.88-10.11,6.44-23.06,7.94-34.52,11.28-11.92,3.48-23.71,7.38-35.36,11.68-23.47,8.67-46.35,18.93-68.46,30.64-49.04,25.99-94.19,59.15-134.36,97.4-11.25,10.72-22.09,21.85-32.58,33.31-3.45,3.75,2.16,9.39,5.63,5.61h0Z"/>
    <path class="st37" d="M-174.29,1181.27C-97.34,1102.56-.08,1043.81,108.06,1020.45c5.49-1.18,10.99-2.28,16.51-3.28,6.25-1.13,9.94-2.84,15.44-6.01,10.43-6.01,21.09-11.61,31.94-16.81,23.27-11.15,47.4-20.41,71.99-28.21,54.93-17.42,112.03-27.92,169.12-35.22,62.55-8,125.71-10.96,188.74-10.75,65.91.22,131.64,4.9,197.43,8.4,132.27,7.04,264.91,12.09,397.32,5.63,57.22-2.79,115.09-6.5,171.5-17,49.58-9.22,99.35-25.13,139.84-56.13,9.6-7.35,18.52-15.45,26.81-24.25,3.47-3.69-2.09-9.28-5.57-5.57-36.31,38.6-85.12,60.26-135.94,72.56-55.42,13.42-113.06,17.58-169.81,21.04-131.73,8.03-263.85,3.99-395.55-2.67-65.33-3.31-130.65-8.25-196.07-9.54-64.14-1.26-128.45.62-192.27,7.33-57.38,6.02-114.86,15.39-170.56,30.6-24.95,6.81-49.56,14.93-73.48,24.78-10.81,4.45-21.49,9.22-31.99,14.38-11.12,5.47-21.61,12.51-32.78,17.75-5.29,2.48-11.93,2.75-17.63,3.89-5.95,1.2-11.88,2.5-17.78,3.91-11.68,2.79-23.26,5.99-34.71,9.59-23.87,7.5-47.2,16.72-69.81,27.44-50.2,23.8-96.62,55.25-138.07,92.2-11.22,10-22.05,20.43-32.56,31.18-3.53,3.63,2.04,9.21,5.59,5.58h0Z"/>
    <path class="st2" d="M-176.9,1162.16C-98.45,1086.84,0,1032.64,107.73,1014.34c5.96-1.01,11.94-1.92,17.94-2.7,4.9-.64,10.27-.55,14.81-2.49,11.01-4.72,21.45-11.02,32.44-15.88,23.63-10.45,48.14-18.88,73-25.87,55.54-15.61,112.96-24.36,170.23-30.61,62.45-6.81,125.38-9.13,188.18-8.36,66.17.81,132.13,6.09,198.16,10.12,130.69,7.97,261.76,13.85,392.69,8.57,57.14-2.3,114.93-5.47,171.32-15.53,49.15-8.77,98.58-24.18,138.86-54.62,9.64-7.28,18.6-15.31,26.92-24.07,3.47-3.64-2.05-9.18-5.53-5.53-76.09,79.98-199.93,85.11-303.02,90.6-131.38,6.99-263.06,2.03-394.29-5.63-66.07-3.86-132.12-9.44-198.3-11.2-63.88-1.7-127.92-.29-191.58,5.5-57.34,5.21-114.91,13.17-170.91,26.75-24.74,6-49.19,13.24-73.01,22.22-11.33,4.27-22.51,8.93-33.5,14-10.7,4.93-21.19,12.35-32.93,13.78-102.6,12.49-199.1,57.47-278.28,123.34-11.49,9.56-22.58,19.56-33.36,29.91-3.63,3.48,1.9,9,5.53,5.52h0Z"/>
    <path class="st16" d="M-179.52,1143.05c81.01-73.08,182.57-123.65,291.57-136.06,5.59-.64,11.2-1.17,16.81-1.61,5.16-.4,11.49.3,16.45-1.08,4.85-1.35,9.76-4.59,14.37-6.64,6.13-2.72,12.32-5.29,18.57-7.72,23.1-9,46.89-16.15,70.98-21.96,55.71-13.45,112.93-20.27,169.93-25.38,62.75-5.62,125.84-7.28,188.81-5.89,64.94,1.43,129.65,7.16,194.42,11.63,130.23,8.99,260.85,15.86,391.42,11.7,57.05-1.82,114.77-4.45,171.13-14.07,48.71-8.31,97.81-23.23,137.87-53.13,9.67-7.22,18.67-15.18,27.04-23.88,3.46-3.59-2.01-9.08-5.48-5.48-76.16,79.16-199.4,83.14-301.97,87.72-131.04,5.85-262.27-.1-393.05-8.78-65.43-4.34-130.82-10.43-196.37-12.74-63-2.22-126.15-1.42-189.03,3.16-57.5,4.18-115.31,10.53-171.84,22.11-24.83,5.09-49.44,11.35-73.48,19.4-11.48,3.85-22.82,8.1-33.98,12.79-4.87,2.05-9.72,4.17-14.52,6.38-6.19,2.86-10.97,3.37-17.71,3.84-103.09,7.21-201.73,48.16-283.03,111.32-11.83,9.19-23.27,18.85-34.4,28.89-3.69,3.35,1.8,8.81,5.49,5.48h0Z"/>
    <path class="st45" d="M-182.14,1123.94c82.85-70.3,185.97-116.61,294.91-124.25,11.59-.81,23.2-1.19,34.82-1.12,10.53.06,22.21-7.31,32.19-10.79,23.3-8.11,47.23-14.32,71.4-19.21,56.28-11.39,113.79-16.27,170.99-20.23,61.91-4.28,124.06-5.29,186.09-3.41,64.83,1.97,129.38,8.22,194.02,13.22,129.77,10.03,259.94,17.87,390.15,14.83,56.53-1.32,113.71-3.41,169.63-12.39,48.74-7.83,97.96-22.28,138.19-51.88,9.71-7.14,18.75-15.05,27.15-23.69,3.45-3.54-1.97-8.97-5.43-5.43-76.23,78.35-198.87,81.19-300.91,84.86-130.7,4.71-261.49-2.22-391.81-11.94-65.35-4.87-130.63-11.51-196.11-14.35-62.6-2.71-125.35-2.44-187.92,1.05-57.13,3.19-114.57,7.86-171.04,17.32-24.89,4.17-49.62,9.47-73.85,16.59-11.55,3.39-22.99,7.2-34.24,11.48-4.79,1.82-9.71,4.58-14.65,5.88-5.55,1.46-12.44.4-18.16.54-103.45,2.64-204.23,39.99-287.39,100.99-11.48,8.42-22.62,17.28-33.48,26.49-3.74,3.21,1.71,8.62,5.45,5.44h0Z"/>
    <path class="st27" d="M-184.75,1104.83c85.27-68.09,190.72-110.37,300.32-113.02,11.76-.28,23.53-.12,35.27.52,11.45.62,21.53-4.52,32.46-7.81,23.34-7.03,47.24-12.12,71.3-15.96,55.88-8.93,112.67-11.72,169.12-14.46,62.3-3.03,124.75-3.37,187.07-.87,64.33,2.59,128.36,9.36,192.49,14.85,129.11,11.04,258.63,19.8,388.28,17.87,56.27-.84,113.22-2.39,168.94-10.93,48.33-7.41,97.15-21.39,137.19-50.43,9.74-7.07,18.83-14.92,27.27-23.5,3.44-3.49-1.94-8.87-5.38-5.38-76.23,77.47-198.09,79.24-299.51,82.02-129.59,3.56-259.18-4.22-388.28-14.87-64.74-5.34-129.4-12.5-194.27-15.99-62.45-3.37-125.06-3.77-187.56-1.5-57.6,2.09-115.55,4.94-172.74,12.31-23.83,3.07-47.55,7.05-70.91,12.71-11.58,2.81-23.05,6.02-34.38,9.71-5.67,1.85-11.5,4.79-17.52,4.82-5.99.03-12.05-.63-18.05-.76-103.85-2.26-206.72,31.2-292.1,89.7-11.8,8.08-23.23,16.66-34.4,25.58-3.81,3.06,1.6,8.41,5.39,5.39h0Z"/>
    <path class="st35" d="M-188.13,1086.31c87.12-65.52,193.51-104.08,303.01-102.76,11.88.14,23.76.75,35.6,1.83,4.87.45,10.55,2.06,15.37,1.42,5.51-.73,11.18-3.27,16.61-4.6,24.34-5.98,49.29-8.92,74.24-10.81,56.72-4.3,113.51-4.98,170.05-11.86,60.91-7.41,122.62-4.78,183.62.02,63.8,5.02,127.42,12.22,191.13,18.22,129.2,12.17,258.84,21.99,388.7,21.18,55.76-.35,112.16-1.38,167.45-9.29,48.37-6.92,97.29-20.44,137.51-49.19,9.78-6.99,18.9-14.79,27.38-23.31,3.42-3.44-1.9-8.77-5.33-5.33-76.3,76.67-197.55,77.34-298.45,79.23-129.24,2.42-258.4-6.33-387.04-18.02-63.93-5.81-127.76-12.73-191.69-18.5-61.29-5.53-123.14-9.74-184.64-5.31-29.83,2.15-59.43,6.54-89.29,8.59-27.95,1.92-55.95,2.9-83.92,4.42-24.24,1.32-48.49,3.1-72.48,6.88-11.85,1.87-23.62,4.25-35.21,7.35-6.48,1.74-11.28,2.68-18,1.97-6.04-.64-12.1-1.15-18.16-1.54-102.96-6.6-206.5,22.36-293.4,77.35-12.65,8-24.91,16.56-36.87,25.56-3.82,2.87-.07,9.42,3.81,6.5h0Z"/>
    <path class="st36" d="M-190.74,1067.19c88.97-63.06,196.72-97.75,306.1-92.42,12.25.6,24.47,1.68,36.63,3.29,5.47.72,10.9,1.69,16.36,2.5,5.62.83,10.75-1.16,16.3-2.3,23.94-4.9,48.38-6.66,72.76-7.42,56.44-1.77,112.83.3,169.12-5.31,61.01-6.08,122.15-3.35,183.11,2.05,64.02,5.68,127.84,13.47,191.77,20.05,128.74,13.24,257.94,24.03,387.44,24.35,55.22.13,111.12-.31,165.94-7.67,48.41-6.5,97.4-19.48,137.83-47.95,9.82-6.92,18.98-14.66,27.5-23.12,3.41-3.39-1.87-8.67-5.28-5.28-76.75,76.24-198.25,75.54-299.06,76.47-128.9,1.19-257.62-8.6-385.81-21.36-64.09-6.38-128.07-13.91-192.16-20.28-60.96-6.06-122.49-10.85-183.75-7.05-30.42,1.88-60.61,5.4-91.12,6.3-27.19.79-54.39.58-81.59.88-24.91.27-49.89,1-74.62,4.21-10.94,1.42-21.59,3.91-32.43,5.8-5.58.97-11.6-.83-17.17-1.62-5.61-.79-11.23-1.49-16.86-2.08-103.6-10.81-209.27,14.74-298.5,67.86-12.41,7.39-24.47,15.33-36.26,23.68-3.91,2.73-.18,9.21,3.75,6.42h0Z"/>
    <path class="st26" d="M-193.35,1048.08c91.17-60.91,200.73-91.85,310.37-82.43,12.21,1.05,24.36,2.59,36.44,4.66,10.85,1.86,21.19,5.59,32.1,3.75,23.94-4.04,48.33-4.68,72.56-4.34,56.07.79,111.9,5.48,167.98,1.57,124.55-8.7,248.36,12.01,371.83,25.84,128.83,14.42,258.15,26.34,387.86,27.88,56.22.67,113.23.86,169.08-6.43,47.87-6.25,96.27-18.96,136.24-47.08,9.46-6.66,18.31-14.1,26.56-22.2,3.4-3.34-1.83-8.57-5.23-5.23-76.81,75.45-197.71,73.67-297.99,73.71-129.12.05-257.97-10.8-386.25-24.71-64-6.94-127.86-15.04-191.85-22.02-60.47-6.6-121.52-12.01-182.39-9.05-30.44,1.48-60.6,3.92-91.11,3.6-27.01-.28-53.97-1.72-80.96-2.65-24.32-.85-48.72-1.28-72.99.81-10.72.92-23.59,5.07-34.1,3.19-11.4-2.03-22.67-4.46-34.16-6.04-103.36-14.23-209.83,7.52-300.79,58.15-12.62,7.03-24.9,14.62-36.91,22.64-3.96,2.62-.27,9.03,3.71,6.38h0Z"/>
    <path class="st8" d="M-195.96,1028.96c93.34-58.82,204.71-86.12,314.58-72.79,12.33,1.5,24.6,3.53,36.76,6.05,5.72,1.19,11.42,2.49,17.09,3.91,5.58,1.39,10.8,3.54,16.55,2.86,23.32-2.78,46.89-2.36,70.29-.93,55.02,3.37,109.61,10.63,164.87,8.75,29.77-1.01,59.26-2.22,89.06-.96,31.52,1.34,62.96,4.17,94.32,7.6,63.33,6.93,126.45,15.81,189.69,23.46,128.15,15.5,256.83,28.39,385.97,31.12,56.1,1.18,112.98,1.95,168.79-4.78,47.89-5.78,96.4-18.05,136.54-45.87,9.5-6.59,18.38-13.97,26.67-22.02,3.39-3.29-1.79-8.47-5.18-5.18-77.2,74.97-198.17,71.88-298.3,70.97-128.57-1.17-256.78-13-384.4-27.96-63.38-7.43-126.61-16.01-189.97-23.61-60.74-7.29-122.04-13.52-183.29-11.46-29.79,1-59.26,2.24-89.07.75-26.63-1.34-53.17-3.96-79.73-6.19-24.37-2.04-48.87-3.74-73.34-2.78-12.01.47-23.39,2.8-35.13-.21-11.78-3.01-23.69-5.53-35.68-7.57-103.16-17.53-210.56.66-303.25,48.88-12.82,6.67-25.32,13.93-37.55,21.63-3.97,2.51-.3,8.86,3.71,6.33h0Z"/>
    <path class="st34" d="M-198.57,1009.85c95.52-56.78,208.95-80.7,319.06-63.4,12.35,1.94,24.62,4.38,36.77,7.32,5.77,1.4,11.51,2.91,17.22,4.54,5.49,1.57,11.23,4.28,16.84,5.17,4.85.77,10.59-.49,15.5-.67,6.11-.23,12.23-.32,18.35-.29,12.11.04,24.21.53,36.29,1.3,54.3,3.45,108.2,11.57,162.4,16.22,60.75,5.21,121.68,8.1,182.42,13.46,63.33,5.59,126.15,14.93,189.21,22.87,127.74,16.09,256.02,28.72,384.71,33.71,56.13,2.18,113.01,4.72,168.98-1.47,48-5.31,96.58-17.58,136.85-45.27,9.53-6.55,18.45-13.9,26.78-21.91,3.37-3.24-1.76-8.37-5.13-5.13-77.95,74.86-196.88,70.48-297.22,67.55-128.71-3.75-257.06-15.49-384.85-31.01-63.25-7.68-126.27-17.47-189.68-23.82-60.5-6.05-121.21-9.6-181.85-13.92-56.19-4-111.97-11.62-168.05-16.64-23.89-2.14-47.89-3.59-71.89-3.11-5.67.11-11.35.59-17.01.68-6.79.11-13.02-2.5-19.49-4.36-11.46-3.3-23.06-6.14-34.75-8.53-103.35-21.06-212.22-6.27-306.95,39.79-13.02,6.33-25.72,13.26-38.16,20.66-4.03,2.38-.38,8.65,3.65,6.26h0Z"/>
    <path class="st14" d="M-201.18,990.73c97.74-54.8,212.81-75.16,323.17-54.36,24.28,4.58,48.2,11.07,71.42,19.51,10.27,3.73,22.69,1.89,33.6,2.45,11.99.62,23.94,1.68,35.87,3.02,53.33,5.99,106.06,16.42,159.34,22.84,60.2,7.26,120.8,11,181.14,16.98,63.96,6.34,127.38,16.32,191.05,24.93,127.04,17.18,254.65,30.82,382.73,36.99,56.16,2.7,113.08,5.82,169.16.17,48.03-4.84,96.72-16.66,137.17-44.06,9.57-6.48,18.52-13.77,26.89-21.73,3.36-3.19-1.73-8.27-5.08-5.08-78.4,74.45-197.59,68.7-297.83,64.82-128.92-4.99-257.41-17.85-385.29-34.61-63.14-8.27-126.02-18.63-189.33-25.56-59.97-6.57-120.16-10.83-180.2-16.74-56.07-5.52-111.4-15.76-167.19-23.33-23.02-3.12-46.15-5.64-69.39-6.29-5.88-.16-12.66.69-18.35-.88-6.11-1.69-12.08-4.32-18.13-6.27-11.54-3.71-23.23-6.96-35.04-9.74-103.53-24.42-213.83-12.93-310.59,31-13.21,6-26.11,12.61-38.77,19.71-4.01,2.29-.4,8.5,3.65,6.23h0Z"/>
    <path class="st13" d="M-203.79,971.62c99.94-52.86,216.6-69.74,327.23-45.62,24.54,5.35,48.68,12.64,72.04,21.9,5.4,2.14,9.55,3.96,15.34,4.3,6.05.35,12.08.84,18.11,1.44,11.98,1.2,23.91,2.88,35.79,4.82,52.99,8.68,105.17,21.61,158.25,29.86,58.97,9.16,118.58,13.9,177.87,20.49,64.05,7.12,127.53,17.58,191.24,27.09,126.29,18.83,253.21,34.73,380.81,41.14,56.01,2.81,112.81,5.35,168.78.44,48.45-4.25,97.87-15.08,138.98-42.25,9.71-6.42,18.79-13.7,27.28-21.67,3.35-3.14-1.69-8.17-5.03-5.03-78.9,74.04-201.28,66.53-301.5,62.66-128.69-4.97-256.76-20.13-384.11-38.71-62.27-9.09-124.3-19.86-186.79-27.36-60.27-7.23-120.8-12.21-180.99-20.11-55.23-7.25-109.38-20.03-164.11-30.12-22.69-4.18-45.54-7.74-68.57-9.41-12.71-.92-23.41-6.16-35.34-10.38-12.05-4.26-24.27-8.01-36.62-11.26-103.33-27.15-214.6-18.91-312.9,22.85-13.39,5.69-26.49,11.98-39.35,18.78-4.05,2.15-.46,8.29,3.59,6.15h0Z"/>
    <path class="st15" d="M-206.4,952.5c53.57-26.68,112.03-40.88,171.75-43.35,55.51-2.3,110.93,4.85,165.12,16.47,48.78,10.46,96.48,25.17,144.95,36.9,52.8,12.78,106.14,23.18,159.73,31.97,58.4,9.57,117.2,15.99,175.9,23.44,63.36,8.04,126.18,19.25,189.25,29.19,124.17,19.56,249.02,35.96,374.58,43.22,55.27,3.2,111.32,6.19,166.6,1.6,47.57-3.95,96.12-14.42,136.62-40.82,9.75-6.35,18.86-13.57,27.39-21.48,3.33-3.09-1.66-8.07-4.98-4.98-78.21,72.57-198.25,64.71-297.07,60.13-127.23-5.9-253.78-21.67-379.59-41.07-61.9-9.55-123.53-20.91-185.6-29.27-58.95-7.94-118.19-13.82-176.99-22.87-55.27-8.51-110.32-18.71-164.82-31.3-48.07-11.11-95.29-25.47-143.31-36.75-106.58-25.04-219.5-33.95-323.83,5.65-13.38,5.08-26.45,10.88-39.26,17.26-4.06,2-.49,8.08,3.56,6.06h0Z"/>
    <path class="st46" d="M-209.01,933.39c107.75-50.61,227.12-46.89,340.44-18.78,49.61,12.3,97.68,29.58,146.57,44.31,51.75,15.6,104.18,28.82,157.18,39.46,58.58,11.76,117.8,19.29,176.93,27.63,62.2,8.77,123.89,20.36,185.83,30.73,124.04,20.78,248.82,38.23,374.36,46.67,55.16,3.71,111.08,7.27,166.33,3.23,47.59-3.48,96.25-13.52,136.93-39.63,9.79-6.28,18.94-13.45,27.5-21.3,3.32-3.04-1.63-7.97-4.93-4.93-78.61,72.11-198.72,62.95-297.39,57.42-126.67-7.1-252.6-23.83-377.73-44.32-62.11-10.17-123.92-22.18-186.2-31.3-59.09-8.66-118.49-15.52-177.2-26.52-54.21-10.16-107.9-22.89-160.88-38.25-48.41-14.04-95.85-31.24-144.49-44.45-106.72-28.99-220.88-40.02-327.01-2.41-13.53,4.8-26.77,10.34-39.76,16.44-4.06,1.88-.53,7.9,3.52,6h0Z"/>
    <path class="st9" d="M-211.62,914.27c109.74-48.6,230.53-42.79,344.02-11.06,50.12,14.01,98.21,33.53,147.08,51.23,50.61,18.33,101.97,34.46,154.31,47.11,57.87,13.99,116.68,22.78,175.47,31.9,62,9.62,123.5,21.7,185.26,32.69,124.11,22.08,249.01,40.63,374.75,50.3,55.19,4.24,111.16,8.4,166.52,4.89,47.61-3.02,96.38-12.61,137.23-38.45,9.82-6.21,19.01-13.32,27.61-21.12,3.3-2.99-1.6-7.87-4.88-4.88-79.09,71.72-199.43,61.18-298,54.69-126.89-8.36-252.95-26.21-378.17-48-61.98-10.78-123.66-23.33-185.79-33.21-58.8-9.35-117.9-17.31-176.04-30.31-53.51-11.97-106.11-27.47-157.83-45.63-48.29-16.95-95.58-36.69-144.56-51.68-106.87-32.71-222.28-45.76-330.2-10.08-13.68,4.52-27.08,9.82-40.26,15.65-4.06,1.79-.55,7.75,3.48,5.96h0Z"/>
    <path class="st44" d="M-215.05,895.5c111.6-46.59,233.29-39.41,347.02-4.47,51.37,15.78,100.14,37.66,149.54,58.55,49.38,20.88,99.51,39.9,151.08,54.69,57.07,16.36,115.42,26.54,173.87,36.52,61.57,10.51,122.7,23.04,184.07,34.61,123.96,23.38,248.77,43.02,374.49,53.97,55.19,4.81,111.14,9.57,166.57,6.74,48.07-2.45,97.46-11.54,138.88-37.34,9.86-6.14,19.08-13.19,27.73-20.94,3.28-2.94-1.57-7.77-4.83-4.83-79.5,71.28-199.91,59.42-298.31,51.98-126.32-9.55-251.77-28.34-376.31-51.25-61.64-11.34-122.95-24.42-184.71-35.11-58.49-10.13-117.29-19.16-174.79-34.15-53.08-13.83-104.8-32.1-155.5-52.96-48.1-19.79-95.18-41.93-144.44-58.78-106.81-36.55-223.3-52.2-333.16-19.29-14.61,4.38-28.93,9.6-43,15.47-4.02,1.67-2.26,8.29,1.8,6.59h0Z"/>
    <path class="st6" d="M-217.65,876.38c113.29-44.56,236.16-35.64,349.92,2.3,51.71,17.25,100.39,40.87,149.34,64.58,47.63,23.07,95.9,44.83,146.05,61.9,56.38,19.19,114.46,31.22,172.89,42.22,61.79,11.63,123.25,24.68,184.9,37,124,24.78,248.94,45.57,374.84,57.84,55.77,5.43,112.34,10.91,168.43,8.58,48.11-2,97.56-10.64,139.18-36.14,9.9-6.06,19.16-13.06,27.84-20.76,3.27-2.89-1.53-7.67-4.79-4.79-80.38,71.25-201.85,57.61-300.59,49.11-127.09-10.94-253.23-31.05-378.37-55.47-61.46-11.99-122.58-25.56-184.13-37.1-58.11-10.9-116.44-21.37-173.03-38.78-52.71-16.21-103.43-37.71-153.15-61.43-46.98-22.41-93.22-46.12-142.1-64.27-106.84-39.68-224.42-57.02-335.8-25.9-14.67,4.1-29.07,9.02-43.24,14.59-4,1.57-2.25,8.12,1.81,6.52h0Z"/>
    <path class="st29" d="M-220.25,857.27c113.28-41.96,235.55-32.31,348.07,7.07,102.65,35.93,192.13,99.26,292.73,139.83,55.34,22.32,112.79,36.71,171.09,48.9,61.71,12.91,123.3,26.34,184.97,39.42,124.9,26.48,250.82,48.7,377.8,62.43,55.87,6.04,112.5,12.15,168.78,10.66,48.58-1.29,98.7-9.2,141.07-34.37,10.35-6.15,20.01-13.31,29.06-21.24,3.25-2.85-1.5-7.57-4.74-4.74-81.59,71.49-204.82,55.72-304.22,46.06-128.18-12.45-255.32-33.99-381.37-60.11-61.53-12.75-122.76-26.79-184.32-39.37-58.15-11.88-116.22-24.31-172.07-44.77-101.38-37.13-190.19-99.94-290.45-139.31-106.18-41.69-223.72-59.71-335.52-30.46-14.45,3.78-28.66,8.35-42.66,13.53-4.01,1.49-2.28,7.97,1.78,6.47h0Z"/>
    <path class="st10" d="M-222.85,838.15c113.34-39.51,235.13-29.1,346.61,11.5,53.04,19.32,102.74,45.39,151.05,74.38,45.89,27.54,91.5,55.6,140.01,78.38,53.9,25.31,110.27,42.37,168.14,55.91,61.53,14.4,123.25,28.24,184.91,42.1,125.21,28.14,251.56,51.7,379.04,66.92,56.93,6.8,114.65,13.73,172.08,12.91,49.04-.7,99.77-8.06,142.72-33.18,10.39-6.07,20.08-13.17,29.17-21.05,3.23-2.8-1.48-7.47-4.69-4.69-40.16,34.79-92.4,48.23-144.43,51.44-54.99,3.4-110.45-2.73-165.05-8.67-128.13-13.94-255.16-36.71-381.01-64.3-62.11-13.62-124.01-28.25-186.05-42.18-58.8-13.2-117.02-28.15-172.41-52.3-99.21-43.25-185.2-110.92-285.52-151.94-104.82-42.86-221.35-61.38-332.69-34.55-14.76,3.56-29.3,7.92-43.64,12.91-4.01,1.41-2.29,7.82,1.76,6.41h0Z"/>
    <path class="st20" d="M-225.46,819.03c113.29-37.14,234.51-26.04,344.98,15.47,53.12,19.96,103.21,46.67,150.78,77.48,45.13,29.23,89.18,60.16,136.4,86.02,51.75,28.34,106.31,48.69,163.24,63.89,61.74,16.49,124.21,30.79,186.37,45.61,126.26,30.11,253.8,55.26,382.54,72.1,58.16,7.61,117.16,15.43,175.92,15.31,49.49-.1,100.85-6.91,144.38-31.96,10.43-6,20.16-13.04,29.29-20.86,3.21-2.75-1.45-7.37-4.64-4.64-40.75,34.89-93.69,47.75-146.21,50.33-55.78,2.74-111.93-4.17-167.22-10.8-129.98-15.58-258.79-40.03-386.25-69.68-62.23-14.48-124.4-29.53-186.38-45.03-58.6-14.66-115.65-32.69-169.56-60.32-48.52-24.87-93.57-55.53-139.02-85.48-45.33-29.87-92.04-56.95-142.15-78.05-104.09-43.8-220.05-62.72-331.33-37.63-14.48,3.27-28.77,7.28-42.88,11.91-3.99,1.31-2.28,7.65,1.74,6.33h0Z"/>
    <path class="st40" d="M-228.06,799.91c113.5-34.95,234.45-23.03,344.22,19.41,53.75,20.78,104.69,48.54,152.11,81.22,44.77,30.84,87.59,64.45,133.73,93.29,50.11,31.32,103.33,55.03,159.86,72.16,61.25,18.56,123.82,33.41,185.86,49.07,127.84,32.26,257.16,59.03,387.76,77.37,57.44,8.06,115.63,16.38,173.72,17.11,49.95.63,101.97-5.37,146.27-30.07,10.88-6.07,21.02-13.26,30.53-21.3,3.19-2.7-1.42-7.27-4.59-4.59-41.33,34.98-95,47.28-148,49.2-56.99,2.07-114.27-5.74-170.64-13.14-130.46-17.13-259.7-42.96-387.43-74.39-61.66-15.17-123.43-30.61-184.6-47.65-58.91-16.41-115.24-37.71-168.06-68.81-47.38-27.89-90.98-61.38-135.77-93.11-45.72-32.39-93.89-60.88-145.46-83-103.11-44.22-218.06-63.31-328.83-40.07-14.31,3-28.44,6.73-42.41,11.03-3.97,1.24-2.27,7.5,1.73,6.27h0Z"/>
    <path class="st22" d="M-230.66,780.79c113.62-32.83,234.21-20.14,343.31,23.01,53.56,21.18,104.33,49.41,151.2,82.82,44.92,32.02,86.64,68.29,131.61,100.25,48.26,34.3,99.77,62.04,155.72,81.58,60.44,21.12,123.04,36.59,184.85,53.13,128.55,34.4,258.8,62.78,390.39,82.79,58.57,8.91,117.91,18.1,177.22,19.72,50.82,1.38,103.98-3.91,149.28-28.75,10.92-5.99,21.1-13.12,30.65-21.11,3.17-2.65-1.39-7.17-4.54-4.54-42.29,35.39-97.21,46.94-151.13,48.08-58.54,1.24-117.33-7.62-175.12-15.93-130.65-18.79-260.02-45.98-387.73-79.23-62.03-16.15-124.45-32.22-185.58-51.53-58.64-18.52-113.32-43.88-164.32-78.34-45.57-30.8-87.43-66.53-131.42-99.47-44.99-33.69-93.37-62.72-144.84-85.4-102.54-45.17-217.17-65.01-328.07-43.7-14.56,2.8-28.96,6.32-43.2,10.44-3.95,1.14-2.26,7.33,1.72,6.18h0Z"/>
    <path class="st33" d="M-233.26,761.67c113.82-30.82,234.15-17.31,342.72,26.47,53.38,21.53,103.91,50.14,150.36,84.08,46.28,33.82,88.04,73.33,132.96,108.86,45.99,36.37,95.09,67.52,149.62,89.45,59.49,23.93,122.06,40.3,183.68,57.76,129.23,36.61,260.4,66.56,392.97,88.19,59.14,9.65,119.07,19.62,179.02,22.11,51.69,2.15,105.99-2.39,152.3-27.37,10.96-5.91,21.18-12.98,30.77-20.91,3.15-2.61-1.36-7.08-4.49-4.49-42.89,35.48-98.54,46.4-152.93,46.87-59.19.51-118.48-9.16-176.8-18.17-131.66-20.35-261.99-49.02-390.43-84.33-62.41-17.16-125.46-34.03-186.41-55.91-58.06-20.84-110.87-50.27-159.9-87.64-44.95-34.27-86.21-73.07-130.9-107.65-44.38-34.34-92.7-63.67-143.92-86.64-102.21-45.85-216.68-66.16-327.74-46.38-14.33,2.55-28.52,5.8-42.57,9.6-3.94,1.05-2.27,7.17,1.69,6.1h0Z"/>
    <path class="st23" d="M-235.86,742.55c114.07-28.91,234.26-14.57,342.41,29.82,53.66,22.02,104.38,51.25,150.8,85.99,46.33,34.66,87.26,75.73,130.68,113.83,44.71,39.24,92.43,74.8,146.67,99.8,58.18,26.81,120.34,44.4,181.56,62.75,129.83,38.94,261.92,70.47,395.46,93.73,59.7,10.4,120.18,21.14,180.78,24.53,52.56,2.94,107.99-.81,155.32-25.92,11-5.84,21.25-12.84,30.89-20.72,3.13-2.56-1.34-6.98-4.44-4.44-43.5,35.56-99.88,45.85-154.74,45.64-60.36-.23-120.71-10.87-180.08-20.72-133.19-22.08-264.98-52.45-394.6-90.2-62.19-18.11-125.26-35.83-185.2-60.58-57.46-23.73-108.26-57.81-155.38-98.09-43.16-36.9-83.18-77.43-127.73-112.71-44.39-35.15-92.88-65.14-144.41-88.62-102-46.47-216.39-67.29-327.68-48.98-14.12,2.32-28.11,5.3-41.98,8.82-3.92,1.01-2.26,7.07,1.67,6.07h0Z"/>
    <path class="st42" d="M-238.46,723.44c114.84-27.18,235.45-11.76,343.63,33.61,53.48,22.43,104,52.03,150.09,87.21,46.84,35.76,87.52,78.39,129.9,119.12,43,41.31,88.53,80.43,141.39,108.65,55.84,29.82,116.78,48.78,176.87,67.92,130.87,41.67,264.35,75.07,399.38,100.14,60.79,11.29,122.35,22.93,184.1,27.28,53.01,3.73,109.06.86,157.21-23.83,11.47-5.88,22.14-13.02,32.15-21.11,3.11-2.51-1.31-6.88-4.39-4.39-44.48,35.94-102.16,45.43-157.9,44.36-61.6-1.19-123.1-12.85-183.59-23.58-134.15-23.81-266.84-55.82-397.03-95.98-62.39-19.25-125.86-38.23-184.83-66.62-55.38-26.66-103.14-64.51-147.67-106.47-42.06-39.63-81.61-82.05-126.64-118.43-44.07-35.6-92.38-65.98-143.78-89.84-101.79-47.26-216.11-68.9-327.73-52.32-14.39,2.14-28.66,4.94-42.82,8.29-3.88.92-2.24,6.91,1.66,5.99h0Z"/>
    <path class="st24" d="M-241.06,704.32c115.34-25.46,236.26-9.13,344.3,37.03,53.78,22.98,104.59,53.07,150.72,89,46.74,36.4,86.93,79.66,127.84,122.28,41.62,43.36,84.95,85.82,136.24,117.73,54.48,33.89,115.67,55.27,176.17,75.61,131.28,44.13,265.42,79.42,401.33,106.07,61.75,12.11,124.32,24.62,187.12,29.81,53.45,4.42,110.12,2.18,158.89-22.42,11.51-5.8,22.22-12.88,32.28-20.91,3.09-2.47-1.28-6.78-4.34-4.34-45.48,36.33-104.44,45.01-161.08,43.07-62.24-2.13-124.37-14.7-185.42-26.17-134.58-25.29-267.64-58.87-397.84-101.31-62.27-20.29-125.52-40.82-183.12-72.49-54.7-30.08-100.65-72.12-143.93-116.59-41.02-42.14-80.31-86.1-125.87-123.52-43.82-35.99-92-66.72-143.29-90.94-102.05-48.21-216.94-70.73-329.34-55.41-14.2,1.93-28.3,4.49-42.29,7.58-3.86.85-2.23,6.77,1.63,5.92h0Z"/>
    <path class="st5" d="M-243.67,685.2c116.21-23.86,237.64-6.41,345.88,40.7,53.67,23.36,104.35,53.76,150.28,90.03,47.28,37.35,87.58,81.61,127.66,126.36,40.23,44.92,81.2,89.86,130.37,125.25,52.85,38.03,113.83,62.46,174.78,84.22,130.93,46.73,265.34,83.37,401.43,111.63,62.81,13.04,126.41,26.5,190.33,32.68,53.85,5.21,111.21,3.95,160.77-20.22,11.97-5.84,23.11-13.03,33.56-21.28,3.06-2.42-1.26-6.69-4.29-4.29-46.12,36.4-105.82,44.34-162.9,41.69-63.36-2.95-126.5-16.53-188.55-28.89-136.05-27.1-270.55-62.39-401.7-107.69-62.13-21.46-124.91-44.13-180.6-79.69-52.55-33.55-95.86-78.8-137.35-124.83-40.06-44.45-79.31-89.66-125.43-128.05-43.99-36.63-92.49-67.86-144.16-92.52-102.18-48.75-217.56-72.06-330.44-57.81-13.84,1.75-27.59,4.05-41.26,6.86-3.81.78-2.2,6.63,1.62,5.85h0Z"/>
    <path d="M-246.27,666.06c116.67-22.24,238.17-3.86,346.37,43.76,54.05,23.79,105.07,54.67,151.21,91.55,47.81,38.21,88.37,83.32,127.72,129.96,39.92,47.32,79.58,95.63,127.94,134.72,49.73,40.19,107.79,67.37,167.12,90.2,131,50.4,266.89,88.32,403.91,118.34,63.4,13.89,127.55,28.17,192.12,35.46,55.13,6.22,114.08,6.04,165.15-18.37,12.02-5.75,23.19-12.87,33.68-21.06,3.02-2.35-1.22-6.54-4.21-4.21-47.13,36.78-108.16,43.77-166.1,40.21-64.55-3.97-128.76-18.61-191.89-31.92-136.42-28.77-271.31-65.5-402.3-113.41-62.13-22.72-124.26-48.19-177.91-87.6-50.68-37.22-91.8-85.45-132.09-133.26-38.92-46.18-77.98-92.1-124.25-131.2-44.14-37.3-92.91-69.12-144.93-94.31-102.57-49.65-218.59-73.88-332.34-60.85-13.67,1.57-27.27,3.67-40.79,6.24-3.76.72-2.16,6.46,1.59,5.75h0Z"/>
  </g>
</svg>