<?xml version="1.0" encoding="UTF-8"?>
<svg id="Layer_1" xmlns="http://www.w3.org/2000/svg" version="1.1" viewBox="0 0 1080 1350">
  <!-- Generator: Adobe Illustrator 29.6.1, SVG Export Plug-In . SVG Version: 2.1.1 Build 9)  -->
  <defs>
    <style>
      .st0 {
        stroke: #fff;
        stroke-miterlimit: 10;
        stroke-width: 8px;
      }

      .st0, .st1 {
        fill: #fcfcff;
      }

      .st2 {
        fill: #fff;
      }

      .st3 {
        fill: #231f20;
      }

      .st4 {
        fill: #0d0d0d;
      }
    </style>
  </defs>
  <rect class="st3" x="-34" y="-28" width="1129" height="1395"/>
  <rect class="st4" width="1080" height="1358"/>
  <g>
    <path class="st1" d="M115.91,709.73v-51.47h8.37v43.98h18.7v7.49h-27.07Z"/>
    <path class="st1" d="M199.97,684.1c0,3.66-.69,7.11-2.06,10.37s-3.37,6.17-5.99,8.72c-2.65,2.55-5.64,4.51-8.96,5.87-3.33,1.36-6.82,2.04-10.48,2.04s-7.24-.69-10.6-2.06-6.33-3.32-8.91-5.85c-2.62-2.55-4.62-5.45-5.98-8.68s-2.04-6.7-2.04-10.41.68-7.15,2.04-10.41c1.36-3.26,3.35-6.18,5.98-8.75,2.62-2.55,5.6-4.5,8.93-5.84s6.86-2,10.58-2,7.21.67,10.53,2c3.32,1.34,6.29,3.28,8.91,5.84,2.62,2.6,4.62,5.54,5.99,8.81s2.06,6.72,2.06,10.35ZM191.25,684.1c0-2.6-.47-5.07-1.42-7.42-.95-2.34-2.31-4.43-4.1-6.26-1.73-1.8-3.74-3.19-6.03-4.17-2.29-.97-4.69-1.46-7.22-1.46s-4.94.48-7.22,1.44c-2.29.96-4.32,2.36-6.1,4.18-1.78,1.81-3.14,3.88-4.08,6.22-.94,2.34-1.41,4.83-1.41,7.45s.47,5.06,1.41,7.38,2.3,4.39,4.08,6.22c1.78,1.83,3.81,3.22,6.08,4.18s4.69,1.44,7.24,1.44,4.89-.48,7.15-1.44,4.29-2.36,6.1-4.18c1.78-1.83,3.15-3.91,4.1-6.24.95-2.31,1.42-4.76,1.42-7.34Z"/>
    <path class="st1" d="M217.41,686.7v23.03h-7.84v-51.47h11.67c3.42,0,6.08.22,7.96.67,1.89.45,3.5,1.18,4.83,2.21,1.59,1.24,2.82,2.85,3.69,4.82.87,1.97,1.3,4.13,1.3,6.47,0,4.13-1,7.35-2.99,9.69-1.99,2.33-4.93,3.73-8.82,4.2l17.72,23.41h-9.46l-17.12-23.03h-.94ZM217.93,680.2h1.51c4.43,0,7.37-.51,8.82-1.55,1.45-1.03,2.18-2.86,2.18-5.48,0-2.84-.78-4.83-2.34-5.99s-4.45-1.74-8.67-1.74h-1.51v14.76h.01Z"/>
    <path class="st1" d="M249.89,709.73v-51.47h28.72v7.1h-20.36v12.9h20.36v7.35h-20.36v16.63h20.36v7.49h-28.72Z"/>
    <path class="st1" d="M330.19,684.31c-.09-.4-.25-1.5-.46-3.3-.19-1.5-.35-2.74-.49-3.73-.21,1.17-.51,2.34-.9,3.52-.39,1.17-.87,2.37-1.46,3.59l-13.46,27.42-13.46-27.98c-.56-1.15-1.05-2.26-1.46-3.34s-.77-2.14-1.07-3.2c-.02,1.08-.11,2.21-.26,3.39-.15,1.18-.38,2.42-.69,3.71l-5.52,25.35h-7.7l12.16-53.65,15.19,32.48c.23.52.59,1.37,1.07,2.57s1.06,2.67,1.74,4.43c.49-1.48,1.27-3.35,2.32-5.62.28-.61.49-1.08.63-1.41l14.84-32.45,12.45,53.65h-7.77l-5.7-25.43Z"/>
    <path class="st1" d="M372.2,709.73v-51.47h8.37v51.47h-8.37Z"/>
    <path class="st1" d="M400.43,686.63v23.1h-7.84v-51.47h12.66c3.75,0,6.51.21,8.28.62s3.31,1.08,4.62,2.02c1.62,1.2,2.88,2.81,3.8,4.83.91,2.03,1.37,4.26,1.37,6.7s-.46,4.69-1.37,6.75-2.18,3.68-3.8,4.85c-1.31.94-2.85,1.61-4.62,2-1.77.4-4.53.6-8.28.6h-4.82ZM400.96,679.77h2.14c4.64,0,7.73-.5,9.28-1.51s2.32-2.79,2.32-5.34c0-2.74-.83-4.68-2.48-5.8s-4.69-1.69-9.12-1.69h-2.14v14.34Z"/>
    <path class="st1" d="M427.96,699.43l6.68-3.09c.63,2.3,1.79,4.05,3.48,5.26s3.84,1.81,6.47,1.81c2.48,0,4.46-.69,5.92-2.07,1.46-1.38,2.2-3.23,2.2-5.55,0-3.02-2.51-5.72-7.52-8.09-.7-.35-1.24-.61-1.62-.77-5.67-2.76-9.45-5.27-11.34-7.51-1.89-2.24-2.83-4.97-2.83-8.21,0-4.2,1.42-7.59,4.27-10.2s6.58-3.9,11.2-3.9c3.8,0,6.97.73,9.53,2.2,2.55,1.46,4.32,3.57,5.31,6.31l-6.54,3.38c-1.03-1.62-2.16-2.8-3.39-3.55s-2.64-1.12-4.24-1.12c-2.25,0-4.04.59-5.36,1.76-1.32,1.17-1.99,2.74-1.99,4.71,0,3.09,2.91,5.98,8.72,8.65.44.21.8.38,1.05.49,5.09,2.34,8.58,4.64,10.48,6.87,1.9,2.24,2.85,5.03,2.85,8.38,0,4.88-1.54,8.75-4.61,11.62-3.07,2.87-7.22,4.31-12.45,4.31-4.38,0-7.98-1.01-10.78-3.02-2.79-2.04-4.63-4.92-5.49-8.67Z"/>
    <path class="st1" d="M470.21,658.26h8.26v31.25c0,4.64,1.07,8.13,3.22,10.46,2.14,2.33,5.35,3.5,9.62,3.5s7.44-1.17,9.58-3.5c2.14-2.33,3.22-5.82,3.22-10.46v-31.25h8.37v32.03c0,6.96-1.76,12.17-5.27,15.63-3.52,3.46-8.81,5.19-15.89,5.19s-12.36-1.72-15.86-5.17c-3.49-3.45-5.24-8.66-5.24-15.64v-32.04h-.01Z"/>
    <path class="st1" d="M565.98,684.31c-.09-.4-.25-1.5-.46-3.3-.19-1.5-.35-2.74-.49-3.73-.21,1.17-.51,2.34-.9,3.52-.39,1.17-.87,2.37-1.46,3.59l-13.46,27.42-13.47-27.98c-.56-1.15-1.05-2.26-1.46-3.34-.41-1.08-.77-2.14-1.07-3.2-.02,1.08-.11,2.21-.26,3.39s-.38,2.42-.69,3.71l-5.52,25.35h-7.7l12.16-53.65,15.19,32.48c.23.52.59,1.37,1.07,2.57s1.06,2.67,1.74,4.43c.49-1.48,1.27-3.35,2.32-5.62.28-.61.49-1.08.63-1.41l14.85-32.46,12.45,53.65h-7.77l-5.7-25.42Z"/>
    <path class="st1" d="M607.85,709.73v-51.47h11.29c7.34,0,12.5.37,15.49,1.11s5.61,1.97,7.86,3.71c2.98,2.27,5.23,5.19,6.77,8.75,1.54,3.56,2.3,7.63,2.3,12.2s-.77,8.62-2.3,12.15c-1.54,3.53-3.79,6.44-6.77,8.74-2.25,1.74-4.81,2.97-7.68,3.71s-7.34,1.11-13.41,1.11h-13.55ZM616.22,702.17h7.03c3.87,0,6.77-.26,8.7-.77s3.62-1.38,5.04-2.6c1.95-1.66,3.4-3.73,4.38-6.21.97-2.47,1.46-5.35,1.46-8.63s-.49-6.16-1.46-8.63c-.97-2.47-2.43-4.54-4.38-6.21-1.45-1.22-3.19-2.09-5.22-2.6-2.03-.52-5.2-.77-9.51-.77h-6.04v36.42Z"/>
    <path class="st1" d="M713.92,684.1c0,3.66-.69,7.11-2.06,10.37s-3.37,6.17-5.99,8.72c-2.65,2.55-5.64,4.51-8.96,5.87s-6.82,2.04-10.48,2.04-7.24-.69-10.6-2.06-6.33-3.32-8.91-5.85c-2.62-2.55-4.62-5.45-5.98-8.68s-2.04-6.7-2.04-10.41.68-7.15,2.04-10.41c1.36-3.26,3.35-6.18,5.98-8.75,2.62-2.55,5.6-4.5,8.93-5.84s6.86-2,10.58-2,7.21.67,10.53,2,6.29,3.28,8.91,5.84c2.62,2.6,4.62,5.54,5.99,8.81s2.06,6.72,2.06,10.35ZM705.2,684.1c0-2.6-.47-5.07-1.42-7.42-.95-2.34-2.31-4.43-4.1-6.26-1.73-1.8-3.74-3.19-6.03-4.17-2.29-.97-4.69-1.46-7.22-1.46s-4.94.48-7.22,1.44c-2.29.96-4.32,2.36-6.1,4.18-1.78,1.81-3.14,3.88-4.08,6.22-.94,2.34-1.41,4.83-1.41,7.45s.47,5.06,1.41,7.38,2.3,4.39,4.08,6.22,3.81,3.22,6.08,4.18,4.69,1.44,7.24,1.44,4.89-.48,7.15-1.44,4.29-2.36,6.1-4.18c1.78-1.83,3.15-3.91,4.1-6.24.94-2.31,1.42-4.76,1.42-7.34Z"/>
    <path class="st1" d="M723.52,709.73v-51.47h8.37v43.98h18.7v7.49h-27.07Z"/>
    <path class="st1" d="M807.57,684.1c0,3.66-.69,7.11-2.06,10.37s-3.37,6.17-5.99,8.72c-2.65,2.55-5.64,4.51-8.96,5.87s-6.82,2.04-10.48,2.04-7.24-.69-10.6-2.06-6.33-3.32-8.91-5.85c-2.62-2.55-4.62-5.45-5.98-8.68s-2.04-6.7-2.04-10.41.68-7.15,2.04-10.41c1.36-3.26,3.35-6.18,5.98-8.75,2.62-2.55,5.6-4.5,8.93-5.84s6.86-2,10.58-2,7.21.67,10.53,2,6.29,3.28,8.91,5.84c2.62,2.6,4.62,5.54,5.99,8.81s2.06,6.72,2.06,10.35ZM798.86,684.1c0-2.6-.47-5.07-1.42-7.42-.95-2.34-2.31-4.43-4.1-6.26-1.73-1.8-3.74-3.19-6.03-4.17-2.29-.97-4.69-1.46-7.22-1.46s-4.94.48-7.22,1.44c-2.29.96-4.32,2.36-6.1,4.18-1.78,1.81-3.14,3.88-4.08,6.22-.94,2.34-1.41,4.83-1.41,7.45s.47,5.06,1.41,7.38,2.3,4.39,4.08,6.22,3.81,3.22,6.08,4.18,4.69,1.44,7.24,1.44,4.89-.48,7.15-1.44,4.29-2.36,6.1-4.18c1.78-1.83,3.15-3.91,4.1-6.24.94-2.31,1.42-4.76,1.42-7.34Z"/>
    <path class="st1" d="M825.01,686.7v23.03h-7.84v-51.47h11.67c3.42,0,6.08.22,7.96.67,1.89.45,3.5,1.18,4.83,2.21,1.59,1.24,2.82,2.85,3.69,4.82s1.3,4.13,1.3,6.47c0,4.13-1,7.35-2.99,9.69-1.99,2.33-4.93,3.73-8.82,4.2l17.72,23.41h-9.46l-17.12-23.03h-.94ZM825.54,680.2h1.51c4.43,0,7.37-.51,8.82-1.55,1.45-1.03,2.18-2.86,2.18-5.48,0-2.84-.78-4.83-2.34-5.99s-4.45-1.74-8.67-1.74h-1.51v14.76h.01Z"/>
    <path class="st1" d="M876.27,699.43l6.68-3.09c.63,2.3,1.79,4.05,3.48,5.26s3.84,1.81,6.47,1.81c2.48,0,4.46-.69,5.92-2.07,1.46-1.38,2.2-3.23,2.2-5.55,0-3.02-2.51-5.72-7.52-8.09-.7-.35-1.24-.61-1.62-.77-5.67-2.76-9.45-5.27-11.34-7.51s-2.83-4.97-2.83-8.21c0-4.2,1.42-7.59,4.27-10.2s6.58-3.9,11.2-3.9c3.8,0,6.97.73,9.53,2.2,2.55,1.46,4.32,3.57,5.31,6.31l-6.54,3.38c-1.03-1.62-2.16-2.8-3.39-3.55-1.23-.75-2.64-1.12-4.24-1.12-2.25,0-4.04.59-5.36,1.76s-1.99,2.74-1.99,4.71c0,3.09,2.91,5.98,8.72,8.65.45.21.8.38,1.05.49,5.09,2.34,8.58,4.64,10.48,6.87,1.9,2.24,2.85,5.03,2.85,8.38,0,4.88-1.54,8.75-4.61,11.62s-7.22,4.31-12.45,4.31c-4.38,0-7.97-1.01-10.78-3.02s-4.62-4.92-5.49-8.67Z"/>
    <path class="st1" d="M918.88,709.73v-51.47h8.37v51.47h-8.37Z"/>
    <path class="st1" d="M955.9,665.36v44.37h-8.37v-44.37h-13.68v-7.1h35.65v7.1h-13.6Z"/>
    <path class="st1" d="M197.84,796.13l-5.84-13.25h-20.39l-5.98,13.25h-8.79l24.93-53.51,24.89,53.51h-8.82ZM174.71,775.91h14.34l-5.27-11.74c-.3-.75-.62-1.61-.95-2.58-.33-.97-.66-2.06-.98-3.25-.28,1.12-.58,2.17-.9,3.15s-.64,1.87-.97,2.69l-5.27,11.73Z"/>
    <path class="st1" d="M253.49,770.71c-.09-.4-.25-1.5-.46-3.3-.19-1.5-.35-2.74-.49-3.73-.21,1.17-.51,2.34-.9,3.52s-.87,2.37-1.46,3.59l-13.46,27.42-13.46-27.98c-.56-1.15-1.05-2.26-1.46-3.34s-.77-2.14-1.07-3.2c-.02,1.08-.11,2.21-.26,3.39s-.38,2.42-.69,3.71l-5.52,25.35h-7.7l12.16-53.65,15.19,32.48c.23.52.59,1.37,1.07,2.57.48,1.2,1.06,2.67,1.74,4.43.49-1.48,1.27-3.35,2.32-5.62.28-.61.49-1.08.63-1.41l14.84-32.45,12.45,53.65h-7.77l-5.7-25.43Z"/>
    <path class="st1" d="M273.64,796.13v-51.47h28.72v7.1h-20.36v12.9h20.36v7.35h-20.36v16.63h20.36v7.49h-28.72Z"/>
    <path class="st1" d="M328.59,751.76v44.37h-8.37v-44.37h-13.68v-7.1h35.65v7.1h-13.6Z"/>
    <path class="st1" d="M344.27,787.41l6.86,2.53-9.14,18.84-4.54-1.79,6.82-19.58Z"/>
    <path class="st1" d="M424.07,757.17c-2.37-2.02-4.87-3.53-7.51-4.54s-5.41-1.51-8.31-1.51c-5.62,0-10.2,1.8-13.73,5.41s-5.29,8.29-5.29,14.03,1.72,10.14,5.15,13.75,7.76,5.41,12.99,5.41c3.05,0,5.95-.54,8.7-1.62s5.4-2.71,7.93-4.89v9.46c-2.25,1.62-4.7,2.82-7.35,3.62s-5.52,1.2-8.61,1.2c-3.94,0-7.58-.64-10.92-1.93s-6.28-3.19-8.81-5.7c-2.51-2.46-4.44-5.36-5.78-8.7-1.35-3.34-2.02-6.9-2.02-10.67s.67-7.32,2.02-10.63c1.35-3.32,3.3-6.23,5.85-8.74,2.55-2.53,5.48-4.45,8.79-5.75s6.88-1.95,10.72-1.95c3.02,0,5.91.44,8.65,1.32s5.4,2.21,7.98,3.99l-.45,8.44Z"/>
    <path class="st1" d="M487.21,770.5c0,3.66-.69,7.11-2.06,10.37s-3.37,6.16-5.99,8.72c-2.65,2.55-5.64,4.51-8.96,5.87-3.33,1.36-6.82,2.04-10.48,2.04s-7.24-.69-10.6-2.06c-3.36-1.37-6.33-3.32-8.91-5.85-2.62-2.55-4.62-5.45-5.98-8.68-1.36-3.23-2.04-6.7-2.04-10.41s.68-7.15,2.04-10.41c1.36-3.26,3.35-6.18,5.98-8.75,2.62-2.55,5.6-4.5,8.93-5.84s6.86-2,10.58-2,7.21.67,10.53,2c3.32,1.34,6.29,3.28,8.91,5.84,2.62,2.6,4.62,5.54,5.99,8.81s2.06,6.72,2.06,10.35ZM478.49,770.5c0-2.6-.47-5.07-1.42-7.42s-2.31-4.43-4.1-6.26c-1.73-1.8-3.74-3.19-6.03-4.17s-4.69-1.46-7.22-1.46-4.94.48-7.22,1.44-4.32,2.36-6.1,4.18c-1.78,1.8-3.14,3.88-4.08,6.22-.94,2.34-1.41,4.83-1.41,7.45s.47,5.06,1.41,7.38,2.3,4.39,4.08,6.22c1.78,1.83,3.81,3.22,6.08,4.18s4.69,1.44,7.24,1.44,4.89-.48,7.15-1.44c2.26-.96,4.29-2.36,6.1-4.18,1.78-1.83,3.15-3.91,4.1-6.24s1.42-4.76,1.42-7.34Z"/>
    <path class="st1" d="M496.81,796.13v-53.51l32.69,31.46c.89.89,1.79,1.84,2.71,2.85s1.88,2.14,2.88,3.41v-35.68h7.73v53.47l-33.36-32.03c-.89-.87-1.75-1.78-2.58-2.74-.83-.96-1.62-1.97-2.37-3.02v35.79h-7.7Z"/>
    <path class="st1" d="M551.69,785.83l6.68-3.09c.63,2.3,1.79,4.05,3.48,5.26s3.84,1.81,6.47,1.81c2.48,0,4.46-.69,5.92-2.07s2.2-3.23,2.2-5.55c0-3.02-2.51-5.72-7.52-8.09-.7-.35-1.24-.61-1.62-.77-5.67-2.77-9.45-5.27-11.34-7.51s-2.83-4.97-2.83-8.21c0-4.2,1.42-7.59,4.27-10.2s6.58-3.9,11.2-3.9c3.8,0,6.97.73,9.53,2.2s4.32,3.57,5.31,6.31l-6.54,3.38c-1.03-1.62-2.16-2.8-3.39-3.55s-2.64-1.12-4.24-1.12c-2.25,0-4.04.59-5.36,1.76s-1.99,2.74-1.99,4.71c0,3.09,2.91,5.98,8.72,8.65.45.21.8.38,1.05.49,5.09,2.34,8.58,4.63,10.48,6.87s2.85,5.03,2.85,8.38c0,4.88-1.54,8.75-4.61,11.62s-7.22,4.31-12.45,4.31c-4.38,0-7.97-1.01-10.78-3.02s-4.62-4.92-5.49-8.67Z"/>
    <path class="st1" d="M594.16,796.13v-51.47h28.72v7.1h-20.36v12.9h20.36v7.35h-20.36v16.63h20.36v7.49h-28.72Z"/>
    <path class="st1" d="M673.79,757.17c-2.37-2.02-4.87-3.53-7.51-4.54s-5.41-1.51-8.31-1.51c-5.62,0-10.2,1.8-13.73,5.41s-5.29,8.29-5.29,14.03,1.72,10.14,5.15,13.75,7.76,5.41,12.99,5.41c3.05,0,5.95-.54,8.7-1.62s5.4-2.71,7.93-4.89v9.46c-2.25,1.62-4.7,2.82-7.35,3.62s-5.52,1.2-8.61,1.2c-3.94,0-7.58-.64-10.92-1.93s-6.28-3.19-8.81-5.7c-2.51-2.46-4.44-5.36-5.78-8.7s-2.02-6.9-2.02-10.67.67-7.32,2.02-10.63,3.3-6.23,5.85-8.74c2.55-2.53,5.48-4.45,8.79-5.75s6.88-1.95,10.72-1.95c3.02,0,5.91.44,8.65,1.32s5.4,2.21,7.98,3.99l-.45,8.44Z"/>
    <path class="st1" d="M700.79,751.76v44.37h-8.37v-44.37h-13.68v-7.1h35.65v7.1h-13.6Z"/>
    <path class="st1" d="M720.79,796.13v-51.47h28.72v7.1h-20.36v12.9h20.36v7.35h-20.36v16.63h20.36v7.49h-28.72Z"/>
    <path class="st1" d="M775.74,751.76v44.37h-8.37v-44.37h-13.67v-7.1h35.65v7.1h-13.61Z"/>
    <path class="st1" d="M795.53,744.66h8.26v31.25c0,4.64,1.07,8.13,3.22,10.46s5.35,3.5,9.62,3.5,7.44-1.17,9.58-3.5,3.22-5.82,3.22-10.46v-31.25h8.37v32.03c0,6.96-1.76,12.17-5.27,15.63s-8.81,5.19-15.89,5.19-12.36-1.72-15.86-5.17-5.24-8.66-5.24-15.64v-32.04h0Z"/>
    <path class="st1" d="M849.32,796.13v-51.47h28.72v7.1h-20.36v12.9h20.36v7.35h-20.36v16.63h20.36v7.49h-28.72Z"/>
    <path class="st1" d="M895.48,773.1v23.03h-7.84v-51.47h11.67c3.42,0,6.08.22,7.96.67s3.5,1.18,4.83,2.21c1.59,1.24,2.82,2.85,3.69,4.82s1.3,4.12,1.3,6.47c0,4.12-1,7.35-2.99,9.69s-4.93,3.73-8.82,4.2l17.72,23.41h-9.46l-17.12-23.03h-.94ZM896.01,766.6h1.51c4.43,0,7.37-.52,8.82-1.55s2.18-2.86,2.18-5.48c0-2.84-.78-4.83-2.34-5.99s-4.45-1.74-8.67-1.74h-1.51v14.76h.01Z"/>
    <path class="st1" d="M217.85,882.53l-5.84-13.25h-20.39l-5.98,13.25h-8.79l24.93-53.51,24.89,53.51h-8.82ZM194.71,862.31h14.34l-5.27-11.74c-.3-.75-.62-1.61-.95-2.58-.33-.97-.66-2.06-.98-3.25-.28,1.12-.58,2.17-.9,3.15s-.64,1.87-.97,2.69l-5.27,11.73Z"/>
    <path class="st1" d="M231.52,882.53v-51.47h11.29c7.34,0,12.5.37,15.49,1.11s5.61,1.97,7.86,3.71c2.98,2.27,5.23,5.19,6.77,8.75,1.53,3.56,2.3,7.63,2.3,12.2s-.77,8.62-2.3,12.15c-1.54,3.53-3.79,6.44-6.77,8.74-2.25,1.73-4.81,2.97-7.68,3.71-2.87.74-7.34,1.11-13.41,1.11h-13.55ZM239.89,874.97h7.03c3.87,0,6.77-.26,8.7-.77s3.62-1.38,5.04-2.6c1.95-1.66,3.4-3.73,4.38-6.21.97-2.47,1.46-5.35,1.46-8.63s-.49-6.16-1.46-8.63c-.97-2.47-2.43-4.54-4.38-6.21-1.45-1.22-3.19-2.09-5.22-2.6-2.03-.52-5.2-.77-9.51-.77h-6.04v36.42Z"/>
    <path class="st1" d="M284.96,882.53v-51.47h8.37v51.47h-8.37Z"/>
    <path class="st1" d="M313.19,859.43v23.1h-7.84v-51.47h12.66c3.75,0,6.51.21,8.28.62s3.31,1.08,4.62,2.02c1.62,1.2,2.88,2.81,3.8,4.83s1.37,4.26,1.37,6.7-.46,4.69-1.37,6.75-2.18,3.68-3.8,4.85c-1.31.94-2.85,1.61-4.62,2-1.77.4-4.53.6-8.28.6h-4.82ZM313.72,852.57h2.14c4.64,0,7.73-.5,9.28-1.51s2.32-2.79,2.32-5.34c0-2.74-.83-4.68-2.48-5.8s-4.69-1.69-9.12-1.69h-2.14v14.34Z"/>
    <path class="st1" d="M343.81,882.53v-51.47h8.37v51.47h-8.37Z"/>
    <path class="st1" d="M361.25,872.23l6.68-3.09c.63,2.3,1.79,4.05,3.48,5.26s3.84,1.81,6.47,1.81c2.48,0,4.46-.69,5.92-2.07,1.46-1.38,2.2-3.23,2.2-5.55,0-3.02-2.51-5.72-7.52-8.09-.7-.35-1.24-.61-1.62-.77-5.67-2.77-9.45-5.27-11.34-7.51-1.89-2.24-2.83-4.97-2.83-8.21,0-4.2,1.42-7.59,4.27-10.2s6.58-3.9,11.2-3.9c3.8,0,6.97.73,9.53,2.2,2.55,1.46,4.32,3.57,5.31,6.31l-6.54,3.38c-1.03-1.62-2.16-2.8-3.39-3.55s-2.64-1.12-4.24-1.12c-2.25,0-4.04.59-5.36,1.76-1.32,1.17-1.99,2.74-1.99,4.71,0,3.09,2.91,5.98,8.72,8.65.44.21.8.38,1.05.49,5.09,2.34,8.58,4.63,10.48,6.87s2.85,5.03,2.85,8.38c0,4.88-1.54,8.75-4.61,11.62-3.07,2.87-7.22,4.31-12.45,4.31-4.38,0-7.98-1.01-10.78-3.02-2.79-2.04-4.63-4.92-5.49-8.67Z"/>
    <path class="st1" d="M445.03,843.57c-2.37-2.02-4.87-3.53-7.51-4.54s-5.41-1.51-8.31-1.51c-5.62,0-10.2,1.8-13.73,5.41s-5.29,8.29-5.29,14.03,1.72,10.14,5.15,13.75,7.76,5.41,12.99,5.41c3.05,0,5.95-.54,8.7-1.62s5.4-2.71,7.93-4.89v9.46c-2.25,1.62-4.7,2.82-7.35,3.62s-5.52,1.2-8.61,1.2c-3.94,0-7.58-.64-10.92-1.93s-6.28-3.19-8.81-5.7c-2.51-2.46-4.44-5.36-5.78-8.7-1.35-3.34-2.02-6.9-2.02-10.67s.67-7.32,2.02-10.63c1.35-3.32,3.3-6.23,5.85-8.74,2.55-2.53,5.48-4.45,8.79-5.75s6.88-1.95,10.72-1.95c3.02,0,5.91.44,8.65,1.32s5.4,2.21,7.98,3.99l-.45,8.44Z"/>
    <path class="st1" d="M455.54,882.53v-51.47h8.37v51.47h-8.37Z"/>
    <path class="st1" d="M475.93,882.53v-53.51l32.7,31.46c.89.89,1.79,1.84,2.71,2.85.92,1.01,1.88,2.14,2.88,3.41v-35.68h7.73v53.47l-33.36-32.03c-.89-.87-1.75-1.78-2.58-2.74-.83-.96-1.62-1.97-2.37-3.02v35.79h-7.71Z"/>
    <path class="st1" d="M562.27,856.16h20.39c0,.35.01.84.04,1.48.07,1.66.11,2.79.11,3.38,0,7.24-2.07,12.87-6.22,16.88s-10,6.01-17.54,6.01c-4.22,0-7.98-.62-11.29-1.86s-6.2-3.12-8.68-5.62c-2.44-2.48-4.31-5.4-5.61-8.75s-1.95-6.94-1.95-10.76.66-7.48,1.99-10.76,3.29-6.18,5.89-8.68c2.51-2.46,5.45-4.34,8.82-5.62s6.98-1.93,10.83-1.93c4.05,0,7.68.74,10.88,2.21s6.05,3.74,8.56,6.79l-6.12,4.61c-1.73-2.02-3.69-3.52-5.87-4.5s-4.62-1.48-7.31-1.48c-5.58,0-10.13,1.79-13.66,5.36s-5.29,8.22-5.29,13.94,1.76,10.53,5.29,14.15,8.1,5.43,13.73,5.43c4.78,0,8.54-1.11,11.29-3.34s4.11-5.26,4.11-9.11v-.74h-12.38v-7.09h-.01Z"/>
    <path class="st1" d="M613.32,882.53v-51.47h28.72v7.1h-20.36v12.9h20.36v7.35h-20.36v16.63h20.36v7.49h-28.72Z"/>
    <path class="st1" d="M651.64,882.53v-51.47h8.37v43.98h18.7v7.49h-27.07Z"/>
    <path class="st1" d="M685.63,882.53v-51.47h8.37v51.47h-8.37Z"/>
    <path class="st1" d="M722.65,838.16v44.37h-8.37v-44.37h-13.68v-7.1h35.65v7.1h-13.6Z"/>
    <path class="st1" d="M738.33,873.81l6.86,2.53-9.14,18.84-4.54-1.79,6.82-19.58Z"/>
    <path class="st1" d="M773.88,872.23l6.68-3.09c.63,2.3,1.79,4.05,3.48,5.26s3.84,1.81,6.47,1.81c2.48,0,4.46-.69,5.92-2.07s2.2-3.23,2.2-5.55c0-3.02-2.51-5.72-7.52-8.09-.7-.35-1.24-.61-1.62-.77-5.67-2.77-9.45-5.27-11.34-7.51s-2.83-4.97-2.83-8.21c0-4.2,1.42-7.59,4.27-10.2s6.58-3.9,11.2-3.9c3.8,0,6.97.73,9.53,2.2s4.32,3.57,5.31,6.31l-6.54,3.38c-1.03-1.62-2.16-2.8-3.39-3.55s-2.64-1.12-4.24-1.12c-2.25,0-4.04.59-5.36,1.76s-1.99,2.74-1.99,4.71c0,3.09,2.91,5.98,8.72,8.65.45.21.8.38,1.05.49,5.09,2.34,8.58,4.63,10.48,6.87s2.85,5.03,2.85,8.38c0,4.88-1.54,8.75-4.61,11.62s-7.22,4.31-12.45,4.31c-4.38,0-7.97-1.01-10.78-3.02s-4.63-4.92-5.49-8.67Z"/>
    <path class="st1" d="M816.35,882.53v-51.47h28.72v7.1h-20.36v12.9h20.36v7.35h-20.36v16.63h20.36v7.49h-28.72Z"/>
    <path class="st1" d="M854.67,882.53v-51.47h11.29c7.34,0,12.5.37,15.49,1.11s5.61,1.97,7.86,3.71c2.98,2.27,5.23,5.19,6.77,8.75s2.3,7.63,2.3,12.2-.77,8.62-2.3,12.15-3.79,6.44-6.77,8.74c-2.25,1.73-4.81,2.97-7.68,3.71s-7.34,1.11-13.41,1.11h-13.55ZM863.03,874.97h7.03c3.87,0,6.77-.26,8.7-.77s3.62-1.38,5.04-2.6c1.95-1.66,3.4-3.73,4.38-6.21s1.46-5.35,1.46-8.63-.49-6.16-1.46-8.63-2.43-4.54-4.38-6.21c-1.45-1.22-3.19-2.09-5.22-2.6s-5.2-.77-9.51-.77h-6.04v36.42Z"/>
  </g>
  <path class="st0" d="M399.22,1148c-3.95,2.4-7.76,4.83-11.68,7.09-12.89,7.42-26.32,13.57-40.91,16.88-2.96.67-5.94,1-8.99.51-4.2-.67-7.02-3.03-8.67-6.87-2.11-4.9-2.06-10.03-1.44-15.18.96-7.94,3.95-15.21,7.65-22.22,7.56-14.33,17.01-27.4,26.97-40.11,10.58-13.52,22.27-26.01,34.92-37.61,14.18-13.02,29.41-24.67,45.63-35.03,15.42-9.86,31.54-18.37,48.6-25.04,11.68-4.56,23.63-8.15,36.09-9.84,4.5-.61,9.02-.74,13.53.08,10.29,1.88,15.96,9.12,15.36,19.58-.4,7.03-2.6,13.6-5.11,20.07-4.31,11.11-10.43,21.23-17.25,30.95-11.88,16.92-25.22,32.6-39.78,47.27-.19.19-.36.4-.64.72,3.35,1,6.56.81,9.77.22,6.06-1.11,11.5-3.87,17-6.48,3.74-1.77,7.5-3.54,11.34-5.09,1.49-.6,3.21-.77,4.85-.87,5.17-.32,9.03,2.37,10.63,7.31.44,1.35.79,2.72,1.2,4.07,1.45,4.72,4.41,6.72,9.22,5.52,3.53-.88,7.02-2.23,10.28-3.86,10.34-5.16,20.54-10.59,30.83-15.84,3.97-2.03,8.11-3.6,12.68-3.56,3.76.03,7.01,1.28,9.65,4.01.92.95,1.87,1.87,2.74,2.87,3.06,3.49,6.9,4.36,11.29,3.46,4.45-.9,8.43-2.98,12.45-4.95,14.4-7.05,28.77-14.17,43.22-21.12,2.34-1.12,4.98-1.82,7.56-2.19,5.42-.79,9.17,2.28,9.78,7.7.17,1.5.2,3.01.19,4.52-.01,4.27,1.89,7.54,5.28,9.96,5.6,3.99,11.87,4.8,18.2,2.57,5.93-2.1,11.59-4.98,17.37-7.53.39-.17.72-.47,1.11-.61.96-.35,1.81-.14,2.32.76.5.89.6,1.9-.33,2.55-5.98,4.18-11.78,8.71-19.15,10.36-6.78,1.51-13.39,1.48-19.69-1.87-2.97-1.58-5.39-3.8-7.26-6.6-1.85-2.78-2.88-5.8-2.71-9.2.07-1.45.05-2.94-.17-4.37-.39-2.59-1.84-3.73-4.44-3.44-1.43.16-2.91.51-4.22,1.1-4.59,2.09-9.12,4.3-13.65,6.52-10.93,5.36-21.81,10.8-32.76,16.09-4.63,2.24-9.35,4.31-14.59,4.69-5.33.39-9.84-1.3-13.44-5.3-.51-.56-1.05-1.09-1.54-1.66-3.02-3.54-6.9-4.54-11.12-3.06-4.39,1.54-8.69,3.42-12.84,5.52-8.21,4.14-16.22,8.68-24.45,12.77-3.6,1.79-7.5,3.04-11.37,4.19-1.74.51-3.77.41-5.61.16-4.57-.6-7.48-3.31-8.85-7.68-.47-1.48-.84-3-1.33-4.48-1.31-3.98-3.88-5.59-7.94-4.56-2.63.66-5.16,1.78-7.67,2.84-6.34,2.68-12.54,5.71-18.98,8.09-5.81,2.15-11.89,2.42-17.94.45-.45-.15-1.25.19-1.64.56-10.94,10.44-22.43,20.22-34.55,29.24-9.01,6.71-18.14,13.25-28.25,18.26-7.29,3.61-14.91,6.12-23.06,6.83-2.06.18-3.05-.49-3.25-2.57-.21-2.46-.29-4.95-.44-7.55ZM469.95,1088.89c.11.15.21.31.32.46,4.64.54,8.82,2.32,12.77,4.73,1.37.83,2.8,1.57,4.13,2.46,1.04.69,1.73.6,2.64-.31,13.02-13.04,25.12-26.88,36.08-41.7,7.56-10.22,14.72-20.69,19.8-32.41,2.97-6.85,5.65-13.8,6.33-21.34.81-9-3.5-14.81-12.45-16.12-3.36-.5-6.89-.46-10.28-.11-12.52,1.32-24.47,4.99-36.14,9.56-17.23,6.75-33.49,15.42-49.09,25.34-24.43,15.54-46.28,34.14-65.69,55.61-12.91,14.28-24.35,29.67-34.51,46.02-4.14,6.66-7.99,13.47-10.42,20.98-2.13,6.57-3.05,13.24-1.56,20.07,1.05,4.83,4.24,7.21,9.17,7,.94-.04,1.91-.06,2.81-.3,4.96-1.33,9.98-2.5,14.84-4.13,14.6-4.88,27.89-12.39,40.75-20.73.42-.27.69-.85.89-1.34,1.16-2.93,2.07-5.98,3.46-8.8,3.2-6.5,7.82-12,12.99-17.02,8.38-8.14,17.19-15.75,27.55-21.33,6.93-3.73,14.19-6.36,22.21-6.37.49,0,1.08-.31,1.45-.66,11.64-11.05,22.75-22.61,33.31-34.7.31-.35.6-.74.96-1.03.17-.14.65-.21.72-.11.16.22.24.58.18.85-.05.25-.31.46-.5.66-8.7,9.49-17.38,19-26.13,28.45-2.06,2.22-4.38,4.22-6.59,6.32ZM485.09,1100.73c-2.12-1.31-4.07-2.54-6.04-3.73-3.68-2.22-7.69-3.27-11.98-3.38-1.11-.03-1.93.27-2.76,1.04-5.55,5.19-11.07,10.41-16.75,15.45-13.31,11.81-27.2,22.92-41.69,33.27-.37.26-.85.6-.94.98-.7,2.85-.99,5.74-.7,8.79.57-.07,1.03-.11,1.49-.17,9.09-1.29,17.24-5.06,25.05-9.66,9.62-5.66,18.5-12.38,27.29-19.21,9.37-7.25,18.32-15,27.03-23.38ZM406.72,1138.69c.1.08.21.15.31.22,19.31-13.54,37.32-28.69,54.63-44.7-4.32.54-8.3,1.97-12.11,3.86-9.64,4.79-17.98,11.4-25.86,18.64-5.54,5.09-10.63,10.6-14.44,17.15-.92,1.57-1.69,3.22-2.53,4.83Z"/>
  <g>
    <g>
      <path class="st1" d="M469.84,196.45c-20.35-20.38-45.37-36.17-73.31-45.6h-.03c-10.47-3.57-21.32-6.22-32.53-7.88-8.73-1.32-17.69-2.02-26.8-2.09-.51-.02-1-.02-1.51-.02-31.79,0-61.81,7.84-88.16,21.72-17.04,8.93-32.56,20.37-46.03,33.87-34.33,34.3-55.6,81.82-55.6,134.19s21.26,99.89,55.6,134.19c34.3,34.33,81.82,55.6,134.19,55.6,5.28,0,10.5-.23,15.67-.63,9.82-.8,19.41-2.37,28.74-4.59,34.59-8.3,65.5-26.06,89.78-50.37,34.33-34.3,55.59-81.82,55.59-134.19s-21.27-99.9-55.6-134.2ZM372.73,173.67c-1.6-2.29-7.68-2.29-13.76-3.59-5.27-1.11-7.64-2.94-5.66-5.43,7.05.74,13.98,1.87,20.73,3.46,5.17,1.22,10.28,2.69,15.24,4.38.18.06.35.14.54.2-.64,2.37-1.26,4.4-2.37,5.2-.4.32-.85.43-1.43.38-5.36-.81-4.37,4.19-9.93,8.35-5.6,4.19-8.76-1.23-4.17-8.35,1.41-2.18,1.55-3.6.81-4.6ZM217.6,448.68c-30.23-30.26-48.9-71.89-48.9-118.05s18.65-87.7,48.82-117.96c.03-.02.06-.05.09-.09,6.16-6.15,12.82-11.8,19.86-16.94-6.04,6.31-15.5,16.69-15.65,18.74-.05.43-.14,1.23-.25,2.31-.6,5.39-1.88,17.41-2.06,19.26-.23,2.2,2.74,3.2,5.2,4.77,1.8,1.14.06,9.9,0,16.09-.08,6.11,6.57,20.89,9.36,20.43,2.71-.63-4.42-22.85-4.39-22.74,0,0,.23-7.82,3.45-7.88,3.23-.03,1.91,7.82,2.54,12.93.57,5.05,7.99,14.36,10.07,16.72,2.03,2.37-1.11,12.82-.68,14.58.25,1.66,19.92,14.98,21.78,15.78,1.71.69,7.16-.83,10.1-.06,2.91.77,3.02,7.42,5.34,8.79,2.28,1.31,13.07,2.65,15.47,3.43,2.4.77,1.74,9.84,4.62,11.9,2.91,2.02,11.96,12.44,11.96,12.44,0,0,7.62-3.74,9.51-4.79,1.91-1.09,5.28,2.83,5.28,2.83,0,0-.51,15.84-.74,18.86-.2,3.03-12.44,11.93-12.44,11.93,0,0-1.74,15.7-1.57,21.69.2,6.09,11.73,21.07,11.76,21.07.03.03,3.34,11.39,4.37,13.16,1.14,1.94,19.77,16.98,19.83,16.98,0,.45-2.71,28.99-3.28,34.02-.54,5.3,3.22,7.47,2.89,10.56-.03.45-.12,1.05-.17,1.82-.17,1.49-.4,3.52-.65,5.74-4.42.35-8.9.56-13.42.56-46.2.02-87.83-18.65-118.1-48.88ZM453.7,448.68c-10.73,10.7-22.87,19.97-36.17,27.45-2.12,1.21-4.29,2.33-6.47,3.44,1.67-3.32,3.15-6.48,3.67-8.41.14-.55.23-1.01.2-1.31-.14-3.18,7.79-9.05,12.53-10.54,4.77-1.48,6.22-3.23,8.56-10.38,2.35-7.16,4-19.13,3.91-23.94.09-4.88,10.42-18.52,10.44-23.23.23-4.76-2.14-8.33-5.48-11.45-3.23-3.14-11.73-3.08-14.01-3.68-2.2-.56-3.2-5.57-6.88-6.22s-7.33,3.23-11.73,1.97c-4.43-1.28-2.12-5.22,1.03-7.39,3.11-2.14.28-10.81-2.4-16.18-2.66-5.34-8.82-5.2-14.22-5-5.39.23-6.02-6.87-11.05-14.38-5.02-7.53-14.87-5.99-19.49-6.97-4.59-.97-11.27-6.93-15.41-7.87-4.08-.97-15.27,12.76-17.75,13.21-2.48.43-2.77-3.85-6.33-5.34-3.54-1.48-5.88,5.68-12.33,1.54-6.42-4.13-.6-17.12-.11-23.77.45-6.63-5.56.82-12.67-2.09-7.08-2.9-1.88-7.39,2.2-13.12,4.05-5.76,4.88-8.68-1.86-7.93-6.71.76-7.62-2.85-8.59,1.85-.97,4.74-4.43,9.93-13.33,8.82-8.88-1.08-9.33-9.42-8.82-15.89.54-6.47,2.31-6.4,7.11-14.38,4.82-7.96,8.36-7.79,12.7-9.87,4.37-2.12,4.71.83,8.33.45,3.62-.37,3.77-2.11,5.2-4.91,1.4-2.77,2.91.74,13.07,1.48,10.16.77,6.68,1.6,6.68,1.6,0,0-4.05,6.6,3.68,16.64,7.73,10.05,8.87-7.53,9.39-15.5.48-8.02,4.19-9.96,12.67-14.69,8.39-4.71,9.93-12.28,19.18-16.5,9.36-4.28,27.88-7.62,33.05-10.73,5.28-3.23-2.74-15.1,4.51-15.72,7.22-.65,15.18,1.08,22.86-.14h.06c3.24-.5,4.57-1.84,4.83-3.42,6.81,5.01,13.26,10.47,19.24,16.42,30.23,30.26,48.9,71.89,48.9,118.05s-18.67,87.78-48.9,118.03Z"/>
      <path class="st2" d="M335.65,150.78c98.11,0,177.65,80.52,177.65,179.85s-79.54,179.85-177.65,179.85-177.65-80.52-177.65-179.85,79.54-179.85,177.65-179.85M335.65,136.78c-25.89,0-51.01,5.14-74.66,15.26-22.83,9.77-43.32,23.76-60.92,41.57-17.58,17.8-31.39,38.53-41.03,61.61-9.98,23.89-15.04,49.26-15.04,75.4s5.06,51.51,15.04,75.4c9.64,23.08,23.45,43.81,41.03,61.61,17.59,17.81,38.09,31.8,60.92,41.57,23.65,10.13,48.77,15.26,74.66,15.26s51.01-5.14,74.66-15.26c22.83-9.77,43.32-23.76,60.92-41.57,17.58-17.8,31.39-38.53,41.03-61.61,9.98-23.89,15.04-49.26,15.04-75.4s-5.06-51.51-15.04-75.4c-9.64-23.08-23.45-43.81-41.03-61.61-17.59-17.81-38.09-31.8-60.92-41.57-23.65-10.12-48.77-15.26-74.66-15.26h0Z"/>
    </g>
    <g>
      <g>
        <path class="st1" d="M933.71,318.18c-3.07-47.42-23.57-90.16-55.17-121.74-13.11-13.11-28.13-24.32-44.64-33.17-26.68-14.3-57.18-22.42-89.55-22.42-52.36,0-99.88,21.25-134.19,55.59-34.34,34.31-55.59,81.82-55.59,134.19s21.25,99.88,55.59,134.19c34.32,34.34,81.83,55.59,134.19,55.59,7.55,0,14.98-.44,22.31-1.3,18.85-2.2,36.85-7.17,53.58-14.5,13.59-5.93,26.37-13.42,38.09-22.22,7.15-5.38,13.9-11.26,20.21-17.57,34.34-34.31,55.59-81.82,55.59-134.19,0-4.19-.13-8.34-.42-12.45ZM827.54,299.32c-6.66,2.58-23.19,3.45-26.88,1-3.66-2.43-12.91-5.47-16.64-4.81-3.73.66,1.19,6.24-3.16,6.92-4.34.67-9.93-2.38-14.3-5.52-4.34-3.09-11.23-4.3-11.23-4.3-1.68-.2-3.36-.41-5.03-.6-2.49-5.01-1.19-16.38-10.02-13.81-8.82,2.58-37.95,7.72-44.31,8.98-6.36,1.28-13.94,11.41-19,18.93-5.07,7.59-18.89,31.31-21.38,35-2.49,3.75-3.62,27.17-3.55,33.24.06,6.18,27.67,31.6,36.34,32.7,8.72,1.2,32.39-4.94,38.62-6.24,6.25-1.26,9.87,7.08,14.81,6.99,4.97-.09,11.08,2.21,6.05,9.41-5.06,7.14-5.08,10.68-.24,15.27,4.85,4.63,14.21,21.78,7.79,35.37-6.38,13.6-1.7,20.02,1.72,25.4.7,1.11,1.43,2.63,2.16,4.44-4.92.44-9.91.66-14.94.66-46.34,0-88.21-18.75-118.59-49.11-30.37-30.39-49.13-72.26-49.13-118.6s18.76-88.21,49.13-118.6c30.38-30.36,72.25-49.11,118.59-49.11,5.76,0,11.47.28,17.08.86-1.1.82-2.32,1.66-3.73,2.49-9.38,5.6-13.15,8.1-20.06,9.97-6.93,1.86-4.37,15.78-1.83,18.32s8.21-.63,12.61-3.13c4.39-2.49,5.67,2.54,5.69,4.43,0,1.9,2.54,9.49,6.29,8.24,3.78-1.26,9.98-13.86,9.34-15.73-.64-1.9-3.16-6.95,1.19-10.7,4.3-3.73,9.24-6.82,13.55-9.91,1.34.3,2.67.66,3.97,1.03-.38.93-1.24,2.08-2.65,3.33-4.92,4.35-6.78,7.49-6.78,7.49,0,0-1.17,10.05,1.94,10.05,3.11.02,11.79-1.81,16.09-3.04,4.33-1.24,4.35,2.54.04,3.77-4.32,1.22-8.03,3.09-8.03,3.09-.62,1.87-1.21,3.77-1.83,5.64-6.2,3.76-8.67,9.43-8.67,9.43,0,0-27.52.6-29.46,1.23-1.88.6-1.26-5.69-1.26-5.69,0,0,1.85-6.34-1.28-5.72-3.11.64-3.13,6.19-3.13,6.34-.42,2.52-.84,5.05-1.24,7.59,0,0-12.01,2.52-14.54,5.07-2.51,2.54-10.75,10.14-12.64,11.43-1.9,1.26-8.25,3.18-10.8,4.46-2.54,1.29,7.61,5.72,7.61,7.62s.02,10.79-3.79,11.43c-3.8.64-21.6.67-21.6.67,0,0-5.7,20.32-4.41,22.23,1.28,1.89,9.53,6.31,14.61,5.67,5.07-.65,16.48-6.36,16.48-6.36,1.68-3.82,3.38-7.62,5.08-11.43,3.37-3.6,6.75-7.2,10.13-10.81,0,.02,7.59,3.15,10.13.61,2.51-2.54,7.52-5.08,7.57-5.08.02,0,5.03,9.48,8.17,10.73,3.15,1.27,8.78,6.29,9.4,9.45.62,3.15,1.24,8.83,3.11,7.54,1.88-1.28,5.03-8.84,5.03-8.84,0,0,4.37-2.54-.62-5.05-4.99-2.49-13.77-11.32-15.03-13.22s-.62-7.59,3.77-5.08c4.41,2.54,16.26,13.86,16.26,13.86,0,0,.62,5.69,3.71,8.19,3.11,2.49,6.2,6.88,6.2,9.4-.02,2.52-.02,3.75,4.3,3.73,4.35-.02,2.54-8.19,2.54-10.06s-.59-5.67,2.49-5.67c3.09-.02,8.01,2.45,8.01,2.45,0,0-3.13,12.58,3,14.41,6.18,1.81,25.07-3.39,25.01-.26-.03,3.09,2.86,17.34-3.83,19.92ZM862.94,449.23c-4.48,4.47-9.2,8.69-14.17,12.64-.44-8.69-.33-23.48.86-29.27,1.48-6.95,14.5-12.2,20.63-21.8,6.18-9.64,15.76-20.63,13.97-34.74-10.48,5.21-16.4,7.86-22.11,4.53-5.72-3.33-11.25-15.12-13.53-19.89-2.12-4.57-21.8-42.06-18.23-44.73,3.73-2.45,21.14,29.07,27.85,38.37,6.78,9.45,4.1,21.48,18.25,13.73,14.12-7.75,31.4-21.63,33.76-27.7,2.43-6.04-6.18-21.38-9.69-17.68-3.44,3.75-13.77,5.3-13.79,5.3-4.41-7.92-8.89-15.94-13.44-24.01,0,0,5.85-.11,11.52,4.61,5.72,4.75,16.99,10.46,23.68,11.43.9.14,1.99.16,3.22.1.22,3.46.33,6.97.33,10.5.01,46.35-18.75,88.22-49.11,118.61Z"/>
        <path d="M703.87,207.22c1.9,1.27-1.26,6.99-3.79,11.44-2.54,4.45-1.26,6.98-1.26,6.98,0,0,12.06-1.91,14.6-3.18,2.53-1.26,4.43-9.52,2.52-11.43-1.9-1.9-8.26-7.61-8.27-9.52,0-1.9.62-8.88-1.92-10.77-2.54-1.91-8.24,1.69-8.23,5.7-.01,2.54,4.45,9.51,6.35,10.78Z"/>
      </g>
      <path class="st2" d="M744.35,150.78c98.11,0,177.65,80.52,177.65,179.85s-79.54,179.85-177.65,179.85-177.65-80.52-177.65-179.85,79.53-179.85,177.65-179.85M744.35,136.78c-25.89,0-51.01,5.14-74.66,15.26-22.83,9.77-43.32,23.76-60.92,41.57-17.58,17.8-31.39,38.53-41.03,61.61-9.98,23.89-15.04,49.26-15.04,75.4s5.06,51.51,15.04,75.4c9.64,23.08,23.45,43.81,41.03,61.61,17.59,17.81,38.09,31.8,60.92,41.57,23.65,10.13,48.77,15.26,74.66,15.26s51.01-5.14,74.66-15.26c22.83-9.77,43.32-23.76,60.92-41.57,17.58-17.8,31.39-38.53,41.03-61.61,9.98-23.89,15.04-49.26,15.04-75.4s-5.06-51.51-15.04-75.4c-9.64-23.08-23.45-43.81-41.03-61.61-17.59-17.81-38.09-31.8-60.92-41.57-23.66-10.12-48.78-15.26-74.66-15.26h0Z"/>
    </g>
  </g>
</svg>