<?xml version="1.0" encoding="utf-8"?>
<!-- Generator: Adobe Illustrator 26.0.1, SVG Export Plug-In . SVG Version: 6.00 Build 0)  -->
<svg version="1.1" id="Layer_1" xmlns="http://www.w3.org/2000/svg" xmlns:xlink="http://www.w3.org/1999/xlink" x="0px" y="0px"
	 viewBox="0 0 29.7 29.9" style="enable-background:new 0 0 29.7 29.9;" xml:space="preserve">
<style type="text/css">
	.st0{opacity:0.2;}
	.st1{fill:#FFFFFF;}
</style>
<g>
	<g>
		<path d="M29.1,18.2L25,16l-7.9,4.2c-0.7,0.4-1.5,0.6-2.4,0.6c-0.8,0-1.6-0.2-2.4-0.6L4.6,16l-4,2.1c-0.3,0.1-0.4,0.4-0.4,0.7
			c0,0.3,0.2,0.6,0.4,0.7l12.8,6.7c0.9,0.5,2,0.5,2.9,0l12.8-6.7c0.3-0.1,0.4-0.4,0.4-0.7C29.5,18.6,29.3,18.3,29.1,18.2z"/>
		<path d="M0.6,11.7l12.8,6.7c0.5,0.2,1,0.4,1.5,0.4s1-0.1,1.5-0.4l12.8-6.7c0.3-0.1,0.4-0.4,0.4-0.7c0-0.3-0.2-0.6-0.4-0.7
			L16.3,3.5c-0.5-0.2-1-0.4-1.5-0.4s-1,0.1-1.5,0.4L0.6,10.2c-0.3,0.1-0.4,0.4-0.4,0.7S0.3,11.5,0.6,11.7z"/>
	</g>
	<g class="st0">
		<path class="st1" d="M13.8,13.8L8.7,8.9l0.7-0.5l8.4,2.7l-0.6,0.4l-4.9-1.6c-0.3-0.1-0.7-0.2-1.1-0.4c-0.4-0.2-1-0.4-1.7-0.6
			l0.1-0.1c0.5,0.4,0.9,0.7,1.1,1c0.3,0.3,0.5,0.5,0.7,0.6l3.1,2.9L13.8,13.8z M12.8,12.2L12,11.8l2.3-1.6l0.8,0.4L12.8,12.2z"/>
		<path class="st1" d="M19.5,10.1c-0.2,0.1-0.5,0.2-0.8,0.3c-0.3,0-0.6,0-1,0c-0.3-0.1-0.7-0.2-1-0.4c-0.3-0.2-0.5-0.3-0.6-0.5
			c-0.1-0.2-0.1-0.3-0.1-0.4c0-0.1,0.1-0.3,0.2-0.4c0.1-0.1,0.2-0.3,0.3-0.4C16.8,8.2,16.9,8,17,7.9c0.1-0.1,0.2-0.2,0.2-0.3
			c0-0.1,0-0.1-0.2-0.2l0,0c-0.2-0.1-0.4-0.2-0.6-0.2c-0.2,0-0.4-0.1-0.6,0c-0.2,0-0.4,0.1-0.5,0.2C15.1,7.5,15,7.6,15,7.7
			c0,0.1,0,0.2,0,0.3c0,0.1,0.1,0.2,0.2,0.3l-0.8,0.2C14.2,8.3,14,8.1,14,7.9c0-0.2,0-0.4,0.1-0.5c0.1-0.2,0.2-0.3,0.4-0.4
			c0.1-0.1,0.3-0.1,0.4-0.2c0.2-0.1,0.4-0.1,0.7-0.1c0.3,0,0.5,0,0.9,0.1c0.3,0.1,0.7,0.2,1.1,0.4L20.9,9l-0.5,0.4L19.7,9l0,0
			c0.1,0.1,0.1,0.2,0.2,0.3c0,0.1,0,0.3,0,0.4C19.8,9.9,19.7,10,19.5,10.1z M18.9,9.7c0.2-0.1,0.3-0.3,0.3-0.4c0-0.2,0-0.3-0.1-0.5
			c-0.1-0.2-0.3-0.3-0.5-0.4l-0.7-0.4c0,0,0,0.1,0,0.2s-0.1,0.1-0.2,0.2c-0.1,0.1-0.1,0.1-0.2,0.2c-0.1,0.1-0.1,0.1-0.2,0.2
			C17.2,8.8,17.1,8.9,17,9C17,9.1,17,9.3,17,9.4c0,0.1,0.2,0.2,0.4,0.3c0.2,0.1,0.3,0.2,0.5,0.2c0.2,0,0.3,0,0.5,0
			C18.6,9.8,18.7,9.8,18.9,9.7z"/>
	</g>
</g>
</svg>
