<?xml version="1.0" encoding="utf-8"?>
<!-- Generator: Adobe Illustrator 26.0.1, SVG Export Plug-In . SVG Version: 6.00 Build 0)  -->
<svg version="1.1" id="Layer_1" xmlns="http://www.w3.org/2000/svg" xmlns:xlink="http://www.w3.org/1999/xlink" x="0px" y="0px"
	 viewBox="0 0 29.66 29.86" style="enable-background:new 0 0 29.66 29.86;" xml:space="preserve">
<style type="text/css">
	.st0{opacity:0.2;}
	.st1{fill:#FFFFFF;}
</style>
<g>
	<path d="M29.47,15.48l-4.07-2.15l-7.94,4.2c-0.73,0.39-1.56,0.59-2.38,0.59c-0.82,0-1.65-0.2-2.38-0.59l-7.95-4.2l-4.07,2.15
		c-0.27,0.14-0.44,0.43-0.44,0.74c0,0.31,0.17,0.59,0.44,0.73l12.91,6.82c0.94,0.49,2.05,0.49,2.98,0l12.9-6.82
		c0.27-0.14,0.44-0.42,0.44-0.73C29.91,15.91,29.74,15.62,29.47,15.48z"/>
	<path d="M0.68,8.92l12.91,6.82c0.47,0.25,0.98,0.37,1.49,0.37c0.51,0,1.02-0.13,1.49-0.37l12.9-6.82c0.27-0.14,0.44-0.43,0.44-0.73
		c0-0.31-0.17-0.59-0.44-0.74l-12.9-6.82c-0.47-0.25-0.98-0.37-1.49-0.37c-0.51,0-1.02,0.12-1.49,0.37L0.68,7.45
		C0.41,7.59,0.25,7.87,0.25,8.18C0.25,8.49,0.41,8.78,0.68,8.92z"/>
</g>
<g class="st0">
	<path class="st1" d="M14.04,11.08L8.9,6.12l0.67-0.46l8.48,2.7l-0.61,0.41l-5-1.62c-0.31-0.1-0.69-0.23-1.14-0.39
		c-0.45-0.16-1.02-0.36-1.71-0.61L9.7,6.09c0.47,0.4,0.86,0.74,1.16,1.01c0.3,0.27,0.54,0.49,0.71,0.65l3.09,2.91L14.04,11.08z
		 M12.98,9.45l-0.76-0.43l2.34-1.59l0.76,0.43L12.98,9.45z"/>
	<path class="st1" d="M19.78,7.35C19.56,7.5,19.3,7.6,19,7.65c-0.3,0.05-0.62,0.05-0.96-0.02c-0.34-0.06-0.68-0.19-1.01-0.38
		c-0.29-0.16-0.49-0.32-0.6-0.48c-0.11-0.16-0.14-0.31-0.12-0.45c0.03-0.15,0.09-0.29,0.2-0.42c0.11-0.14,0.22-0.27,0.35-0.39
		c0.16-0.16,0.3-0.29,0.41-0.39c0.11-0.1,0.17-0.18,0.18-0.26c0.01-0.07-0.05-0.14-0.17-0.21l-0.03-0.02
		c-0.21-0.12-0.42-0.2-0.62-0.25c-0.2-0.05-0.39-0.06-0.58-0.03c-0.18,0.03-0.36,0.09-0.52,0.2c-0.16,0.11-0.27,0.23-0.31,0.35
		s-0.04,0.24,0,0.35c0.04,0.11,0.1,0.22,0.19,0.31l-0.79,0.21c-0.22-0.23-0.35-0.45-0.37-0.65c-0.03-0.2,0.01-0.38,0.12-0.54
		c0.11-0.16,0.25-0.3,0.42-0.42c0.11-0.08,0.27-0.15,0.45-0.23c0.19-0.08,0.41-0.13,0.67-0.15c0.26-0.02,0.55,0,0.88,0.08
		c0.33,0.08,0.69,0.22,1.09,0.45l3.36,1.9l-0.54,0.37l-0.69-0.39L19.98,6.2c0.08,0.09,0.14,0.2,0.18,0.33
		c0.04,0.13,0.03,0.26-0.02,0.4C20.09,7.08,19.97,7.22,19.78,7.35z M19.15,6.88c0.2-0.14,0.32-0.29,0.34-0.45
		c0.02-0.16-0.03-0.32-0.14-0.48c-0.12-0.16-0.28-0.29-0.49-0.41l-0.71-0.4c0.02,0.04,0,0.09-0.04,0.16
		c-0.04,0.07-0.1,0.14-0.18,0.22c-0.07,0.08-0.15,0.15-0.22,0.23c-0.07,0.07-0.13,0.13-0.18,0.17c-0.11,0.1-0.19,0.21-0.25,0.32
		c-0.06,0.11-0.06,0.22-0.02,0.33c0.05,0.11,0.16,0.22,0.36,0.33c0.18,0.1,0.35,0.16,0.53,0.19c0.18,0.03,0.35,0.02,0.52-0.02
		C18.86,7.03,19.01,6.97,19.15,6.88z"/>
</g>
</svg>
