<?xml version="1.0" encoding="UTF-8"?>
<svg id="Layer_1" xmlns="http://www.w3.org/2000/svg" version="1.1" viewBox="0 0 29.7 29.9">
  <!-- Generator: Adobe Illustrator 29.6.1, SVG Export Plug-In . SVG Version: 2.1.1 Build 9)  -->
  <defs>
    <style>
      .st0 {
        fill: #7d7e81;
      }

      .st1 {
        fill: #fff;
      }

      .st2 {
        opacity: .2;
      }
    </style>
  </defs>
  <g>
    <path class="st1" d="M29.1,18.2l-4.1-2.2-7.9,4.2c-.7.4-1.5.6-2.4.6-.8,0-1.6-.2-2.4-.6l-7.7-4.2-4,2.1c-.3.1-.4.4-.4.7s.2.6.4.7l12.8,6.7c.9.5,2,.5,2.9,0l12.8-6.7c.3-.1.4-.4.4-.7,0-.2-.2-.5-.4-.6Z"/>
    <path class="st1" d="M.6,11.7l12.8,6.7c.5.2,1,.4,1.5.4s1-.1,1.5-.4l12.8-6.7c.3-.1.4-.4.4-.7s-.2-.6-.4-.7l-12.9-6.8c-.5-.2-1-.4-1.5-.4s-1,.1-1.5.4L.6,10.2c-.3.1-.4.4-.4.7s.1.6.4.8Z"/>
  </g>
  <g class="st2">
    <path class="st0" d="M13.8,13.8l-5.1-4.9.7-.5,8.4,2.7-.6.4-4.9-1.6c-.3-.1-.7-.2-1.1-.4-.4-.2-1-.4-1.7-.6l.1-.1c.5.4.9.7,1.1,1,.3.3.5.5.7.6l3.1,2.9-.7.5ZM12.8,12.2l-.8-.4,2.3-1.6.8.4-2.3,1.6Z"/>
    <path class="st0" d="M19.5,10.1c-.2.1-.5.2-.8.3h-1c-.3-.1-.7-.2-1-.4s-.5-.3-.6-.5-.1-.3-.1-.4.1-.3.2-.4c.1-.1.2-.3.3-.4.3-.1.4-.3.5-.4s.2-.2.2-.3,0-.1-.2-.2h0c-.2-.1-.4-.2-.6-.2s-.4-.1-.6,0c-.2,0-.4.1-.5.2-.2.1-.3.2-.3.3v.3c0,.1.1.2.2.3l-.8.2c-.2-.2-.4-.4-.4-.6s0-.4.1-.5c.1-.2.2-.3.4-.4.1-.1.3-.1.4-.2.2-.1.4-.1.7-.1s.5,0,.9.1c.3.1.7.2,1.1.4l3.3,1.8-.5.4-.7-.4h0c.1.1.1.2.2.3v.4c-.1.2-.2.3-.4.4ZM18.9,9.7c.2-.1.3-.3.3-.4,0-.2,0-.3-.1-.5s-.3-.3-.5-.4l-.7-.4v.2c0,.1-.1.1-.2.2q-.1.1-.2.2t-.2.2c-.1,0-.2.1-.3.2v.4c0,.1.2.2.4.3.2.1.3.2.5.2h.5c.2-.1.3-.1.5-.2Z"/>
  </g>
</svg>