<?xml version="1.0" encoding="utf-8"?>
<!-- Generator: Adobe Illustrator 28.1.0, SVG Export Plug-In . SVG Version: 6.00 Build 0)  -->
<svg version="1.1" id="Layer_1" xmlns="http://www.w3.org/2000/svg" xmlns:xlink="http://www.w3.org/1999/xlink" x="0px" y="0px"
	 viewBox="0 0 398 300.3" style="enable-background:new 0 0 398 300.3;" xml:space="preserve">
<style type="text/css">
	.st0{fill:#0d0d0d;}
</style>
<g>
	<path class="st0" d="M333.6,25.1c-25.1-11.7-52-20.3-80-25.1c-3.4,6.2-7.5,14.6-10.3,21.3c-29.8-4.5-59.4-4.5-88.7,0
		c-2.8-6.7-6.9-15.1-10.4-21.3c-28.1,4.9-55,13.4-80.1,25.2C13.6,101.7-0.2,176.4,6.7,249.9c33.6,25.1,66.1,40.3,98.1,50.3
		c7.9-10.9,14.9-22.4,21-34.6c-11.6-4.4-22.6-9.8-33.1-16.1c2.8-2.1,5.5-4.2,8.1-6.4c63.8,29.9,133.2,29.9,196.2,0
		c2.7,2.2,5.4,4.4,8.1,6.4c-10.5,6.3-21.6,11.7-33.2,16.1c6.1,12.2,13.1,23.7,21,34.6c32-10,64.6-25.2,98.2-50.3
		C399.3,164.6,377.5,90.7,333.6,25.1z M134.6,204.7c-19.2,0-34.9-17.9-34.9-39.7s15.4-39.7,34.9-39.7c19.5,0,35.2,17.9,34.9,39.7
		C169.5,186.8,154.1,204.7,134.6,204.7z M263.4,204.7c-19.2,0-34.9-17.9-34.9-39.7s15.4-39.7,34.9-39.7c19.5,0,35.2,17.9,34.9,39.7
		C298.3,186.8,282.9,204.7,263.4,204.7z"/>
</g>
</svg>
