<?xml version="1.0" encoding="utf-8"?>
<!-- Generator: Adobe Illustrator 28.1.0, SVG Export Plug-In . SVG Version: 6.00 Build 0)  -->
<svg version="1.1" id="Layer_1" xmlns="http://www.w3.org/2000/svg" xmlns:xlink="http://www.w3.org/1999/xlink" x="0px" y="0px"
	 viewBox="0 0 412 393.8" style="enable-background:new 0 0 412 393.8;" xml:space="preserve">
<style type="text/css">
	.st0{fill-rule:evenodd;clip-rule:evenodd;fill:#0d0d0d;}
</style>
<path class="st0" d="M206,0C94.5,0,4.1,90.3,4.1,201.9c0,89.3,57.8,164.8,138,191.5c10.1,1.8,13.9-4.3,13.9-9.6
	c0-4.8-0.3-20.7-0.3-37.6c-50.7,9.3-63.8-12.4-67.9-23.7c-2.3-5.8-12.1-23.7-20.7-28.5c-7.1-3.8-17.2-13.1-0.3-13.4
	c15.9-0.3,27.3,14.6,31,20.7c18.2,30.5,47.2,22,58.8,16.7c1.8-13.1,7.1-22,12.9-27c-44.9-5-91.8-22.5-91.8-99.7
	c0-22,7.8-40.1,20.7-54.3c-2-5-9.1-25.7,2-53.5c0,0,16.9-5.3,55.5,20.7c16.1-4.5,33.3-6.8,50.5-6.8s34.3,2.3,50.5,6.8
	c38.6-26.2,55.5-20.7,55.5-20.7c11.1,27.8,4,48.4,2,53.5c12.9,14.1,20.7,32,20.7,54.3c0,77.5-47.2,94.6-92.1,99.7
	c7.3,6.3,13.6,18.4,13.6,37.3c0,27-0.3,48.7-0.3,55.5c0,5.3,3.8,11.6,13.9,9.6c79.7-26.7,137.5-102.4,137.5-191.5
	C407.9,90.3,317.5,0,206,0z"/>
</svg>
