<?xml version="1.0" encoding="utf-8"?>
<!-- Generator: Adobe Illustrator 28.1.0, SVG Export Plug-In . SVG Version: 6.00 Build 0)  -->
<svg version="1.1" id="Layer_1" xmlns="http://www.w3.org/2000/svg" xmlns:xlink="http://www.w3.org/1999/xlink" x="0px" y="0px"
	 viewBox="0 0 393.8 393.9" style="enable-background:new 0 0 393.8 393.9;" xml:space="preserve">
<style type="text/css">
	.st0{fill:#0d0d0d;}
</style>
<path class="st0" d="M197,0c-53.5,0-60.2,0.2-81.2,1.2c-21,1-35.3,4.3-47.8,9.1C55,15.4,44,22.1,33.1,33C22.1,44,15.4,55,10.3,67.9
	c-4.9,12.5-8.2,26.8-9.1,47.8c-0.9,21-1.2,27.7-1.2,81.2s0.2,60.2,1.2,81.2c1,21,4.3,35.3,9.1,47.8c5,13,11.8,23.9,22.7,34.9
	c10.9,11,21.9,17.7,34.9,22.7c12.5,4.9,26.8,8.2,47.8,9.1c21,1,27.7,1.2,81.2,1.2c53.5,0,60.2-0.2,81.2-1.2c21-1,35.3-4.3,47.8-9.1
	c12.9-5,23.9-11.8,34.9-22.7c11-10.9,17.7-21.9,22.7-34.9c4.8-12.5,8.2-26.8,9.1-47.8c0.9-21,1.2-27.7,1.2-81.2s-0.2-60.2-1.2-81.2
	c-1-21-4.3-35.3-9.1-47.8c-5-13-11.8-23.9-22.7-34.9c-11-11-21.9-17.7-34.9-22.7c-12.6-4.9-26.9-8.2-47.8-9.1
	C257.1,0.2,250.4,0,197,0L197,0z M179.3,35.5c5.2,0,11.1,0,17.7,0c52.6,0,58.8,0.2,79.6,1.1c19.2,0.9,29.6,4.1,36.6,6.8
	c9.2,3.6,15.7,7.8,22.6,14.7c6.9,6.9,11.2,13.5,14.7,22.6c2.7,6.9,5.9,17.4,6.8,36.6c0.9,20.8,1.1,27,1.1,79.6s-0.2,58.8-1.1,79.6
	c-0.9,19.2-4.1,29.6-6.8,36.6c-3.6,9.2-7.8,15.7-14.7,22.6c-6.9,6.9-13.4,11.2-22.6,14.7c-6.9,2.7-17.4,5.9-36.6,6.8
	c-20.8,0.9-27,1.1-79.6,1.1c-52.6,0-58.8-0.2-79.6-1.1c-19.2-0.9-29.6-4.1-36.6-6.8c-9.2-3.6-15.8-7.8-22.6-14.7
	c-6.9-6.9-11.2-13.4-14.7-22.6c-2.7-6.9-5.9-17.4-6.8-36.6c-0.9-20.8-1.1-27-1.1-79.6s0.2-58.8,1.1-79.6c0.9-19.2,4.1-29.6,6.8-36.6
	C47,71.5,51.3,65,58.2,58.1c6.9-6.9,13.5-11.2,22.6-14.7c6.9-2.7,17.4-5.9,36.6-6.8C135.5,35.7,142.6,35.5,179.3,35.5L179.3,35.5z
	 M302.1,68.2c-13.1,0-23.6,10.6-23.6,23.6c0,13.1,10.6,23.6,23.6,23.6c13.1,0,23.6-10.6,23.6-23.6c0,0,0,0,0,0
	C325.7,78.8,315.1,68.2,302.1,68.2L302.1,68.2z M197,95.8c-55.9,0-101.1,45.3-101.1,101.1S141.1,298.1,197,298.1
	c55.9,0,101.1-45.3,101.1-101.1S252.8,95.8,197,95.8L197,95.8z M197,131.3c36.3,0,65.6,29.4,65.6,65.6c0,36.3-29.4,65.6-65.6,65.6
	c-36.3,0-65.6-29.4-65.6-65.6C131.3,160.7,160.7,131.3,197,131.3z"/>
</svg>
