<?xml version="1.0" encoding="UTF-8"?>
<svg id="Layer_1" xmlns="http://www.w3.org/2000/svg" version="1.1" viewBox="0 0 29.7 29.9">
  <!-- Generator: Adobe Illustrator 29.6.1, SVG Export Plug-In . SVG Version: 2.1.1 Build 9)  -->
  <defs>
    <style>
      .st0 {
        fill: #fcfcff;
      }
    </style>
  </defs>
  <path class="st0" d="M19.3,13.4h1.4c.2,0,.5.1.6.2.5.3.6.8.2,1.2-.6.7-1.2,1.4-1.8,2.2-2.8,3.3-5.5,6.6-8.3,9.9-.1.1-.2.2-.4.2-.3,0-.5-.2-.4-.5.2-.7.3-1.3.5-2,.6-2.2,1.1-4.4,1.7-6.6.2-.7-.3-1.1-.8-1.2h-3c-.2,0-.4,0-.6-.1-.5-.3-.6-.8-.2-1.3.8-.9,1.5-1.8,2.3-2.7,2.5-2.9,4.9-5.9,7.4-8.8.2-.2.3-.4.5-.6.1-.1.2-.2.3-.2.3,0,.5.2.4.5-.3,1-.5,2.1-.8,3.1-.5,1.8-.9,3.6-1.4,5.5-.2.7.2,1.2.9,1.2h1c.1,0,.3,0,.5,0Z"/>
</svg>