<?xml version="1.0" encoding="utf-8"?>
<!-- Generator: Adobe Illustrator 26.0.1, SVG Export Plug-In . SVG Version: 6.00 Build 0)  -->
<svg version="1.1" id="Layer_1" xmlns="http://www.w3.org/2000/svg" xmlns:xlink="http://www.w3.org/1999/xlink" x="0px" y="0px"
	 viewBox="0 0 1080 1350" style="enable-background:new 0 0 1080 1350;" xml:space="preserve">
<path d="M650.61,591.46c13.33,0,26.69-0.46,39.99,0.21c6.29,0.32,13.08,1.64,18.58,4.54c14.26,7.51,16.91,23.05,6.65,35.44
	c-17.22,20.78-34.63,41.39-51.97,62.07C584.53,788.3,505.21,882.89,425.92,977.5c-3.09,3.69-6.28,6.84-11.51,6.98
	c-9.21,0.25-14.35-5.93-12.09-14.8c4.86-19.04,9.79-38.06,14.68-57.09c16.25-63.22,32.16-126.54,48.96-189.62
	c5.33-20.02-9.14-32.14-23.31-33.97c-2.8-0.36-5.65-0.37-8.48-0.37c-26.16-0.03-52.33,0.24-78.49-0.2
	c-6.12-0.1-12.78-1.43-18.18-4.18c-14.81-7.54-17.68-23.3-7.11-36.01c21.73-26.13,43.63-52.12,65.47-78.16
	c70.32-83.87,140.65-167.74,210.97-251.61c5.03-6,9.77-12.29,15.22-17.87c2.34-2.4,6.06-4.39,9.35-4.74
	c9.45-1,14.63,5.57,12.27,14.74c-7.58,29.52-15.2,59.02-22.79,88.54c-13.44,52.25-26.84,104.51-40.3,156.76
	c-5.13,19.92,5.77,34.69,26.51,35.43c9.49,0.34,19,0.09,28.5,0.11C640.61,591.46,645.61,591.45,650.61,591.46z"/>
</svg>
