<?xml version="1.0" encoding="utf-8"?>
<!-- Generator: Adobe Illustrator 26.0.1, SVG Export Plug-In . SVG Version: 6.00 Build 0)  -->
<svg version="1.1" id="Layer_1" xmlns="http://www.w3.org/2000/svg" xmlns:xlink="http://www.w3.org/1999/xlink" x="0px" y="0px"
	 viewBox="0 0 29.7 29.9" style="enable-background:new 0 0 29.7 29.9;" xml:space="preserve">
<path d="M19.3,13.4c0.5,0,0.9,0,1.4,0c0.2,0,0.5,0.1,0.6,0.2c0.5,0.3,0.6,0.8,0.2,1.2c-0.6,0.7-1.2,1.4-1.8,2.2
	c-2.8,3.3-5.5,6.6-8.3,9.9c-0.1,0.1-0.2,0.2-0.4,0.2c-0.3,0-0.5-0.2-0.4-0.5c0.2-0.7,0.3-1.3,0.5-2c0.6-2.2,1.1-4.4,1.7-6.6
	c0.2-0.7-0.3-1.1-0.8-1.2c-0.1,0-0.2,0-0.3,0c-0.9,0-1.8,0-2.7,0c-0.2,0-0.4,0-0.6-0.1c-0.5-0.3-0.6-0.8-0.2-1.3
	c0.8-0.9,1.5-1.8,2.3-2.7c2.5-2.9,4.9-5.9,7.4-8.8c0.2-0.2,0.3-0.4,0.5-0.6c0.1-0.1,0.2-0.2,0.3-0.2c0.3,0,0.5,0.2,0.4,0.5
	c-0.3,1-0.5,2.1-0.8,3.1c-0.5,1.8-0.9,3.6-1.4,5.5c-0.2,0.7,0.2,1.2,0.9,1.2c0.3,0,0.7,0,1,0C18.9,13.4,19.1,13.4,19.3,13.4z"/>
</svg>
