<?xml version="1.0" encoding="utf-8"?>
<!-- Generator: Adobe Illustrator 28.1.0, SVG Export Plug-In . SVG Version: 6.00 Build 0)  -->
<svg version="1.1" id="Layer_1" xmlns="http://www.w3.org/2000/svg" xmlns:xlink="http://www.w3.org/1999/xlink" x="0px" y="0px"
	 viewBox="0 0 393.8 393.8" style="enable-background:new 0 0 393.8 393.8;" xml:space="preserve">
<style type="text/css">
	.st0{fill:#0d0d0d;}
</style>
<path class="st0" d="M335.5,335.5h-58.3v-91.4c0-21.8-0.4-49.8-30.3-49.8c-30.4,0-35,23.7-35,48.3v93h-58.3V147.6h56v25.7h0.8
	c11.4-19.5,32.7-31.2,55.3-30.4c59.1,0,70,38.9,70,89.5L335.5,335.5z M87.6,121.9c-18.7,0-33.9-15.2-33.9-33.9
	c0-18.7,15.2-33.9,33.9-33.9c18.7,0,33.9,15.2,33.9,33.9C121.5,106.8,106.3,121.9,87.6,121.9L87.6,121.9 M116.8,335.5H58.4V147.6
	h58.4V335.5z M364.6,0H29.1C13.2-0.1,0.2,12.6,0,28.4v336.9c0.2,15.9,13.2,28.6,29.1,28.4h335.5c15.9,0.2,29-12.5,29.2-28.4v-337
	C393.5,12.5,380.5-0.2,364.6,0"/>
</svg>
