<?xml version="1.0" encoding="UTF-8"?>
<svg id="Layer_1" xmlns="http://www.w3.org/2000/svg" version="1.1" viewBox="0 0 29.7 29.9">
  <!-- Generator: Adobe Illustrator 29.6.1, SVG Export Plug-In . SVG Version: 2.1.1 Build 9)  -->
  <defs>
    <style>
      .st0 {
        fill: #fff;
      }
    </style>
  </defs>
  <path class="st0" d="M4.3,23.3c-.1.5.5.9.9.5l7.2-7.2c0-.2-.1-.4-.1-.6,0-1.2,1-2.1,2.1-2.1,1.2,0,2.1,1,2.1,2.1s-1,2.1-2.1,2.1c-.2,0-.4,0-.6-.1l-7.2,7.2c-.4.4,0,1,.5.9l13.4-3.2c.4-.1.7-.4.8-.8l1.2-6.2c.4.2.8.1,1.2-.2l3.2-3.2c.4-.4.4-1.1,0-1.5l-7.5-7.5c-.4-.4-1.1-.4-1.5,0l-3.2,3.2c-.3.3-.4.8-.2,1.2l-6.1,1.1c-.4.1-.7.4-.8.8l-3.3,13.5Z"/>
</svg>