<?xml version="1.0" encoding="utf-8"?>
<!-- Generator: Adobe Illustrator 26.0.1, SVG Export Plug-In . SVG Version: 6.00 Build 0)  -->
<svg version="1.1" id="Layer_1" xmlns="http://www.w3.org/2000/svg" xmlns:xlink="http://www.w3.org/1999/xlink" x="0px" y="0px"
	 viewBox="0 0 29.7 29.9" style="enable-background:new 0 0 29.7 29.9;" xml:space="preserve">
<path d="M4.3,23.3c-0.1,0.5,0.5,0.9,0.9,0.5l7.2-7.2c0-0.2-0.1-0.4-0.1-0.6c0-1.2,1-2.1,2.1-2.1c1.2,0,2.1,1,2.1,2.1s-1,2.1-2.1,2.1
	c-0.2,0-0.4,0-0.6-0.1l-7.2,7.2c-0.4,0.4,0,1,0.5,0.9l13.4-3.2c0.4-0.1,0.7-0.4,0.8-0.8l1.2-6.2c0.4,0.2,0.8,0.1,1.2-0.2l3.2-3.2
	c0.4-0.4,0.4-1.1,0-1.5l-7.5-7.5c-0.4-0.4-1.1-0.4-1.5,0l-3.2,3.2c-0.3,0.3-0.4,0.8-0.2,1.2L8.4,9C8,9.1,7.7,9.4,7.6,9.8L4.3,23.3z"
	/>
</svg>
