<?xml version="1.0" encoding="utf-8"?>
<!-- Generator: Adobe Illustrator 26.0.1, SVG Export Plug-In . SVG Version: 6.00 Build 0)  -->
<svg version="1.1" id="Layer_1" xmlns="http://www.w3.org/2000/svg" xmlns:xlink="http://www.w3.org/1999/xlink" x="0px" y="0px"
	 viewBox="0 0 800 800" style="enable-background:new 0 0 800 800;" xml:space="preserve">
<path d="M50.36,675.34c-3.95,16.36,16.08,27.6,27.99,15.7l223.91-223.91c-1.47-5.51-2.26-11.3-2.26-17.27
	c0-36.82,29.85-66.67,66.67-66.67c36.82,0,66.67,29.85,66.67,66.67c0,36.82-29.85,66.67-66.67,66.67c-5.97,0-11.76-0.78-17.26-2.26
	L125.49,738.17c-11.9,11.9-0.67,31.94,15.7,27.99l416.63-100.57c12.62-3.05,22.32-13.14,24.87-25.87l38.43-192.18
	c11.97,4.7,26.11,2.22,35.78-7.46l100-100c13.02-13.02,13.02-34.12,0-47.14L523.56,59.62c-13.02-13.02-34.12-13.02-47.14,0l-100,100
	c-9.67,9.67-12.16,23.81-7.46,35.78l-192.18,38.43c-12.73,2.55-22.82,12.25-25.87,24.87L50.36,675.34z"/>
</svg>
