<?xml version="1.0" encoding="UTF-8"?>
<svg id="Layer_1" xmlns="http://www.w3.org/2000/svg" version="1.1" viewBox="0 0 29.7 29.9">
  <!-- Generator: Adobe Illustrator 29.6.1, SVG Export Plug-In . SVG Version: 2.1.1 Build 9)  -->
  <defs>
    <style>
      .st0 {
        fill: #fff;
      }
    </style>
  </defs>
  <path class="st0" d="M15,6.5h-.3c-5,0-9,4-9,9s4,9,9,9,9-4,9-9v-.3l2.6-2.6c.2.9.4,1.9.4,2.9,0,6.6-5.4,12-12,12S2.7,22.1,2.7,15.5,8.1,3.5,14.7,3.5c1,0,2,.1,2.9.4l-2.6,2.6Z"/>
  <path class="st0" d="M8.7,15.5c0-2.8,1.9-5.1,4.5-5.8v3.2c-.9.5-1.5,1.5-1.5,2.6,0,1.7,1.3,3,3,3,1.1,0,2.1-.6,2.6-1.5h3.2c-.7,2.6-3,4.5-5.8,4.5-3.3,0-6-2.7-6-6Z"/>
  <path class="st0" d="M23.7,6.5l-1.5-3-4.5,4.5v2.4l-3.3,3.3,2.1,2.1,3.3-3.3h2.4l4.5-4.5-3-1.5Z"/>
</svg>