<?xml version="1.0" encoding="utf-8"?>
<!-- Generator: Adobe Illustrator 26.0.1, SVG Export Plug-In . SVG Version: 6.00 Build 0)  -->
<svg version="1.1" id="Layer_1" xmlns="http://www.w3.org/2000/svg" xmlns:xlink="http://www.w3.org/1999/xlink" x="0px" y="0px"
	 viewBox="0 0 29.7 29.9" style="enable-background:new 0 0 29.7 29.9;" xml:space="preserve">
<g>
	<path d="M15,6.5c-0.1,0-0.2,0-0.3,0c-5,0-9,4-9,9c0,5,4,9,9,9c5,0,9-4,9-9c0-0.1,0-0.2,0-0.3l2.6-2.6c0.2,0.9,0.4,1.9,0.4,2.9
		c0,6.6-5.4,12-12,12c-6.6,0-12-5.4-12-12c0-6.6,5.4-12,12-12c1,0,2,0.1,2.9,0.4L15,6.5z"/>
	<path d="M8.7,15.5c0-2.8,1.9-5.1,4.5-5.8v3.2c-0.9,0.5-1.5,1.5-1.5,2.6c0,1.7,1.3,3,3,3c1.1,0,2.1-0.6,2.6-1.5h3.2
		c-0.7,2.6-3,4.5-5.8,4.5C11.4,21.5,8.7,18.8,8.7,15.5z"/>
	<path d="M23.7,6.5l-1.5-3L17.7,8v2.4l-3.3,3.3l2.1,2.1l3.3-3.3h2.4L26.7,8L23.7,6.5z"/>
</g>
</svg>
