<?xml version="1.0" encoding="UTF-8"?>
<svg id="Layer_1" xmlns="http://www.w3.org/2000/svg" version="1.1" viewBox="0 0 60 58.5">
  <!-- Generator: Adobe Illustrator 29.6.1, SVG Export Plug-In . SVG Version: 2.1.1 Build 9)  -->
  <defs>
    <style>
      .st0 {
        fill: #fcfcff;
      }
    </style>
  </defs>
  <path class="st0" d="M21.1,38.7c-2.5,4-5,6.6-6.4,6.6-.2,0-.5-.1-.6-.2-.3-.2-.4-.6-.3-.9.2-1.5,3.1-3.6,7.3-5.5Z"/>
  <path class="st0" d="M28.5,21.9c-1.7-4.3-1.5-7.2-.9-8.2.2-.3.5-.5.9-.6,1,0,1.2,1.1,1.2,2.1-.1,2.3-.5,4.5-1.2,6.7Z"/>
  <path class="st0" d="M31,30.1c.7,1,1.5,1.9,2.2,2.8-1.1.2-2.2.5-3.3.8-.8.2-1.6.5-2.5.7.4-.9.8-1.8,1.2-2.6.5-1.1.9-2.2,1.3-3.3.4.6.7,1.1,1.1,1.6Z"/>
  <path class="st0" d="M45.5,35.8c-.1.7-.9,1.2-1.9,1.2-.3,0-.6,0-.9-.1-2-.5-3.9-1.5-5.5-2.8,1.3-.2,2.7-.3,4-.3.9,0,1.8.1,2.7.2.9.2,1.9.6,1.6,1.8Z"/>
  <path class="st0" d="M49.4,0H10.6C4.8,0,0,4.8,0,10.6v37.3c0,5.8,4.8,10.6,10.6,10.5h38.8c5.8,0,10.6-4.7,10.6-10.6V10.6c0-5.8-4.8-10.6-10.6-10.6ZM48.8,37c-.3.9-1.3,2-3.8,2-1.8,0-5.5-.6-9.7-4.2-1.5.3-3.1.7-4.8,1.1-1.6.4-3.1.9-4.6,1.4-2.7,4.7-6.6,10.1-10.5,10.1-1,.1-2-.3-2.7-.9-.8-.6-1.1-1.6-.9-2.6.6-3.3,7.1-6.3,10.2-7.5,1.1-1.8,2-3.7,2.8-5.7.9-2.3,1.7-4.4,2.4-6.5-2.1-4.7-2.6-9.2-1.3-11.4.5-.9,1.5-1.5,2.5-1.5,3,0,4.1,2.9,4.1,5.6-.2,3-.8,6-1.8,8.8.6,1.1,1.3,2.1,2,3.1,1,1.3,2,2.6,3.2,3.7,1.8-.3,3.7-.5,5.5-.5,3.3,0,5.6.6,6.8,1.9.8.8,1,2,.6,3.1Z"/>
</svg>