<?xml version="1.0" encoding="utf-8"?>
<!-- Generator: Adobe Illustrator 26.0.1, SVG Export Plug-In . SVG Version: 6.00 Build 0)  -->
<svg version="1.1" id="Layer_1" xmlns="http://www.w3.org/2000/svg" xmlns:xlink="http://www.w3.org/1999/xlink" x="0px" y="0px"
	 viewBox="0 0 800 800" style="enable-background:new 0 0 800 800;" xml:space="preserve">
<style type="text/css">
	.st0{fill-rule:evenodd;clip-rule:evenodd;fill:#0D0D0D;}
</style>
<path class="st0" d="M373.34,109.33h-78.67c-43.45,0-78.67,35.22-78.67,78.67s35.22,78.67,78.67,78.67h78.67V109.33z M373.34,56
	h53.33h78.67c72.9,0,132,59.1,132,132c0,43.02-20.58,81.24-52.43,105.33c31.86,24.1,52.43,62.31,52.43,105.33
	c0,72.9-59.09,132-132,132c-29.48,0-56.7-9.66-78.67-25.99v25.99v78.67c0,72.9-59.1,132-132,132c-72.9,0-132-59.1-132-132
	c0-43.02,20.58-81.24,52.43-105.33c-31.85-24.1-52.43-62.31-52.43-105.33c0-43.02,20.58-81.24,52.43-105.33
	c-31.85-24.1-52.43-62.31-52.43-105.33c0-72.9,59.1-132,132-132H373.34z M426.67,109.33v157.33h78.67
	c43.45,0,78.66-35.22,78.66-78.67s-35.22-78.67-78.66-78.67H426.67z M294.67,477.33h78.67v-78.46v-0.2v-0.2V320h-78.67
	c-43.45,0-78.67,35.22-78.67,78.67c0,43.34,35.05,78.5,78.35,78.67L294.67,477.33z M216,609.33c0-43.34,35.05-78.5,78.35-78.67
	l0.31,0h78.67v78.67c0,43.45-35.22,78.67-78.67,78.67S216,652.78,216,609.33z M426.67,398.51c0.08-43.37,35.27-78.51,78.67-78.51
	c43.45,0,78.66,35.22,78.66,78.67s-35.22,78.67-78.66,78.67c-43.39,0-78.58-35.14-78.67-78.51V398.51z"/>
</svg>
