<svg width="3979" height="1021" viewBox="0 0 3979 1021" fill="none" xmlns="http://www.w3.org/2000/svg">
<mask id="path-1-outside-1_96_52" maskUnits="userSpaceOnUse" x="0" y="0" width="3979" height="1021" fill="black">
<rect fill="white" width="3979" height="1021"/>
<path d="M6.09238 6.36361H150.313L401.064 618.628H410.294L661.046 6.36361H805.266V794H692.198V224.04H684.89L452.599 792.846H358.76L126.468 223.656H119.161V794H6.09238V6.36361ZM1041.5 1015.52C1024.32 1015.52 1008.68 1014.11 994.58 1011.29C980.478 1008.73 969.966 1005.91 963.044 1002.83L990.734 908.607C1011.76 914.248 1030.47 916.684 1046.88 915.914C1063.29 915.145 1077.78 908.992 1090.34 897.454C1103.16 885.917 1114.44 867.072 1124.19 840.92L1138.42 801.692L922.277 203.273H1045.35L1194.95 661.702H1201.1L1350.71 203.273H1474.16L1230.72 872.841C1219.44 903.608 1205.08 929.631 1187.64 950.912C1170.21 972.449 1149.44 988.602 1125.34 999.37C1101.24 1010.14 1073.29 1015.52 1041.5 1015.52ZM1515.6 108.664V6.36361H2125.17V108.664H1879.42V794H1760.97V108.664H1515.6ZM2255.64 1015.52C2238.47 1015.52 2222.83 1014.11 2208.72 1011.29C2194.62 1008.73 2184.11 1005.91 2177.19 1002.83L2204.88 908.607C2225.9 914.248 2244.62 916.684 2261.03 915.914C2277.44 915.145 2291.92 908.992 2304.49 897.454C2317.31 885.917 2328.59 867.072 2338.33 840.92L2352.56 801.692L2136.42 203.273H2259.49L2409.09 661.702H2415.25L2564.85 203.273H2688.31L2444.86 872.841C2433.58 903.608 2419.22 929.631 2401.79 950.912C2384.35 972.449 2363.59 988.602 2339.48 999.37C2315.38 1010.14 2287.44 1015.52 2255.64 1015.52ZM2796.37 1015.52V203.273H2908.67V299.035H2918.29C2924.96 286.728 2934.57 272.499 2947.13 256.346C2959.7 240.193 2977.13 226.092 2999.44 214.041C3021.74 201.734 3051.23 195.581 3087.89 195.581C3135.58 195.581 3178.14 207.631 3215.58 231.732C3253.01 255.833 3282.37 290.574 3303.65 335.956C3325.18 381.337 3335.95 435.948 3335.95 499.79C3335.95 563.632 3325.31 618.371 3304.03 664.009C3282.75 709.391 3253.52 744.388 3216.35 769.002C3179.17 793.359 3136.74 805.538 3089.05 805.538C3053.15 805.538 3023.79 799.512 3000.98 787.462C2978.41 775.412 2960.72 761.31 2947.9 745.157C2935.08 729.005 2925.21 714.647 2918.29 702.083H2911.37V1015.52H2796.37ZM2909.06 498.636C2909.06 540.172 2915.08 576.58 2927.13 607.859C2939.19 639.139 2956.62 663.625 2979.44 681.316C3002.26 698.75 3030.2 707.468 3063.28 707.468C3097.64 707.468 3126.35 698.366 3149.43 680.162C3172.5 661.702 3189.94 636.703 3201.73 605.167C3213.78 573.631 3219.81 538.121 3219.81 498.636C3219.81 459.665 3213.91 424.667 3202.12 393.644C3190.58 362.62 3173.14 338.135 3149.81 320.188C3126.74 302.24 3097.89 293.266 3063.28 293.266C3029.95 293.266 3001.74 301.855 2978.67 319.034C2955.85 336.212 2938.54 360.185 2926.75 390.952C2914.96 421.719 2909.06 457.614 2909.06 498.636ZM3719.39 805.922C3661.19 805.922 3611.06 793.487 3569.01 768.617C3527.22 743.491 3494.92 708.237 3472.1 662.855C3449.53 617.218 3438.25 563.76 3438.25 502.482C3438.25 441.974 3449.53 388.644 3472.1 342.494C3494.92 296.343 3526.71 260.32 3567.47 234.424C3608.5 208.529 3656.44 195.581 3711.31 195.581C3744.64 195.581 3776.95 201.093 3808.23 212.118C3839.51 223.143 3867.58 240.45 3892.45 264.038C3917.32 287.626 3936.93 318.265 3951.29 355.954C3965.65 393.387 3972.83 438.897 3972.83 492.483V533.249H3503.25V447.102H3860.15C3860.15 416.847 3853.99 390.054 3841.69 366.723C3829.38 343.135 3812.07 324.546 3789.77 310.957C3767.72 297.369 3741.82 290.574 3712.08 290.574C3679.77 290.574 3651.57 298.522 3627.47 314.419C3603.63 330.059 3585.17 350.57 3572.09 375.953C3559.27 401.079 3552.86 428.385 3552.86 457.87V525.173C3552.86 564.657 3559.78 598.245 3573.63 625.935C3587.73 653.625 3607.34 674.778 3632.47 689.392C3657.6 703.75 3686.95 710.929 3720.54 710.929C3742.33 710.929 3762.2 707.852 3780.15 701.699C3798.1 695.289 3813.61 685.803 3826.69 673.239C3839.76 660.676 3849.76 645.164 3856.68 626.704L3965.52 646.318C3956.81 678.367 3941.17 706.442 3918.6 730.543C3896.3 754.387 3868.22 772.976 3834.38 786.308C3800.79 799.384 3762.46 805.922 3719.39 805.922Z"/>
</mask>
<path d="M6.09238 6.36361H150.313L401.064 618.628H410.294L661.046 6.36361H805.266V794H692.198V224.04H684.89L452.599 792.846H358.76L126.468 223.656H119.161V794H6.09238V6.36361ZM1041.5 1015.52C1024.32 1015.52 1008.68 1014.11 994.58 1011.29C980.478 1008.73 969.966 1005.91 963.044 1002.83L990.734 908.607C1011.76 914.248 1030.47 916.684 1046.88 915.914C1063.29 915.145 1077.78 908.992 1090.34 897.454C1103.16 885.917 1114.44 867.072 1124.19 840.92L1138.42 801.692L922.277 203.273H1045.35L1194.95 661.702H1201.1L1350.71 203.273H1474.16L1230.72 872.841C1219.44 903.608 1205.08 929.631 1187.64 950.912C1170.21 972.449 1149.44 988.602 1125.34 999.37C1101.24 1010.14 1073.29 1015.52 1041.5 1015.52ZM1515.6 108.664V6.36361H2125.17V108.664H1879.42V794H1760.97V108.664H1515.6ZM2255.64 1015.52C2238.47 1015.52 2222.83 1014.11 2208.72 1011.29C2194.62 1008.73 2184.11 1005.91 2177.19 1002.83L2204.88 908.607C2225.9 914.248 2244.62 916.684 2261.03 915.914C2277.44 915.145 2291.92 908.992 2304.49 897.454C2317.31 885.917 2328.59 867.072 2338.33 840.92L2352.56 801.692L2136.42 203.273H2259.49L2409.09 661.702H2415.25L2564.85 203.273H2688.31L2444.86 872.841C2433.58 903.608 2419.22 929.631 2401.79 950.912C2384.35 972.449 2363.59 988.602 2339.48 999.37C2315.38 1010.14 2287.44 1015.52 2255.64 1015.52ZM2796.37 1015.52V203.273H2908.67V299.035H2918.29C2924.96 286.728 2934.57 272.499 2947.13 256.346C2959.7 240.193 2977.13 226.092 2999.44 214.041C3021.74 201.734 3051.23 195.581 3087.89 195.581C3135.58 195.581 3178.14 207.631 3215.58 231.732C3253.01 255.833 3282.37 290.574 3303.65 335.956C3325.18 381.337 3335.95 435.948 3335.95 499.79C3335.95 563.632 3325.31 618.371 3304.03 664.009C3282.75 709.391 3253.52 744.388 3216.35 769.002C3179.17 793.359 3136.74 805.538 3089.05 805.538C3053.15 805.538 3023.79 799.512 3000.98 787.462C2978.41 775.412 2960.72 761.31 2947.9 745.157C2935.08 729.005 2925.21 714.647 2918.29 702.083H2911.37V1015.52H2796.37ZM2909.06 498.636C2909.06 540.172 2915.08 576.58 2927.13 607.859C2939.19 639.139 2956.62 663.625 2979.44 681.316C3002.26 698.75 3030.2 707.468 3063.28 707.468C3097.64 707.468 3126.35 698.366 3149.43 680.162C3172.5 661.702 3189.94 636.703 3201.73 605.167C3213.78 573.631 3219.81 538.121 3219.81 498.636C3219.81 459.665 3213.91 424.667 3202.12 393.644C3190.58 362.62 3173.14 338.135 3149.81 320.188C3126.74 302.24 3097.89 293.266 3063.28 293.266C3029.95 293.266 3001.74 301.855 2978.67 319.034C2955.85 336.212 2938.54 360.185 2926.75 390.952C2914.96 421.719 2909.06 457.614 2909.06 498.636ZM3719.39 805.922C3661.19 805.922 3611.06 793.487 3569.01 768.617C3527.22 743.491 3494.92 708.237 3472.1 662.855C3449.53 617.218 3438.25 563.76 3438.25 502.482C3438.25 441.974 3449.53 388.644 3472.1 342.494C3494.92 296.343 3526.71 260.32 3567.47 234.424C3608.5 208.529 3656.44 195.581 3711.31 195.581C3744.64 195.581 3776.95 201.093 3808.23 212.118C3839.51 223.143 3867.58 240.45 3892.45 264.038C3917.32 287.626 3936.93 318.265 3951.29 355.954C3965.65 393.387 3972.83 438.897 3972.83 492.483V533.249H3503.25V447.102H3860.15C3860.15 416.847 3853.99 390.054 3841.69 366.723C3829.38 343.135 3812.07 324.546 3789.77 310.957C3767.72 297.369 3741.82 290.574 3712.08 290.574C3679.77 290.574 3651.57 298.522 3627.47 314.419C3603.63 330.059 3585.17 350.57 3572.09 375.953C3559.27 401.079 3552.86 428.385 3552.86 457.87V525.173C3552.86 564.657 3559.78 598.245 3573.63 625.935C3587.73 653.625 3607.34 674.778 3632.47 689.392C3657.6 703.75 3686.95 710.929 3720.54 710.929C3742.33 710.929 3762.2 707.852 3780.15 701.699C3798.1 695.289 3813.61 685.803 3826.69 673.239C3839.76 660.676 3849.76 645.164 3856.68 626.704L3965.52 646.318C3956.81 678.367 3941.17 706.442 3918.6 730.543C3896.3 754.387 3868.22 772.976 3834.38 786.308C3800.79 799.384 3762.46 805.922 3719.39 805.922Z" fill="white"/>
<path d="M6.09238 6.36361V0.948613H0.677376V6.36361H6.09238ZM150.313 6.36361L155.324 4.31136L153.947 0.948613H150.313V6.36361ZM401.064 618.628L396.053 620.68L397.43 624.043H401.064V618.628ZM410.294 618.628V624.043H413.928L415.305 620.68L410.294 618.628ZM661.046 6.36361V0.948613H657.412L656.035 4.31135L661.046 6.36361ZM805.266 6.36361H810.681V0.948613H805.266V6.36361ZM805.266 794V799.415H810.681V794H805.266ZM692.198 794H686.783V799.415H692.198V794ZM692.198 224.04H697.613V218.625H692.198V224.04ZM684.89 224.04V218.625H681.253L679.877 221.993L684.89 224.04ZM452.599 792.846V798.261H456.237L457.612 794.893L452.599 792.846ZM358.76 792.846L353.746 794.892L355.121 798.261H358.76V792.846ZM126.468 223.656L131.482 221.61L130.107 218.241H126.468V223.656ZM119.161 223.656V218.241H113.746V223.656H119.161ZM119.161 794V799.415H124.576V794H119.161ZM6.09238 794H0.677376V799.415H6.09238V794ZM6.09238 11.7786H150.313V0.948613H6.09238V11.7786ZM145.302 8.41587L396.053 620.68L406.075 616.576L155.324 4.31136L145.302 8.41587ZM401.064 624.043H410.294V613.213H401.064V624.043ZM415.305 620.68L666.057 8.41587L656.035 4.31135L405.283 616.576L415.305 620.68ZM661.046 11.7786H805.266V0.948613H661.046V11.7786ZM799.851 6.36361V794H810.681V6.36361H799.851ZM805.266 788.585H692.198V799.415H805.266V788.585ZM697.613 794V224.04H686.783V794H697.613ZM692.198 218.625H684.89V229.455H692.198V218.625ZM679.877 221.993L447.586 790.799L457.612 794.893L689.903 226.088L679.877 221.993ZM452.599 787.431H358.76V798.261H452.599V787.431ZM363.773 790.8L131.482 221.61L121.455 225.702L353.746 794.892L363.773 790.8ZM126.468 218.241H119.161V229.071H126.468V218.241ZM113.746 223.656V794H124.576V223.656H113.746ZM119.161 788.585H6.09238V799.415H119.161V788.585ZM11.5074 794V6.36361H0.677376V794H11.5074ZM994.58 1011.29L995.642 1005.98L995.595 1005.97L995.549 1005.96L994.58 1011.29ZM963.044 1002.83L957.848 1001.3L956.511 1005.85L960.844 1007.78L963.044 1002.83ZM990.734 908.607L992.137 903.377L987.03 902.007L985.539 907.08L990.734 908.607ZM1046.88 915.914L1046.63 910.505L1046.63 910.505L1046.88 915.914ZM1090.34 897.454L1086.72 893.429L1086.7 893.447L1086.68 893.466L1090.34 897.454ZM1124.19 840.92L1129.26 842.81L1129.27 842.788L1129.28 842.766L1124.19 840.92ZM1138.42 801.692L1143.51 803.538L1144.17 801.696L1143.51 799.852L1138.42 801.692ZM922.277 203.273V197.858H914.564L917.184 205.112L922.277 203.273ZM1045.35 203.273L1050.49 201.593L1049.27 197.858H1045.35V203.273ZM1194.95 661.702L1189.8 663.382L1191.02 667.117H1194.95V661.702ZM1201.1 661.702V667.117H1205.03L1206.25 663.382L1201.1 661.702ZM1350.71 203.273V197.858H1346.78L1345.56 201.593L1350.71 203.273ZM1474.16 203.273L1479.25 205.123L1481.89 197.858H1474.16V203.273ZM1230.72 872.841L1235.8 874.705L1235.8 874.698L1235.81 874.691L1230.72 872.841ZM1187.64 950.912L1183.45 947.48L1183.44 947.492L1183.43 947.505L1187.64 950.912ZM1125.34 999.37L1123.13 994.426L1123.13 994.426L1125.34 999.37ZM1041.5 1010.11C1024.61 1010.11 1009.33 1008.72 995.642 1005.98L993.518 1016.6C1008.03 1019.5 1024.03 1020.94 1041.5 1020.94V1010.11ZM995.549 1005.96C981.566 1003.42 971.564 1000.69 965.243 997.883L960.844 1007.78C968.368 1011.12 979.391 1014.03 993.611 1016.62L995.549 1005.96ZM968.239 1004.36L995.929 910.134L985.539 907.08L957.848 1001.3L968.239 1004.36ZM989.331 913.837C1010.73 919.579 1030.02 922.126 1047.14 921.323L1046.63 910.505C1030.93 911.241 1012.79 908.917 992.137 903.377L989.331 913.837ZM1047.14 921.323C1064.87 920.492 1080.55 913.803 1094.01 901.443L1086.68 893.466C1075.01 904.181 1061.72 909.798 1046.63 910.505L1047.14 921.323ZM1093.96 901.479C1107.72 889.104 1119.38 869.33 1129.26 842.81L1119.11 839.029C1109.51 864.814 1098.61 882.729 1086.72 893.429L1093.96 901.479ZM1129.28 842.766L1143.51 803.538L1133.33 799.845L1119.1 839.073L1129.28 842.766ZM1143.51 799.852L927.37 201.433L917.184 205.112L1133.32 803.531L1143.51 799.852ZM922.277 208.688H1045.35V197.858H922.277V208.688ZM1040.2 204.953L1189.8 663.382L1200.1 660.022L1050.49 201.593L1040.2 204.953ZM1194.95 667.117H1201.1V656.287H1194.95V667.117ZM1206.25 663.382L1355.86 204.953L1345.56 201.593L1195.96 660.022L1206.25 663.382ZM1350.71 208.688H1474.16V197.858H1350.71V208.688ZM1469.07 201.422L1225.63 870.99L1235.81 874.691L1479.25 205.123L1469.07 201.422ZM1225.63 870.976C1214.52 901.28 1200.44 926.748 1183.45 947.48L1191.83 954.344C1209.72 932.514 1224.35 905.935 1235.8 874.705L1225.63 870.976ZM1183.43 947.505C1166.51 968.413 1146.41 984.023 1123.13 994.426L1127.55 1004.31C1152.47 993.18 1173.91 976.485 1191.85 954.319L1183.43 947.505ZM1123.13 994.426C1099.85 1004.83 1072.68 1010.11 1041.5 1010.11V1020.94C1073.9 1020.94 1102.63 1015.45 1127.55 1004.31L1123.13 994.426ZM1515.6 108.664H1510.19V114.079H1515.6V108.664ZM1515.6 6.36361V0.948613H1510.19V6.36361H1515.6ZM2125.17 6.36361H2130.59V0.948613H2125.17V6.36361ZM2125.17 108.664V114.079H2130.59V108.664H2125.17ZM1879.42 108.664V103.249H1874.01V108.664H1879.42ZM1879.42 794V799.415H1884.84V794H1879.42ZM1760.97 794H1755.55V799.415H1760.97V794ZM1760.97 108.664H1766.38V103.249H1760.97V108.664ZM1521.02 108.664V6.36361H1510.19V108.664H1521.02ZM1515.6 11.7786H2125.17V0.948613H1515.6V11.7786ZM2119.76 6.36361V108.664H2130.59V6.36361H2119.76ZM2125.17 103.249H1879.42V114.079H2125.17V103.249ZM1874.01 108.664V794H1884.84V108.664H1874.01ZM1879.42 788.585H1760.97V799.415H1879.42V788.585ZM1766.38 794V108.664H1755.55V794H1766.38ZM1760.97 103.249H1515.6V114.079H1760.97V103.249ZM2208.72 1011.29L2209.79 1005.98L2209.74 1005.97L2209.69 1005.96L2208.72 1011.29ZM2177.19 1002.83L2171.99 1001.3L2170.66 1005.85L2174.99 1007.78L2177.19 1002.83ZM2204.88 908.607L2206.28 903.377L2201.17 902.007L2199.68 907.08L2204.88 908.607ZM2261.03 915.914L2260.77 910.505L2260.77 910.505L2261.03 915.914ZM2304.49 897.454L2300.86 893.429L2300.84 893.447L2300.82 893.466L2304.49 897.454ZM2338.33 840.92L2343.4 842.81L2343.41 842.788L2343.42 842.766L2338.33 840.92ZM2352.56 801.692L2357.65 803.538L2358.32 801.696L2357.65 799.852L2352.56 801.692ZM2136.42 203.273V197.858H2128.71L2131.33 205.112L2136.42 203.273ZM2259.49 203.273L2264.64 201.593L2263.42 197.858H2259.49V203.273ZM2409.09 661.702L2403.95 663.382L2405.17 667.117H2409.09V661.702ZM2415.25 661.702V667.117H2419.18L2420.4 663.382L2415.25 661.702ZM2564.85 203.273V197.858H2560.92L2559.71 201.593L2564.85 203.273ZM2688.31 203.273L2693.39 205.123L2696.04 197.858H2688.31V203.273ZM2444.86 872.841L2449.95 874.705L2449.95 874.698L2449.95 874.691L2444.86 872.841ZM2401.79 950.912L2397.6 947.48L2397.59 947.492L2397.58 947.505L2401.79 950.912ZM2339.48 999.37L2337.28 994.426L2337.28 994.426L2339.48 999.37ZM2255.64 1010.11C2238.76 1010.11 2223.48 1008.72 2209.79 1005.98L2207.66 1016.6C2222.17 1019.5 2238.18 1020.94 2255.64 1020.94V1010.11ZM2209.69 1005.96C2195.71 1003.42 2185.71 1000.69 2179.39 997.883L2174.99 1007.78C2182.51 1011.12 2193.54 1014.03 2207.76 1016.62L2209.69 1005.96ZM2182.38 1004.36L2210.07 910.134L2199.68 907.08L2171.99 1001.3L2182.38 1004.36ZM2203.48 913.837C2224.87 919.579 2244.17 922.126 2261.28 921.323L2260.77 910.505C2245.07 911.241 2226.93 908.917 2206.28 903.377L2203.48 913.837ZM2261.28 921.323C2279.01 920.492 2294.69 913.803 2308.15 901.443L2300.82 893.466C2289.16 904.181 2275.86 909.798 2260.77 910.505L2261.28 921.323ZM2308.11 901.479C2321.86 889.104 2333.53 869.33 2343.4 842.81L2333.26 839.029C2323.65 864.814 2312.75 882.729 2300.86 893.429L2308.11 901.479ZM2343.42 842.766L2357.65 803.538L2347.47 799.845L2333.24 839.073L2343.42 842.766ZM2357.65 799.852L2141.51 201.433L2131.33 205.112L2347.47 803.531L2357.65 799.852ZM2136.42 208.688H2259.49V197.858H2136.42V208.688ZM2254.34 204.953L2403.95 663.382L2414.24 660.022L2264.64 201.593L2254.34 204.953ZM2409.09 667.117H2415.25V656.287H2409.09V667.117ZM2420.4 663.382L2570 204.953L2559.71 201.593L2410.1 660.022L2420.4 663.382ZM2564.85 208.688H2688.31V197.858H2564.85V208.688ZM2683.22 201.422L2439.77 870.99L2449.95 874.691L2693.39 205.123L2683.22 201.422ZM2439.78 870.976C2428.67 901.28 2414.58 926.748 2397.6 947.48L2405.98 954.344C2423.86 932.514 2438.49 905.935 2449.95 874.705L2439.78 870.976ZM2397.58 947.505C2380.65 968.413 2360.56 984.023 2337.28 994.426L2341.69 1004.31C2366.61 993.18 2388.05 976.485 2406 954.319L2397.58 947.505ZM2337.28 994.426C2314 1004.83 2286.83 1010.11 2255.64 1010.11V1020.94C2288.05 1020.94 2316.77 1015.45 2341.69 1004.31L2337.28 994.426ZM2796.37 1015.52H2790.96V1020.94H2796.37V1015.52ZM2796.37 203.273V197.858H2790.96V203.273H2796.37ZM2908.67 203.273H2914.09V197.858H2908.67V203.273ZM2908.67 299.035H2903.26V304.45H2908.67V299.035ZM2918.29 299.035V304.45H2921.51L2923.05 301.614L2918.29 299.035ZM2947.13 256.346L2951.41 259.67L2951.41 259.67L2947.13 256.346ZM2999.44 214.041L3002.01 218.805L3002.03 218.794L3002.05 218.782L2999.44 214.041ZM3215.58 231.732L3212.64 236.285L3212.64 236.285L3215.58 231.732ZM3303.65 335.956L3298.74 338.255L3298.75 338.266L3298.75 338.277L3303.65 335.956ZM3304.03 664.009L3308.93 666.308L3308.94 666.298L3304.03 664.009ZM3216.35 769.002L3219.31 773.531L3219.32 773.524L3219.33 773.517L3216.35 769.002ZM3000.98 787.462L2998.42 792.238L2998.44 792.244L2998.45 792.25L3000.98 787.462ZM2947.9 745.157L2952.14 741.791L2952.14 741.791L2947.9 745.157ZM2918.29 702.083L2923.03 699.47L2921.49 696.668H2918.29V702.083ZM2911.37 702.083V696.668H2905.95V702.083H2911.37ZM2911.37 1015.52V1020.94H2916.78V1015.52H2911.37ZM2927.13 607.859L2922.08 609.806L2922.08 609.806L2927.13 607.859ZM2979.44 681.316L2976.12 685.595L2976.14 685.607L2976.15 685.619L2979.44 681.316ZM3149.43 680.162L3152.78 684.413L3152.8 684.402L3152.81 684.39L3149.43 680.162ZM3201.73 605.167L3196.67 603.234L3196.67 603.252L3196.66 603.27L3201.73 605.167ZM3202.12 393.644L3197.04 395.531L3197.05 395.55L3197.05 395.568L3202.12 393.644ZM3149.81 320.188L3146.49 324.462L3146.5 324.471L3146.51 324.48L3149.81 320.188ZM2978.67 319.034L2975.44 314.69L2975.42 314.699L2975.41 314.708L2978.67 319.034ZM2926.75 390.952L2931.81 392.89L2931.81 392.89L2926.75 390.952ZM2801.79 1015.52V203.273H2790.96V1015.52H2801.79ZM2796.37 208.688H2908.67V197.858H2796.37V208.688ZM2903.26 203.273V299.035H2914.09V203.273H2903.26ZM2908.67 304.45H2918.29V293.62H2908.67V304.45ZM2923.05 301.614C2929.53 289.658 2938.95 275.685 2951.41 259.67L2942.86 253.021C2930.19 269.312 2920.38 283.798 2913.53 296.456L2923.05 301.614ZM2951.41 259.67C2963.41 244.234 2980.21 230.582 3002.01 218.805L2996.86 209.277C2974.05 221.601 2955.98 236.152 2942.86 253.021L2951.41 259.67ZM3002.05 218.782C3023.28 207.069 3051.77 200.996 3087.89 200.996V190.166C3050.69 190.166 3020.2 196.399 2996.82 209.3L3002.05 218.782ZM3087.89 200.996C3134.62 200.996 3176.15 212.788 3212.64 236.285L3218.51 227.179C3180.14 202.475 3136.54 190.166 3087.89 190.166V200.996ZM3212.64 236.285C3249.12 259.768 3277.84 293.676 3298.74 338.255L3308.55 333.657C3286.89 287.473 3256.9 251.898 3218.51 227.179L3212.64 236.285ZM3298.75 338.277C3319.87 382.764 3330.54 436.541 3330.54 499.79H3341.37C3341.37 435.356 3330.5 379.91 3308.54 333.634L3298.75 338.277ZM3330.54 499.79C3330.54 563.046 3319.99 616.965 3299.12 661.721L3308.94 666.298C3330.63 619.778 3341.37 564.217 3341.37 499.79H3330.54ZM3299.13 661.71C3278.22 706.306 3249.6 740.488 3213.36 764.487L3219.33 773.517C3257.44 748.288 3287.28 712.475 3308.93 666.308L3299.13 661.71ZM3213.38 764.472C3177.15 788.209 3135.76 800.123 3089.05 800.123V810.953C3137.71 810.953 3181.19 798.509 3219.31 773.531L3213.38 764.472ZM3089.05 800.123C3053.71 800.123 3025.3 794.183 3003.5 782.674L2998.45 792.25C3022.29 804.841 3052.6 810.953 3089.05 810.953V800.123ZM3003.53 782.686C2981.47 770.903 2964.41 757.241 2952.14 741.791L2943.66 748.524C2957.04 765.379 2975.36 779.92 2998.42 792.238L3003.53 782.686ZM2952.14 741.791C2939.44 725.782 2929.76 711.682 2923.03 699.47L2913.55 704.697C2920.66 717.611 2930.73 732.227 2943.66 748.524L2952.14 741.791ZM2918.29 696.668H2911.37V707.498H2918.29V696.668ZM2905.95 702.083V1015.52H2916.78V702.083H2905.95ZM2911.37 1010.11H2796.37V1020.94H2911.37V1010.11ZM2903.64 498.636C2903.64 540.684 2909.74 577.776 2922.08 609.806L2932.19 605.913C2920.43 575.383 2914.47 539.66 2914.47 498.636H2903.64ZM2922.08 609.806C2934.43 641.857 2952.4 667.207 2976.12 685.595L2982.76 677.036C2960.84 660.042 2943.94 636.422 2932.19 605.913L2922.08 609.806ZM2976.15 685.619C3000.05 703.881 3029.2 712.883 3063.28 712.883V702.053C3031.2 702.053 3004.46 693.62 2982.73 677.013L2976.15 685.619ZM3063.28 712.883C3098.64 712.883 3128.59 703.494 3152.78 684.413L3146.07 675.911C3124.11 693.238 3096.63 702.053 3063.28 702.053V712.883ZM3152.81 684.39C3176.75 665.238 3194.71 639.386 3206.8 607.064L3196.66 603.27C3185.16 634.021 3168.25 658.165 3146.04 675.934L3152.81 684.39ZM3206.79 607.1C3219.11 574.852 3225.22 538.671 3225.22 498.636H3214.39C3214.39 537.57 3208.45 572.41 3196.67 603.234L3206.79 607.1ZM3225.22 498.636C3225.22 459.12 3219.24 423.455 3207.18 391.72L3197.05 395.568C3208.58 425.88 3214.39 460.21 3214.39 498.636H3225.22ZM3207.19 391.756C3195.34 359.903 3177.35 334.537 3153.11 315.895L3146.51 324.48C3168.94 341.733 3185.81 365.338 3197.04 395.531L3207.19 391.756ZM3153.14 315.913C3128.94 297.097 3098.87 287.851 3063.28 287.851V298.681C3096.92 298.681 3124.53 307.383 3146.49 324.462L3153.14 315.913ZM3063.28 287.851C3028.98 287.851 2999.59 296.71 2975.44 314.69L2981.9 323.377C3003.9 307.001 3030.92 298.681 3063.28 298.681V287.851ZM2975.41 314.708C2951.66 332.586 2933.79 357.446 2921.69 389.013L2931.81 392.89C2943.29 362.923 2960.04 339.838 2981.93 323.36L2975.41 314.708ZM2921.69 389.013C2909.61 420.53 2903.64 457.107 2903.64 498.636H2914.47C2914.47 458.12 2920.3 422.907 2931.81 392.89L2921.69 389.013ZM3569.01 768.617L3566.22 773.258L3566.24 773.268L3566.26 773.278L3569.01 768.617ZM3472.1 662.855L3467.24 665.255L3467.25 665.272L3467.26 665.288L3472.1 662.855ZM3472.1 342.494L3467.24 340.094L3467.24 340.104L3467.23 340.115L3472.1 342.494ZM3567.47 234.424L3564.58 229.845L3564.58 229.849L3564.57 229.854L3567.47 234.424ZM3808.23 212.118L3810.03 207.011L3810.03 207.011L3808.23 212.118ZM3892.45 264.038L3888.72 267.967L3888.72 267.967L3892.45 264.038ZM3951.29 355.954L3946.23 357.882L3946.24 357.893L3951.29 355.954ZM3972.83 533.249V538.664H3978.24V533.249H3972.83ZM3503.25 533.249H3497.83V538.664H3503.25V533.249ZM3503.25 447.102V441.687H3497.83V447.102H3503.25ZM3860.15 447.102V452.517H3865.56V447.102H3860.15ZM3841.69 366.723L3836.88 369.227L3836.89 369.238L3836.9 369.249L3841.69 366.723ZM3789.77 310.957L3786.92 315.567L3786.94 315.575L3786.95 315.582L3789.77 310.957ZM3627.47 314.419L3630.44 318.947L3630.45 318.939L3627.47 314.419ZM3572.09 375.953L3567.28 373.473L3567.27 373.482L3567.27 373.492L3572.09 375.953ZM3573.63 625.935L3568.78 628.357L3568.79 628.375L3568.8 628.392L3573.63 625.935ZM3632.47 689.392L3629.75 694.073L3629.76 694.083L3629.78 694.094L3632.47 689.392ZM3780.15 701.699L3781.91 706.821L3781.94 706.81L3781.97 706.798L3780.15 701.699ZM3826.69 673.239L3822.93 669.335L3822.93 669.335L3826.69 673.239ZM3856.68 626.704L3857.64 621.375L3853.2 620.574L3851.61 624.803L3856.68 626.704ZM3965.52 646.318L3970.75 647.739L3972.3 642.037L3966.48 640.989L3965.52 646.318ZM3918.6 730.543L3914.65 726.842L3914.65 726.844L3918.6 730.543ZM3834.38 786.308L3836.34 791.354L3836.35 791.35L3836.36 791.346L3834.38 786.308ZM3719.39 800.507C3661.97 800.507 3612.84 788.246 3571.77 763.956L3566.26 773.278C3609.29 798.729 3660.4 811.337 3719.39 811.337V800.507ZM3571.8 763.976C3530.93 739.4 3499.31 704.929 3476.93 660.423L3467.26 665.288C3490.52 711.544 3523.52 747.581 3566.22 773.258L3571.8 763.976ZM3476.95 660.456C3454.82 615.701 3443.67 563.095 3443.67 502.482H3432.84C3432.84 564.425 3444.24 618.734 3467.24 665.255L3476.95 660.456ZM3443.67 502.482C3443.67 442.652 3454.82 390.161 3476.96 344.872L3467.23 340.115C3444.25 387.127 3432.84 441.295 3432.84 502.482H3443.67ZM3476.95 344.894C3499.36 299.57 3530.5 264.324 3570.38 238.995L3564.57 229.854C3522.91 256.316 3490.47 293.116 3467.24 340.094L3476.95 344.894ZM3570.36 239.003C3610.41 213.723 3657.33 200.996 3711.31 200.996V190.166C3655.56 190.166 3606.58 203.334 3564.58 229.845L3570.36 239.003ZM3711.31 200.996C3744.03 200.996 3775.73 206.405 3806.43 217.225L3810.03 207.011C3778.17 195.781 3745.25 190.166 3711.31 190.166V200.996ZM3806.43 217.225C3836.96 227.989 3864.39 244.884 3888.72 267.967L3896.18 260.109C3870.77 236.015 3842.05 218.298 3810.03 207.011L3806.43 217.225ZM3888.72 267.967C3912.91 290.906 3932.11 320.818 3946.23 357.882L3956.35 354.026C3941.76 315.711 3921.73 284.346 3896.18 260.109L3888.72 267.967ZM3946.24 357.893C3960.29 394.538 3967.41 439.35 3967.41 492.483H3978.24C3978.24 438.444 3971.01 392.237 3956.35 354.015L3946.24 357.893ZM3967.41 492.483V533.249H3978.24V492.483H3967.41ZM3972.83 527.834H3503.25V538.664H3972.83V527.834ZM3508.66 533.249V447.102H3497.83V533.249H3508.66ZM3503.25 452.517H3860.15V441.687H3503.25V452.517ZM3865.56 447.102C3865.56 416.097 3859.25 388.414 3846.47 364.196L3836.9 369.249C3848.74 391.694 3854.73 417.597 3854.73 447.102H3865.56ZM3846.49 364.218C3833.73 339.773 3815.75 320.444 3792.58 306.333L3786.95 315.582C3808.4 328.648 3825.02 346.496 3836.88 369.227L3846.49 364.218ZM3792.61 306.347C3769.58 292.158 3742.67 285.159 3712.08 285.159V295.989C3740.97 295.989 3765.85 302.579 3786.92 315.567L3792.61 306.347ZM3712.08 285.159C3678.84 285.159 3649.58 293.351 3624.49 309.898L3630.45 318.939C3653.56 303.694 3680.7 295.989 3712.08 295.989V285.159ZM3624.5 309.891C3599.87 326.044 3580.78 347.261 3567.28 373.473L3576.9 378.433C3589.55 353.879 3607.38 334.074 3630.44 318.947L3624.5 309.891ZM3567.27 373.492C3554.04 399.415 3547.44 427.569 3547.44 457.87H3558.27C3558.27 429.201 3564.5 402.743 3576.91 378.414L3567.27 373.492ZM3547.44 457.87V525.173H3558.27V457.87H3547.44ZM3547.44 525.173C3547.44 565.273 3554.47 599.736 3568.78 628.357L3578.47 623.513C3565.09 596.753 3558.27 564.041 3558.27 525.173H3547.44ZM3568.8 628.392C3583.34 656.944 3603.66 678.898 3629.75 694.073L3635.19 684.711C3611.03 670.657 3592.12 650.307 3578.45 623.478L3568.8 628.392ZM3629.78 694.094C3655.85 708.99 3686.16 716.344 3720.54 716.344V705.514C3687.74 705.514 3659.34 698.51 3635.16 684.691L3629.78 694.094ZM3720.54 716.344C3742.84 716.344 3763.32 713.195 3781.91 706.821L3778.4 696.577C3761.09 702.51 3741.82 705.514 3720.54 705.514V716.344ZM3781.97 706.798C3800.6 700.145 3816.78 690.264 3830.44 677.144L3822.93 669.335C3810.44 681.341 3795.59 690.434 3778.33 696.599L3781.97 706.798ZM3830.44 677.144C3844.15 663.972 3854.57 647.757 3861.75 628.606L3851.61 624.803C3844.95 642.572 3835.38 657.38 3822.93 669.335L3830.44 677.144ZM3855.72 632.033L3964.56 651.647L3966.48 640.989L3857.64 621.375L3855.72 632.033ZM3960.3 644.897C3951.81 676.099 3936.61 703.39 3914.65 726.842L3922.56 734.244C3945.73 709.494 3961.8 680.635 3970.75 647.739L3960.3 644.897ZM3914.65 726.844C3892.95 750.037 3865.58 768.198 3832.39 781.27L3836.36 791.346C3870.87 777.753 3899.64 758.738 3922.56 734.242L3914.65 726.844ZM3832.41 781.262C3799.56 794.052 3761.92 800.507 3719.39 800.507V811.337C3763 811.337 3802.02 804.717 3836.34 791.354L3832.41 781.262Z" fill="#a2a2a2" mask="url(#path-1-outside-1_96_52)"/>
</svg>
