<?xml version="1.0" encoding="utf-8"?>
<!-- Generator: Adobe Illustrator 26.0.1, SVG Export Plug-In . SVG Version: 6.00 Build 0)  -->
<svg version="1.1" id="Layer_1" xmlns="http://www.w3.org/2000/svg" xmlns:xlink="http://www.w3.org/1999/xlink" x="0px" y="0px"
	 viewBox="0 0 240 234" style="enable-background:new 0 0 240 234;" xml:space="preserve">
<style type="text/css">
	.st0{fill:#0D0D0D;}
</style>
<g id="vlpa">
	<g id="vlpb">
		<g id="vlpc">
			<g id="vlpd">
				<path class="st0" d="M108.5,86.8c1.6,2.7,2.4,5.8,2.3,8.9c0,4.4-1,7.8-3.1,10.3c-2.2,2.5-5,4.4-8.2,5.3
					c-3.7,1.2-7.6,1.8-11.5,1.8h-5.3c-1.2,0-2.5-0.1-3.9-0.2V79.3c0.7-0.1,2.1-0.2,4.1-0.1c1.9-0.1,4.2-0.1,6.8-0.1
					c4.1-0.1,8.1,0.5,11.8,2C104.4,82.2,106.8,84.2,108.5,86.8z"/>
				<path class="st0" d="M197.5,0h-155C19,0,0,19,0,42.5v149C0,215,19,234,42.5,234h155c23.5,0,42.5-19,42.5-42.5v-149
					C240,19,221,0,197.5,0z M126.6,116.3c-4,5.6-9.6,9.8-16.1,12.2c-6.8,2.5-14.3,3.4-22.5,3.4c-2.4,0-4,0-5-0.1
					c-1-0.1-2.4-0.1-4.3-0.1v32.1c0.1,0.7-0.4,1.3-1.1,1.4H58.2c-0.8,0-1.2-0.4-1.2-1.3V61c0-0.7,0.3-1.1,1-1.1c1.7,0,3.3,0,5.6-0.1
					c2.4-0.1,4.9-0.1,7.6-0.2c2.7-0.1,5.6-0.1,8.7-0.2c3.1-0.1,6.1-0.1,9.1-0.1c8.2,0,15,1,20.6,3.1c5,1.7,9.6,4.5,13.4,8.2
					c3.2,3.2,5.7,7.1,7.3,11.4c1.5,4.2,2.3,8.5,2.3,13C132.6,103.6,130.6,110.7,126.6,116.3z M195.2,104.5c0,0.8-0.5,1.1-1.6,1.1
					c-3.6-0.1-7.3,0.2-10.8,1c-2.9,0.6-5.7,1.5-8.4,2.7c-1.9,0.9-3.7,2.1-5.1,3.7v51c0,1-0.4,1.4-1.3,1.4h-19.7
					c-0.8,0.1-1.5-0.4-1.6-1.2v-55.8c0-2.4,0-4.9-0.1-7.5c-0.1-2.6-0.1-5.2-0.2-7.8c0-2.3-0.2-4.5-0.4-6.8c-0.1-0.5,0.2-1,0.7-1.1
					c0-0.1,0.2-0.1,0.3,0h17.5c1,0,1.8,0.7,2.1,1.6c0.3,0.8,0.5,1.6,0.6,2.5c0.2,1,0.4,2.1,0.5,3.1c0.1,1.1,0.2,2.3,0.2,3.6
					c3-3.5,6.6-6.4,10.7-8.6c4.6-2.6,9.9-3.9,15.2-3.9c0.7-0.1,1.3,0.4,1.4,1.1V104.5z"/>
			</g>
		</g>
	</g>
</g>
</svg>
