<?xml version="1.0" encoding="UTF-8"?>
<svg id="Layer_1" xmlns="http://www.w3.org/2000/svg" version="1.1" viewBox="0 0 240 234">
  <!-- Generator: Adobe Illustrator 29.6.1, SVG Export Plug-In . SVG Version: 2.1.1 Build 9)  -->
  <defs>
    <style>
      .st0 {
        fill: #fcfcff;
      }
    </style>
  </defs>
  <g id="vlpa">
    <g id="vlpb">
      <g id="vlpc">
        <g id="vlpd">
          <path class="st0" d="M108.5,86.8c1.6,2.7,2.4,5.8,2.3,8.9,0,4.4-1,7.8-3.1,10.3-2.2,2.5-5,4.4-8.2,5.3-3.7,1.2-7.6,1.8-11.5,1.8h-5.3c-1.2,0-2.5-.1-3.9-.2v-33.6c.7-.1,2.1-.2,4.1-.1,1.9-.1,4.2-.1,6.8-.1,4.1-.1,8.1.5,11.8,2,2.9,1.1,5.3,3.1,7,5.7Z"/>
          <path class="st0" d="M197.5,0H42.5C19,0,0,19,0,42.5v149c0,23.5,19,42.5,42.5,42.5h155c23.5,0,42.5-19,42.5-42.5V42.5c0-23.5-19-42.5-42.5-42.5ZM126.6,116.3c-4,5.6-9.6,9.8-16.1,12.2-6.8,2.5-14.3,3.4-22.5,3.4-2.4,0-4,0-5-.1s-2.4-.1-4.3-.1v32.1c.1.7-.4,1.3-1.1,1.4h-19.4c-.8,0-1.2-.4-1.2-1.3V61c0-.7.3-1.1,1-1.1,1.7,0,3.3,0,5.6-.1,2.4-.1,4.9-.1,7.6-.2,2.7-.1,5.6-.1,8.7-.2,3.1-.1,6.1-.1,9.1-.1,8.2,0,15,1,20.6,3.1,5,1.7,9.6,4.5,13.4,8.2,3.2,3.2,5.7,7.1,7.3,11.4,1.5,4.2,2.3,8.5,2.3,13,0,8.6-2,15.7-6,21.3ZM195.2,104.5c0,.8-.5,1.1-1.6,1.1-3.6-.1-7.3.2-10.8,1-2.9.6-5.7,1.5-8.4,2.7-1.9.9-3.7,2.1-5.1,3.7v51c0,1-.4,1.4-1.3,1.4h-19.7c-.8.1-1.5-.4-1.6-1.2v-55.8c0-2.4,0-4.9-.1-7.5s-.1-5.2-.2-7.8c0-2.3-.2-4.5-.4-6.8-.1-.5.2-1,.7-1.1,0-.1.2-.1.3,0h17.5c1,0,1.8.7,2.1,1.6.3.8.5,1.6.6,2.5.2,1,.4,2.1.5,3.1.1,1.1.2,2.3.2,3.6,3-3.5,6.6-6.4,10.7-8.6,4.6-2.6,9.9-3.9,15.2-3.9.7-.1,1.3.4,1.4,1.1v19.9h0Z"/>
        </g>
      </g>
    </g>
  </g>
</svg>