<?xml version="1.0" encoding="utf-8"?>
<!-- Generator: Adobe Illustrator 26.0.1, SVG Export Plug-In . SVG Version: 6.00 Build 0)  -->
<svg version="1.1" id="Layer_1" xmlns="http://www.w3.org/2000/svg" xmlns:xlink="http://www.w3.org/1999/xlink" x="0px" y="0px"
	 viewBox="0 0 153 153" style="enable-background:new 0 0 153 153;" xml:space="preserve">
<style type="text/css">
	.st0{fill:#DB143C;}
	.st1{fill:#DB163D;}
</style>
<g>
	<path class="st0" d="M22.2,69.3c-1.2-1.2-2.4-2.4-3.6-3.6c-3.1-3.1-6.2-6.2-9.3-9.3c-0.5-0.5-1-1.1-1.3-1.7
		c-0.7-1.4-0.6-2.3,0.6-3.4C22.9,36.9,37.2,22.6,51.5,8.3C52.6,7.2,53.6,7,55,7.8c0.5,0.3,1,0.6,1.4,1c4.3,4.3,8.6,8.6,12.9,12.9
		c0.1,0.1,0.2,0.3,0.2,0.3C43,26.9,27.2,42.6,22.2,69.3z"/>
	<path class="st1" d="M129.6,68.1c-5.6-26.5-21.7-41.8-48.4-46.3c0.7-0.7,1.5-1.6,2.3-2.4C87,15.9,90.5,12.5,93.9,9
		c0.4-0.4,0.9-0.8,1.5-1.2c1.5-0.9,2.6-0.8,3.8,0.5c14.2,14.2,28.3,28.3,42.5,42.5c1.8,1.8,1.8,3.4,0,5.3c-3.1,3.1-6.2,6.2-9.2,9.2
		C131.4,66.3,130.5,67.2,129.6,68.1z"/>
	<path class="st1" d="M22.1,80.9c4.3,26.6,19.6,42.8,46.1,48.5c0,0.3-0.4,0.4-0.6,0.7c-3.7,3.7-7.3,7.3-11,11
		c-0.6,0.6-1.2,1.1-1.9,1.4c-1.2,0.5-2.1,0.3-3.1-0.6c-14.3-14.4-28.7-28.7-43-43.1c-1-1-1.2-1.9-0.5-3.3c0.3-0.6,0.7-1.2,1.2-1.7
		C13.4,89.5,17.7,85.2,22.1,80.9C22,80.8,22.1,80.8,22.1,80.9z"/>
	<path class="st1" d="M82.5,129.5c26.6-5,42.3-20.8,47.3-47.4c0.2,0,0.4,0.3,0.6,0.6c3.7,3.7,7.4,7.3,11,11c0.4,0.4,0.7,0.8,1,1.2
		c1,1.6,0.8,2.7-0.5,4c-14.2,14.2-28.4,28.4-42.6,42.6c-1.4,1.4-2.7,1.5-4.4,0.4c-0.4-0.3-0.9-0.7-1.2-1.1
		c-3.6-3.6-7.2-7.3-10.8-10.9C82.7,129.8,82.6,129.6,82.5,129.5z"/>
</g>
</svg>
